# Blender 3.4.1
# www.blender.org
mtllib Espada.mtl
o tripo_node_8b907388-ae6c-4b29-afd1-853b0a14a5cb
v -0.000259 -0.143892 0.021541
v -0.000732 0.126825 -0.226271
v -0.000065 0.065968 -0.172480
v 0.003940 -0.389197 0.473436
v -0.001024 0.500181 -0.472143
v 0.000315 -0.105398 0.137416
v -0.000586 0.283942 -0.354655
v 0.000179 0.330253 -0.389131
v 0.000456 0.394031 -0.429729
v 0.006668 -0.312518 0.334580
v 0.006235 -0.226119 -0.046754
v -0.013360 -0.068942 0.247492
v -0.001608 0.444856 -0.455047
v 0.000009 -0.180066 0.057204
v 0.012057 -0.066370 0.250776
v -0.006207 -0.290250 0.308852
v -0.000176 0.431310 -0.366337
v -0.000878 0.483462 -0.431650
v -0.013057 -0.078409 0.254457
v 0.002330 -0.295086 -0.017312
v -0.000328 0.309255 -0.268762
v -0.000087 0.217512 -0.188721
v -0.029136 -0.435711 0.394447
v -0.001052 -0.129808 0.161196
v -0.000100 0.139233 -0.113454
v 0.002526 -0.209709 0.239614
v -0.004673 -0.392351 0.472735
v -0.000273 -0.074876 -0.044802
v -0.003505 -0.226826 0.246509
v 0.003069 -0.288460 0.306875
v 0.000853 -0.243785 0.263040
v -0.003121 -0.356563 0.412842
v 0.000144 0.050932 -0.023103
v -0.020913 -0.081404 0.227490
v 0.013708 -0.268820 0.282548
v -0.001628 -0.189764 0.066672
v -0.005820 -0.261035 0.280281
v 0.014943 -0.254603 0.015121
v 0.030287 -0.448266 0.392181
v 0.003545 -0.322747 0.210753
v 0.007369 -0.499114 0.341469
v -0.005822 -0.385868 0.270363
v 0.026043 -0.430532 0.389409
v -0.006431 -0.342529 0.230426
v -0.000012 0.202323 -0.290261
v -0.001609 -0.297974 0.174616
v -0.009199 -0.455612 0.451825
v -0.009874 -0.267087 0.282518
v -0.008088 -0.008520 0.219634
v 0.009688 -0.499300 0.385553
v 0.000730 -0.343112 0.384911
v 0.024425 -0.432341 0.375398
v -0.024043 -0.489531 0.433316
v -0.002280 -0.310743 0.333707
v -0.030035 -0.428025 0.382914
v 0.023479 -0.489430 0.433264
v -0.006879 -0.226277 -0.046618
v 0.003705 -0.048673 0.269431
v 0.028444 -0.107872 0.170225
v -0.012187 -0.255712 0.115356
v 0.027056 -0.442472 0.370222
v 0.018084 -0.264188 0.066931
v 0.021665 -0.447291 0.374916
v 0.003485 -0.462765 0.308328
v -0.005934 -0.364784 0.251711
v 0.029033 -0.450664 0.380379
v 0.006465 -0.326036 0.355542
v 0.001848 0.500406 -0.470773
v 0.010379 -0.286588 0.156571
v 0.009766 -0.491553 0.318560
v -0.004995 -0.426733 0.295054
v 0.010295 0.460300 -0.402936
v 0.005943 0.114251 -0.209722
v 0.005375 -0.190151 0.075127
v 0.001145 -0.309855 0.193536
v 0.005138 -0.000540 -0.106536
v 0.006743 -0.363987 0.251813
v 0.004116 0.434796 -0.448566
v 0.001444 -0.372670 0.461812
v 0.005216 -0.426585 0.295309
v 0.008966 -0.358608 0.414175
v 0.010460 -0.346879 0.385773
v 0.010849 -0.357305 0.410523
v 0.006280 -0.093821 -0.018279
v 0.008956 -0.386395 0.272264
v 0.003996 -0.255833 0.014244
v 0.008265 -0.009078 0.219756
v 0.011001 -0.292964 0.309679
v 0.011856 -0.254749 0.114861
v 0.011239 -0.459834 0.311597
v 0.007376 -0.342184 0.230714
v 0.023474 0.365470 -0.320900
v 0.008559 0.238293 -0.310281
v 0.017875 -0.294051 0.304672
v 0.009312 -0.456274 0.451443
v 0.008541 -0.304108 0.186412
v 0.017384 -0.090313 0.248486
v 0.023405 0.188704 -0.173372
v 0.017398 -0.319616 0.213072
v 0.035264 -0.156971 0.220457
v 0.024132 0.113024 -0.102426
v 0.027086 -0.098134 0.102784
v 0.008276 0.347656 -0.392397
v 0.018503 -0.327563 0.222363
v 0.017150 -0.333983 0.354826
v 0.023241 -0.307183 0.307669
v 0.020784 -0.185815 0.075734
v 0.024222 -0.489776 0.368697
v 0.027056 -0.149986 0.153640
v 0.016003 -0.384156 0.465652
v 0.018407 -0.290198 0.173976
v 0.020017 -0.256676 0.263184
v 0.021437 -0.082942 0.227232
v 0.020492 -0.416986 0.301188
v 0.029529 -0.437883 0.395578
v 0.013062 -0.175409 0.214122
v 0.016076 -0.490127 0.326670
v 0.019505 0.067205 -0.116480
v 0.016557 -0.370908 0.407074
v 0.019374 -0.457755 0.319733
v 0.017138 -0.216452 0.230212
v 0.020231 -0.400048 0.293499
v 0.023113 -0.337974 0.241110
v 0.021759 -0.361163 0.263093
v 0.020321 -0.326790 0.336701
v 0.027440 -0.297524 0.199173
v 0.022357 -0.301923 0.201005
v 0.024113 0.286416 -0.258371
v 0.022034 -0.419859 0.308339
v 0.017280 -0.175345 0.113054
v 0.027079 -0.284673 0.188000
v 0.016576 -0.233436 0.244830
v 0.024185 -0.277449 0.166183
v 0.019123 0.415240 -0.357143
v 0.020286 -0.369408 0.410387
v 0.020976 0.215177 -0.252555
v 0.027920 -0.185375 0.210516
v 0.026833 -0.440528 0.442623
v 0.025773 -0.232031 0.061240
v 0.022931 -0.356548 0.377809
v 0.017995 0.436492 -0.423013
v 0.026037 -0.283682 0.281581
v 0.017912 -0.174406 0.123574
v 0.028747 -0.314919 0.229534
v 0.018902 -0.065526 0.016076
v 0.019820 -0.384281 0.282983
v 0.024890 -0.236444 0.237984
v 0.018018 -0.355260 0.385475
v 0.022947 -0.372548 0.400013
v 0.025760 -0.346149 0.346960
v 0.019777 -0.255669 0.065469
v 0.029078 -0.487156 0.429679
v 0.026127 -0.003967 0.010693
v 0.024834 -0.174674 0.115532
v 0.025679 -0.441217 0.330122
v 0.023656 -0.219280 0.039848
v 0.028924 -0.248035 0.118870
v 0.028112 -0.367909 0.286822
v 0.022015 0.101029 -0.136687
v 0.022374 0.190033 -0.218779
v 0.022413 0.340959 -0.347214
v 0.021391 0.300046 -0.310931
v 0.019715 -0.414828 0.309233
v 0.028511 -0.397322 0.385005
v 0.025275 -0.207700 0.033064
v 0.025382 -0.442409 0.340536
v 0.024563 -0.165745 0.145465
v 0.029591 -0.378392 0.362788
v 0.032161 -0.323286 0.303477
v 0.031692 -0.350436 0.285941
v 0.024163 0.341240 -0.337400
v 0.025218 -0.372228 0.364586
v 0.023806 -0.441250 0.354098
v 0.024648 -0.411366 0.428854
v 0.023985 -0.227445 0.054577
v 0.033555 -0.277369 0.192591
v 0.025825 -0.388024 0.297019
v 0.028678 -0.415496 0.400459
v 0.032236 -0.238142 0.194810
v 0.029301 -0.207967 0.128546
v 0.028241 -0.396170 0.331300
v 0.031462 -0.340640 0.266084
v 0.035134 -0.169133 0.146766
v 0.028743 -0.275997 0.158393
v 0.026956 -0.349161 0.338486
v 0.032692 -0.388688 0.333986
v 0.027930 -0.220945 0.069406
v 0.033839 -0.132058 0.216148
v 0.037243 -0.286148 0.218355
v 0.037493 -0.104970 0.180138
v 0.034874 -0.304519 0.275212
v 0.034020 -0.272633 0.253991
v 0.028842 -0.378254 0.309592
v 0.031010 -0.358873 0.335540
v 0.032102 -0.355358 0.295349
v 0.028494 -0.096331 0.211390
v 0.036108 -0.322896 0.253657
v 0.033188 -0.246195 0.225126
v 0.033188 -0.259574 0.240444
v 0.032146 -0.260064 0.177649
v 0.030211 -0.427233 0.381876
v 0.031736 -0.112506 0.203472
v 0.032421 -0.367245 0.317777
v 0.032443 -0.338175 0.301004
v 0.035875 -0.239077 0.221124
v 0.033349 -0.336918 0.287689
v 0.038903 -0.262297 0.212582
v 0.037953 -0.131141 0.198531
v 0.035938 -0.205210 0.203222
v 0.035371 -0.318394 0.266026
v 0.037761 -0.288251 0.245046
v 0.035104 -0.133237 0.195589
v 0.037435 -0.293132 0.255888
v 0.037867 -0.272330 0.232091
v 0.032625 -0.274450 0.261385
v 0.035234 -0.306845 0.238603
v 0.040609 -0.142195 0.190123
v 0.040348 -0.238544 0.183298
v 0.039541 -0.253879 0.194652
v 0.040662 -0.191432 0.206109
v 0.043496 -0.159252 0.156371
v 0.038377 -0.160924 0.185103
v 0.038526 -0.186565 0.175371
v 0.039705 -0.223220 0.161826
v 0.042840 -0.170270 0.185472
v 0.043146 -0.189008 0.170700
v -0.000229 0.003177 -0.115476
v -0.009500 -0.488258 0.316678
v -0.000122 -0.008508 0.040123
v -0.005729 -0.326233 0.355453
v -0.013107 -0.321840 0.214409
v -0.007517 -0.211719 0.237867
v -0.003897 -0.048787 0.269166
v -0.024450 -0.446186 0.373526
v -0.031336 -0.137396 0.228324
v -0.011649 -0.174882 0.213822
v -0.006145 -0.073230 -0.038436
v -0.005777 0.091126 -0.189194
v -0.006579 0.364964 -0.407284
v 0.022670 -0.247174 0.114018
v -0.012802 -0.386502 0.274606
v -0.012987 -0.493368 0.323452
v -0.009175 0.468223 -0.413646
v -0.008008 0.245204 -0.316784
v -0.014845 -0.252241 0.011759
v -0.010085 -0.378548 0.464766
v -0.002665 -0.296175 -0.016563
v -0.007768 -0.500508 0.372794
v -0.023977 0.151117 -0.139226
v -0.006905 -0.462684 0.309698
v -0.019572 -0.305063 0.199759
v -0.010848 -0.346988 0.385398
v -0.007959 -0.187685 0.082231
v -0.018918 -0.188178 0.068549
v -0.028368 -0.451201 0.383743
v -0.019047 0.418027 -0.359320
v -0.028710 -0.436919 0.371209
v -0.013836 -0.257488 0.014120
v -0.019209 -0.293906 0.304741
v -0.027207 -0.115721 0.120640
v -0.014366 -0.364096 0.410823
v -0.020835 -0.300754 0.192448
v -0.017889 -0.254087 0.262763
v -0.020843 -0.303226 0.307252
v -0.017264 0.437416 -0.424079
v -0.016323 0.247121 -0.297184
v -0.018728 -0.324410 0.337801
v -0.010982 -0.286028 0.156466
v -0.017659 -0.215918 0.229081
v -0.027766 -0.144572 0.155710
v -0.018785 -0.401393 0.291295
v -0.016499 -0.333608 0.354847
v -0.018773 -0.366918 0.412041
v -0.023769 -0.337211 0.238076
v -0.024323 -0.490027 0.368341
v -0.022231 -0.415188 0.304744
v -0.017353 -0.176009 0.112581
v -0.017215 -0.460234 0.317188
v -0.016762 -0.420289 0.303078
v -0.019265 -0.451784 0.317261
v -0.020599 -0.277250 0.285009
v -0.019000 -0.354990 0.382897
v -0.019160 -0.361648 0.260556
v -0.017275 -0.386636 0.464140
v -0.027192 -0.345916 0.252924
v -0.033208 -0.128609 0.161683
v -0.024073 -0.278426 0.165027
v -0.016012 -0.261817 0.041500
v -0.019467 -0.236719 0.243882
v -0.026958 -0.183372 0.211392
v -0.022689 -0.411442 0.453842
v -0.021798 -0.290109 0.182372
v -0.030410 -0.448236 0.393085
v -0.025197 -0.386854 0.393211
v -0.023850 0.362459 -0.318773
v -0.024160 0.276735 -0.250129
v -0.026114 -0.316891 0.226556
v -0.020778 0.077196 -0.119270
v -0.016856 -0.174603 0.121183
v -0.022760 -0.443234 0.335212
v -0.023627 -0.209876 0.024548
v -0.025444 0.059292 -0.049387
v -0.019439 -0.256631 0.067297
v -0.021114 -0.361053 0.379638
v -0.019312 -0.261104 0.069743
v -0.022994 -0.246883 0.113681
v -0.026851 -0.386359 0.297932
v -0.021227 -0.080149 0.037690
v -0.030547 -0.270364 0.259343
v -0.027500 -0.444539 0.342617
v -0.026508 -0.015691 0.021571
v -0.020936 -0.173428 0.132361
v -0.023385 -0.378424 0.281150
v -0.028490 -0.231058 0.204878
v -0.024361 -0.227429 0.047809
v -0.022659 0.340190 -0.349199
v -0.021541 0.193841 -0.226688
v -0.027540 -0.286180 0.280845
v -0.026232 -0.237554 0.237393
v -0.023659 -0.218223 0.036237
v -0.021763 0.330805 -0.334853
v -0.026595 -0.342753 0.338276
v -0.033973 -0.236703 0.225853
v -0.029087 -0.276339 0.159042
v -0.028323 -0.407494 0.323852
v -0.032374 -0.328131 0.254804
v -0.024003 0.232282 -0.250591
v -0.024516 -0.173380 0.122445
v -0.036282 -0.287640 0.215698
v -0.026651 -0.348425 0.345369
v -0.029453 -0.486123 0.429463
v -0.025496 -0.166653 0.146496
v -0.034923 -0.275971 0.193087
v -0.024416 -0.412426 0.426162
v -0.027628 -0.224756 0.087436
v -0.025508 -0.220836 0.084730
v -0.031140 -0.196777 0.065297
v -0.026394 -0.442764 0.367814
v -0.027847 -0.437246 0.344610
v -0.036064 -0.265417 0.237941
v -0.027549 -0.223121 0.065559
v -0.026185 -0.367477 0.368280
v -0.029837 -0.324962 0.306045
v -0.034865 -0.312997 0.237651
v -0.031428 -0.351429 0.286908
v -0.029015 -0.396330 0.388027
v -0.035947 -0.099055 0.182532
v -0.027713 -0.356355 0.331702
v -0.028341 -0.249943 0.120108
v -0.039141 -0.274979 0.207019
v -0.029547 -0.417760 0.398999
v -0.026874 -0.398845 0.328046
v -0.035317 -0.305511 0.230692
v -0.029869 -0.207073 0.129139
v -0.032437 -0.387839 0.335209
v -0.029567 -0.377162 0.310500
v -0.030847 -0.384841 0.350758
v -0.032804 -0.353946 0.302463
v -0.031432 -0.264201 0.174377
v -0.029973 -0.100032 0.208553
v -0.036983 -0.301168 0.246576
v -0.031508 -0.118349 0.201054
v -0.032131 -0.365172 0.329788
v -0.032375 -0.364961 0.319743
v -0.034410 -0.335677 0.293729
v -0.035494 -0.308736 0.273024
v -0.036503 -0.320893 0.257586
v -0.035676 -0.205140 0.203661
v -0.034947 -0.169590 0.146562
v -0.033240 -0.335137 0.307256
v -0.033473 -0.243364 0.190119
v -0.036691 -0.122687 0.197383
v -0.038490 -0.211831 0.135528
v -0.041176 -0.233920 0.185917
v -0.038186 -0.289912 0.242516
v -0.036339 -0.288994 0.260470
v -0.039078 -0.249966 0.197240
v -0.039140 -0.164754 0.184170
v -0.038620 -0.256293 0.217080
v -0.044016 -0.151575 0.159424
v -0.040416 -0.186475 0.207965
v -0.037781 -0.210005 0.166352
v -0.042873 -0.162070 0.181740
v -0.039643 -0.222560 0.161099
v -0.042578 -0.156099 0.190751
vn -0.8364 -0.0373 0.5468
vn -0.2946 -0.0194 0.9554
vn -0.7815 0.2442 0.5741
vn 0.2214 0.1478 0.9639
vn 0.4123 -0.2387 0.8792
vn -0.3088 -0.3007 0.9023
vn 0.5721 -0.2049 0.7942
vn 0.9976 0.0532 0.0433
vn 0.9972 0.0538 0.0514
vn 0.9972 0.0541 0.0509
vn 0.0030 0.0513 -0.9987
vn -0.0859 -0.2031 -0.9754
vn 0.6460 0.4866 -0.5881
vn -0.4501 0.6556 0.6063
vn 0.0958 0.8374 0.5381
vn 0.6221 0.3815 0.6837
vn 0.9823 0.1346 0.1300
vn 0.9823 0.1353 0.1297
vn 0.9823 0.1349 0.1298
vn 0.9815 0.1507 0.1179
vn 0.9813 0.1512 0.1188
vn 0.9818 0.1537 0.1119
vn 0.8848 0.1264 0.4485
vn 0.9720 0.1703 0.1618
vn 0.9084 0.3873 -0.1577
vn 0.9829 0.1284 0.1319
vn 0.9854 0.1150 0.1259
vn 0.9832 0.1280 0.1303
vn 0.7817 0.5778 -0.2348
vn 0.3926 0.8877 -0.2407
vn -0.1762 0.9225 0.3434
vn 0.8471 0.5295 -0.0457
vn 0.4776 0.4440 0.7582
vn 0.5422 0.7489 0.3810
vn 0.8383 0.4661 0.2829
vn 0.8910 0.1165 0.4388
vn -0.0091 -0.4697 0.8828
vn -0.0015 -0.4686 0.8834
vn -0.0078 -0.4712 0.8820
vn 0.3657 -0.7412 0.5630
vn 0.7102 -0.5867 0.3890
vn 0.9969 0.0347 0.0701
vn 0.9977 0.0273 0.0620
vn 0.9977 0.0272 0.0623
vn -0.1056 -0.8799 -0.4633
vn 0.7937 -0.6082 0.0109
vn 0.9971 0.0564 0.0502
vn 0.9969 0.0529 0.0575
vn 0.9967 0.0501 0.0646
vn 0.9987 0.0152 0.0492
vn 0.9988 -0.0019 0.0498
vn 0.9985 0.0073 0.0539
vn 0.9986 0.0285 0.0457
vn 0.9951 0.0542 0.0828
vn 0.9904 0.0979 0.0979
vn -0.9819 -0.0057 0.1891
vn -0.9827 0.0010 0.1852
vn -0.9829 0.0002 0.1839
vn -0.9762 0.1823 0.1173
vn -0.9852 0.0973 0.1408
vn -0.9911 0.0492 0.1235
vn -0.9920 0.0507 0.1158
vn -0.9920 0.0511 0.1157
vn -0.8341 0.5504 0.0364
vn -0.7827 0.6208 0.0447
vn -0.7423 0.1441 -0.6543
vn -0.7438 0.1403 -0.6535
vn -0.7482 0.1523 -0.6457
vn 0.0751 -0.8456 -0.5285
vn 0.0839 -0.8248 -0.5592
vn -0.0531 -0.8210 -0.5685
vn -0.9979 -0.0418 0.0492
vn -0.9971 -0.0316 0.0690
vn -0.9981 -0.0031 0.0610
vn -0.4171 -0.6766 0.6068
vn 0.4238 -0.9049 0.0381
vn -0.4829 -0.8744 -0.0472
vn -0.6548 -0.6182 0.4348
vn -0.5202 -0.8532 -0.0363
vn -0.9985 0.0219 0.0493
vn -0.9988 0.0274 0.0404
vn -0.9991 0.0222 0.0365
vn -0.7603 0.6431 -0.0916
vn -0.5126 0.7468 0.4238
vn -0.7056 0.7074 0.0402
vn 0.0109 0.8831 0.4690
vn 0.3068 0.8168 0.4886
vn -0.8540 0.4311 0.2912
vn -0.9315 0.2412 0.2722
vn -0.9484 0.1864 0.2565
vn -0.9423 0.2926 0.1628
vn -0.9422 0.3006 0.1478
vn -0.9460 0.2941 0.1363
vn 0.8451 -0.5270 -0.0901
vn 0.9854 0.1217 0.1192
vn -0.0498 -0.9860 0.1592
vn -0.0479 -0.9859 0.1605
vn 0.9856 0.1590 -0.0577
vn 0.8044 -0.5027 -0.3165
vn 0.7956 0.1775 -0.5793
vn 0.5678 -0.5685 -0.5953
vn 0.9297 -0.3212 -0.1802
vn 0.2439 -0.3046 -0.9207
vn -0.3280 -0.4129 -0.8497
vn 0.2729 -0.4359 -0.8576
vn 0.7893 0.0987 -0.6061
vn -0.1204 -0.9283 -0.3519
vn -0.9915 -0.1049 -0.0774
vn -0.9924 -0.0992 -0.0727
vn -0.9924 -0.0993 -0.0727
vn -0.2736 0.5607 -0.7815
vn -0.7824 0.6189 -0.0693
vn -0.9953 -0.0756 -0.0605
vn -0.0441 0.7043 0.7086
vn -0.9997 0.0235 -0.0069
vn -0.5173 -0.7453 0.4206
vn -0.8387 -0.3723 0.3974
vn -0.0969 -0.7622 0.6400
vn -0.0313 0.7788 0.6265
vn 0.8772 0.0824 0.4729
vn -0.7102 0.5992 -0.3695
vn -0.8961 -0.0596 0.4399
vn -0.2144 0.8359 0.5053
vn 0.8207 0.5694 0.0467
vn -0.7742 0.6120 -0.1616
vn -0.9164 -0.3723 -0.1473
vn 0.9309 -0.3292 -0.1585
vn -0.9996 0.0281 0.0070
vn -0.9993 0.0361 0.0127
vn -0.9993 0.0364 0.0110
vn -0.9469 -0.3051 -0.1015
vn -0.8011 -0.5505 -0.2348
vn -0.7212 0.2280 -0.6542
vn -0.4120 -0.2923 -0.8630
vn 0.2519 -0.9520 -0.1737
vn 0.0753 -0.9971 -0.0073
vn 0.0698 -0.9975 0.0092
vn 0.0754 -0.9971 -0.0074
vn -0.8586 0.1820 -0.4793
vn -0.7890 -0.3205 -0.5241
vn -0.9975 -0.0545 -0.0457
vn -0.9980 -0.0506 -0.0388
vn -0.9968 -0.0630 -0.0487
vn -0.9979 0.0268 0.0585
vn -0.9986 0.0205 0.0491
vn -0.9986 0.0203 0.0492
vn 0.9637 0.2668 -0.0109
vn 0.9416 -0.3326 0.0521
vn 0.9958 0.0408 0.0818
vn 0.9951 0.0445 0.0881
vn 0.9946 0.0526 0.0893
vn -0.9718 -0.1927 -0.1362
vn -0.8333 -0.5400 -0.1183
vn -0.8037 -0.3086 -0.5087
vn -0.7745 -0.5574 0.2992
vn -0.9665 -0.1812 -0.1816
vn -0.9917 -0.0248 -0.1264
vn -0.9925 -0.0218 -0.1205
vn -0.9933 -0.0120 -0.1151
vn -0.9429 0.2865 0.1699
vn -0.7747 0.5292 0.3460
vn 0.8866 -0.3865 0.2540
vn 0.9865 0.0636 -0.1507
vn 0.9900 0.0654 -0.1250
vn 0.9896 0.0568 -0.1319
vn 0.9076 -0.2310 -0.3506
vn 0.7613 -0.6094 -0.2215
vn 0.3914 -0.5475 -0.7396
vn 0.8641 -0.2286 -0.4485
vn 0.9454 -0.2309 -0.2302
vn 0.9491 -0.2614 -0.1756
vn 0.9753 0.1512 0.1609
vn 0.9248 0.3533 0.1408
vn 0.9497 0.3010 0.0864
vn 0.7174 0.6036 0.3478
vn 0.8000 0.4812 0.3584
vn 0.8137 -0.4039 0.4181
vn 0.8117 0.4298 -0.3955
vn 0.8100 0.4465 -0.3801
vn 0.8010 0.4515 -0.3932
vn -0.5391 0.7430 0.3965
vn -0.4999 0.7435 0.4442
vn -0.5257 0.7661 0.3697
vn -0.7108 0.5662 0.4174
vn -0.9745 0.1798 0.1342
vn -0.8703 0.4300 -0.2403
vn -0.9314 0.2531 0.2617
vn -0.9869 0.0476 0.1541
vn -0.9858 0.0538 0.1593
vn -0.9869 0.0570 0.1507
vn -0.5954 -0.5161 -0.6157
vn 0.3796 -0.6430 -0.6651
vn -0.1017 -0.5335 -0.8396
vn 0.3360 0.7488 0.5713
vn 0.8230 0.4675 0.3226
vn 0.7403 0.0171 0.6721
vn 0.9823 -0.1718 -0.0748
vn 0.9901 -0.1304 0.0527
vn 0.9851 0.1411 0.0986
vn 0.9503 -0.2143 -0.2258
vn 0.8882 -0.4105 -0.2064
vn 0.9057 -0.3706 -0.2056
vn 0.9066 -0.3769 -0.1897
vn 0.9756 -0.1690 -0.1400
vn 0.9303 -0.2743 -0.2436
vn 0.7021 -0.5615 -0.4379
vn 0.9999 -0.0092 -0.0110
vn 0.9995 -0.0121 -0.0281
vn 0.9999 -0.0089 -0.0111
vn -0.1384 0.7783 0.6124
vn -0.3547 0.9270 -0.1218
vn -0.6890 0.4744 0.5479
vn -0.9683 0.2490 0.0180
vn 0.1302 0.7234 0.6781
vn -0.5202 0.4539 0.7235
vn -0.7054 0.6788 0.2041
vn -0.8327 0.3798 0.4029
vn -0.9027 0.2812 0.3257
vn -0.8415 -0.3845 0.3795
vn -0.9825 -0.1331 -0.1302
vn -0.8234 -0.4919 -0.2827
vn -0.9758 -0.1705 -0.1368
vn -0.9130 -0.2140 0.3473
vn -0.7210 -0.4861 -0.4938
vn -0.1805 -0.6509 -0.7374
vn -0.2619 -0.6351 -0.7267
vn -0.8067 -0.3713 -0.4598
vn -0.9508 0.1717 0.2581
vn -0.9543 -0.1947 -0.2265
vn -0.9563 -0.1875 -0.2244
vn -0.9700 -0.0918 -0.2249
vn 0.5688 0.8209 0.0501
vn 0.5305 0.4691 0.7061
vn 0.8102 0.4121 0.4169
vn -0.7711 -0.2240 -0.5960
vn -0.8214 -0.2074 -0.5313
vn -0.8227 -0.1934 -0.5345
vn -0.9470 -0.1669 -0.2744
vn -0.9995 -0.0294 0.0071
vn -0.9996 -0.0160 0.0211
vn -0.9993 -0.0364 -0.0011
vn -0.3581 0.7311 0.5808
vn 0.4277 0.6541 0.6239
vn 0.9530 0.1942 0.2327
vn 0.9938 -0.0383 0.1040
vn 0.9919 -0.0484 0.1173
vn 0.9945 -0.0545 0.0895
vn 0.9950 -0.0899 0.0444
vn 0.8450 -0.5347 0.0089
vn 0.8737 -0.3568 -0.3308
vn 0.7632 -0.4642 -0.4494
vn 0.6060 -0.4190 -0.6762
vn 0.7522 -0.4439 -0.4870
vn 0.0103 -0.9890 -0.1477
vn -0.0228 -0.9831 -0.1818
vn -0.0552 -0.9796 -0.1934
vn -0.1904 0.6013 0.7760
vn 0.5335 0.5958 0.6003
vn 0.8579 0.3126 0.4079
vn 0.9873 0.1043 0.1200
vn 0.5176 -0.3211 0.7930
vn 0.9949 -0.0457 0.0899
vn 0.9907 0.1011 0.0908
vn 0.9380 0.2535 0.2366
vn 0.9994 -0.0317 0.0106
vn 0.9793 -0.1298 -0.1552
vn -0.5442 -0.8304 -0.1198
vn -0.8700 -0.4162 -0.2643
vn -0.7958 -0.5626 0.2239
vn -0.8123 -0.0160 -0.5830
vn -0.2627 -0.6291 -0.7316
vn 0.2244 -0.6631 -0.7141
vn 0.2715 -0.6918 -0.6691
vn -0.5780 0.5775 0.5766
vn 0.0270 -0.5308 0.8471
vn 0.7844 0.4690 0.4059
vn 0.8002 0.4485 0.3982
vn 0.7902 0.4730 0.3896
vn 0.8015 0.4475 0.3966
vn 0.7989 0.4386 0.4116
vn 0.8055 0.4369 0.4003
vn 0.9171 0.3320 0.2206
vn 0.7421 0.3836 0.5497
vn 0.9064 0.0798 0.4149
vn 0.4872 0.5330 0.6918
vn -0.8522 0.3911 0.3476
vn -0.8982 0.2794 0.3393
vn -0.8879 0.2892 0.3579
vn -0.8851 0.3133 0.3442
vn -0.9858 -0.1065 -0.1296
vn -0.9916 -0.0978 -0.0841
vn -0.9935 -0.0686 -0.0904
vn -0.8993 -0.4170 -0.1320
vn -0.9841 0.1216 0.1292
vn -0.9967 -0.0327 0.0741
vn -0.9779 0.1270 -0.1661
vn -0.9931 -0.0988 -0.0634
vn -0.9944 -0.0755 -0.0736
vn -0.9916 -0.0979 -0.0847
vn -0.6625 -0.6033 0.4440
vn -0.9986 -0.0071 0.0518
vn -0.9970 0.0145 0.0762
vn -0.9983 0.0163 0.0559
vn 0.0402 0.7131 0.6999
vn 0.7458 0.3428 0.5712
vn -0.1294 0.5285 0.8390
vn 0.1577 0.4883 0.8583
vn -0.4310 0.4594 0.7767
vn -0.6501 0.4747 0.5932
vn -0.7674 0.2970 0.5683
vn -0.9503 0.1073 0.2924
vn -0.8949 0.3318 0.2984
vn -0.6499 0.5478 0.5268
vn -0.9588 0.1863 0.2145
vn -0.9897 0.1043 0.0984
vn 0.9432 0.1817 0.2781
vn 0.2784 -0.0992 0.9553
vn 0.8240 0.0720 0.5620
vn 0.0044 0.8300 -0.5578
vn -0.7974 0.5912 -0.1207
vn -0.0096 0.8133 -0.5818
vn 0.0322 0.7270 -0.6859
vn 0.0193 0.7295 -0.6837
vn 0.0128 0.7265 -0.6870
vn -0.3423 0.9083 -0.2404
vn -0.8262 -0.0053 0.5633
vn -0.9209 0.3716 0.1177
vn -0.7525 -0.0703 0.6549
vn -0.9578 0.1412 0.2503
vn -0.6643 0.3680 -0.6506
vn -0.9461 0.1941 0.2594
vn -0.9523 0.1870 0.2412
vn -0.9531 0.1842 0.2401
vn -0.5352 0.4498 -0.7150
vn -0.5342 0.4488 -0.7164
vn -0.5343 0.4517 -0.7145
vn 0.0081 -0.4316 0.9020
vn 0.0146 -0.4346 0.9005
vn 0.0154 -0.4373 0.8992
vn 0.9765 -0.1504 -0.1545
vn -0.4236 -0.6354 -0.6457
vn -0.0097 -0.7551 -0.6556
vn 0.7770 -0.5255 -0.3466
vn 0.1944 -0.9692 0.1510
vn 0.6998 -0.5213 -0.4884
vn -0.0237 -0.8400 -0.5421
vn 0.5591 -0.7122 -0.4245
vn 0.8486 -0.0342 -0.5279
vn 0.8302 -0.0212 -0.5571
vn 0.8437 0.0022 -0.5368
vn 0.8164 -0.4631 -0.3450
vn 0.2546 -0.7601 -0.5978
vn 0.2620 -0.7420 -0.6171
vn 0.2961 -0.7365 -0.6082
vn 0.7538 -0.5876 -0.2942
vn 0.5681 -0.5854 -0.5784
vn 0.5371 -0.5894 -0.6035
vn 0.5536 -0.5849 -0.5928
vn 0.7559 0.6254 -0.1936
vn 0.8015 0.5656 -0.1942
vn 0.7749 0.6016 -0.1939
vn 0.1006 -0.3804 0.9193
vn 0.9475 0.2032 0.2469
vn 0.9611 0.1836 0.2064
vn 0.9478 0.1964 0.2511
vn 0.2966 0.4900 -0.8197
vn 0.9197 0.2976 -0.2561
vn 0.3273 0.4250 -0.8440
vn 0.9504 0.3046 -0.0635
vn 0.8436 0.3069 -0.4407
vn 0.9569 0.1765 0.2307
vn 0.7906 -0.0906 0.6056
vn -0.9450 -0.2615 -0.1966
vn 0.9523 0.1953 0.2345
vn 0.9520 0.1902 0.2398
vn 0.9502 0.1861 0.2500
vn 0.0115 0.4465 -0.8947
vn -0.3372 0.3968 -0.8537
vn 0.9487 0.1816 0.2586
vn 0.9510 0.1808 0.2509
vn 0.9518 0.1748 0.2518
vn 0.8451 -0.4142 -0.3379
vn 0.8376 -0.4230 -0.3458
vn 0.8375 -0.4228 -0.3461
vn -0.5712 -0.8054 -0.1586
vn -0.5709 -0.6863 -0.4506
vn -0.6217 -0.6553 -0.4290
vn -0.9368 0.0161 -0.3495
vn -0.7094 -0.5799 -0.4007
vn -0.1286 -0.8539 -0.5043
vn -0.2993 -0.8200 -0.4879
vn -0.7235 -0.6861 -0.0765
vn -0.8062 -0.5710 0.1548
vn -0.9531 -0.2421 -0.1815
vn 0.9345 0.0095 0.3558
vn 0.4166 -0.2428 0.8761
vn 0.9726 0.1717 0.1566
vn 0.9969 0.0276 0.0737
vn 0.9971 0.0196 0.0730
vn 0.9969 0.0277 0.0732
vn 0.5867 -0.2628 0.7660
vn 0.9820 0.1088 0.1547
vn 0.9988 0.0350 0.0332
vn 0.8791 0.2450 -0.4088
vn 0.9708 0.0898 0.2224
vn 0.9642 0.0997 0.2457
vn 0.9642 0.1001 0.2456
vn 0.7762 -0.1299 0.6170
vn 0.5039 -0.2192 0.8355
vn -0.4200 0.2267 0.8787
vn 0.3759 -0.0816 0.9231
vn 0.5039 -0.2027 0.8397
vn 0.1382 0.0343 0.9898
vn -0.2011 0.4213 0.8843
vn -0.7088 -0.1801 0.6820
vn 0.9329 0.1139 0.3415
vn 0.0098 0.1032 0.9946
vn 0.0137 0.1100 0.9938
vn 0.0099 0.1032 0.9946
vn -0.0072 0.1091 0.9940
vn -0.0022 0.1123 0.9937
vn -0.9922 0.0627 0.1080
vn -0.9960 0.0865 0.0205
vn -0.9881 0.0567 0.1433
vn -0.6271 -0.2432 0.7400
vn -0.9978 -0.0620 0.0227
vn -0.9978 -0.0619 0.0230
vn -0.9978 -0.0620 0.0224
vn -0.9962 -0.0218 0.0838
vn -0.9963 -0.0219 0.0835
vn -0.9957 -0.0282 0.0882
vn -0.2536 -0.2448 0.9358
vn -0.7649 -0.3438 0.5448
vn 0.0083 -0.3587 0.9334
vn 0.0080 -0.3573 0.9339
vn 0.0081 -0.3596 0.9331
vn -0.0346 -0.3823 0.9234
vn -0.0344 -0.3822 0.9234
vn -0.0348 -0.3823 0.9234
vn -0.9876 0.1140 0.1079
vn -0.9876 0.1143 0.1079
vn -0.9891 0.1095 0.0983
vn 0.9938 0.0097 -0.1107
vn 0.8292 -0.5583 0.0267
vn 0.7651 -0.5432 -0.3457
vn 0.3625 -0.8750 -0.3208
vn 0.3191 -0.8850 -0.3391
vn 0.3107 -0.8773 -0.3658
vn 0.2815 -0.8043 -0.5234
vn -0.9652 0.1954 -0.1737
vn -0.9650 0.0762 0.2509
vn -0.9636 0.0720 0.2574
vn -0.9651 0.0760 0.2506
vn -0.9857 -0.0522 0.1603
vn 0.9973 -0.0355 0.0648
vn 0.9962 -0.0344 0.0805
vn 0.9968 -0.0429 0.0682
vn 0.9946 -0.0509 -0.0903
vn 0.9984 -0.0244 -0.0504
vn 0.9979 -0.0354 -0.0540
vn 0.7626 -0.6434 -0.0671
vn 0.9340 -0.3563 -0.0264
vn 0.7573 -0.6403 -0.1285
vn 0.8471 -0.3534 0.3969
vn 0.5350 -0.6619 -0.5250
vn 0.8429 0.1145 -0.5257
vn 0.6677 -0.3565 -0.6535
vn 0.9749 -0.1636 -0.1511
vn 0.9756 -0.1628 -0.1470
vn 0.9754 -0.1626 -0.1488
vn 0.5010 0.4635 -0.7309
vn 0.6487 0.3169 -0.6919
vn -0.0662 0.9750 -0.2121
vn 0.5998 0.5637 -0.5679
vn 0.6067 0.7042 -0.3687
vn -0.5723 -0.1633 0.8036
vn 0.4128 -0.7381 -0.5338
vn 0.6310 -0.7632 -0.1391
vn -0.9950 -0.0690 -0.0727
vn -0.8919 0.0082 -0.4522
vn -0.9582 0.2769 0.0716
vn -0.9977 -0.0096 -0.0671
vn -0.9971 -0.0171 -0.0745
vn -0.9976 -0.0179 -0.0674
vn 0.9660 -0.0186 0.2577
vn 0.9757 -0.0387 -0.2155
vn 0.9757 -0.0389 -0.2154
vn 0.9738 -0.0414 -0.2235
vn -0.9889 0.1034 0.1067
vn -0.9881 0.1031 0.1142
vn -0.9881 0.1026 0.1145
vn -0.6769 0.3695 -0.6366
vn -0.5165 0.3321 -0.7892
vn -0.2660 0.7037 -0.6588
vn -0.3583 0.4562 -0.8146
vn -0.4142 0.6720 -0.6139
vn -0.5886 -0.8065 -0.0560
vn -0.9277 -0.3464 0.1390
vn -0.9280 -0.3460 0.1385
vn -0.9256 -0.3493 0.1457
vn -0.4041 -0.7553 -0.5160
vn -0.4145 -0.7569 -0.5054
vn -0.4469 -0.7353 -0.5096
vn -0.0777 -0.5176 -0.8521
vn 0.1461 -0.5271 -0.8371
vn -0.7900 -0.5096 -0.3409
vn -0.8641 -0.1619 -0.4766
vn -0.7900 0.1234 -0.6005
vn 0.2093 0.6420 -0.7376
vn 0.5599 0.4316 -0.7073
vn -0.7300 0.5300 0.4316
vn -0.5620 0.6426 0.5208
vn 0.9817 -0.0903 -0.1674
vn 0.9817 -0.0908 -0.1675
vn 0.9817 -0.0905 -0.1675
vn -0.9721 -0.1859 -0.1432
vn -0.9723 -0.1830 -0.1454
vn -0.4777 0.6289 0.6135
vn -0.4782 0.6279 0.6140
vn -0.4703 0.6265 0.6215
vn 0.5871 0.5596 0.5850
vn 0.5876 0.5700 0.5743
vn -0.0957 0.9664 -0.2386
vn 0.2244 0.9172 -0.3292
vn -0.5878 0.7371 -0.3336
vn -0.6071 0.2413 -0.7571
vn -0.5982 0.2517 -0.7608
vn -0.5900 0.2622 -0.7636
vn -0.6596 0.2333 -0.7145
vn -0.9590 -0.1530 -0.2387
vn -0.9590 -0.1539 -0.2382
vn -0.9591 -0.1596 -0.2339
vn 0.9788 -0.1463 -0.1431
vn 0.9794 -0.1428 -0.1431
vn 0.9794 -0.1419 -0.1437
vn 0.9881 -0.1116 -0.1058
vn -0.9835 -0.1332 -0.1227
vn -0.9834 -0.1337 -0.1227
vn -0.9829 -0.1362 -0.1239
vn -0.2458 0.9505 -0.1901
vn 0.6958 0.6873 -0.2086
vn 0.5751 0.7756 -0.2601
vn -0.8508 -0.3729 -0.3702
vn -0.2411 0.9176 -0.3160
vn -0.9495 0.2987 -0.0961
vn -0.7094 -0.7047 0.0104
vn -0.9847 -0.1328 -0.1132
vn -0.9002 0.3615 0.2427
vn -0.9289 -0.3421 0.1420
vn -0.9288 -0.3429 0.1408
vn -0.9289 -0.3432 0.1394
vn -0.9926 -0.1018 -0.0661
vn -0.9925 -0.1023 -0.0670
vn -0.9924 -0.1033 -0.0676
vn -0.2842 0.9232 -0.2586
vn -0.6116 0.6775 -0.4087
vn 0.9877 -0.1556 0.0163
vn 0.9878 -0.1545 0.0166
vn 0.9878 -0.1557 0.0104
vn 0.3927 0.8737 -0.2870
vn 0.4044 0.8700 -0.2819
vn 0.3941 0.8733 -0.2866
vn 0.6415 0.7116 -0.2866
vn 0.6498 0.6976 -0.3019
vn 0.6397 0.7129 -0.2873
vn 0.9969 -0.0214 -0.0752
vn 0.9964 -0.0228 -0.0811
vn 0.9965 -0.0230 -0.0799
vn 0.9739 -0.2241 -0.0362
vn 0.9937 -0.0310 -0.1081
vn 0.9163 0.3712 0.1504
vn -0.9924 0.0612 -0.1067
vn -0.9814 -0.1801 -0.0669
vn -0.8767 -0.4803 0.0274
vn 0.6450 -0.7450 0.1703
vn 0.9855 -0.1696 0.0106
vn 0.9855 -0.1695 0.0105
vn 0.9855 -0.1694 0.0105
vn -0.5704 0.5770 0.5846
vn -0.5680 0.5813 0.5827
vn -0.5715 0.5763 0.5841
vn -0.5658 0.5807 0.5854
vn -0.5657 0.5809 0.5853
vn -0.5668 0.5795 0.5855
vn -0.4889 0.8182 -0.3026
vn -0.9908 -0.1357 0.0001
vn -0.9908 -0.1355 0.0001
vn -0.9908 -0.1352 0.0002
vn -0.9736 -0.1577 -0.1649
vn 0.7204 -0.4842 -0.4965
vn 0.0472 -0.7099 -0.7028
vn 0.0127 -0.6643 -0.7473
vn -0.4270 -0.6031 -0.6737
vn -0.9749 -0.1760 -0.1367
vn -0.9685 -0.2294 -0.0969
vn -0.9685 -0.2295 -0.0969
vn -0.9667 -0.2348 -0.1020
vn 0.7503 -0.6534 0.1003
vn 0.5596 0.5853 0.5868
vn 0.5505 0.5607 0.6185
vn -0.3692 -0.1717 -0.9134
vn 0.3974 -0.6429 -0.6548
vn 0.9702 -0.2322 -0.0690
vn -0.7385 -0.4593 -0.4936
vn 0.9752 -0.1709 -0.1409
vn 0.9428 -0.0689 -0.3261
vn 0.4180 -0.4480 -0.7903
vn 0.9678 -0.2059 -0.1450
vn 0.5437 0.6055 0.5811
vn 0.5418 0.6102 0.5780
vn 0.5416 0.6102 0.5782
vn -0.5891 -0.0699 -0.8051
vn -0.9867 -0.1078 -0.1219
vn -0.9867 -0.1127 -0.1170
vn -0.9874 -0.1082 -0.1157
vn -0.9775 -0.1687 -0.1263
vn -0.9792 -0.1632 -0.1209
vn -0.9775 -0.1689 -0.1266
vn -0.9696 -0.1463 -0.1962
vn -0.9712 -0.1398 -0.1929
vn -0.9712 -0.1391 -0.1936
vn -0.5780 0.7536 -0.3131
vn -0.8271 0.4749 -0.3006
vn -0.9805 -0.1426 -0.1348
vn -0.9768 -0.1550 -0.1477
vn 0.0545 0.9510 -0.3042
vn 0.0527 0.9511 -0.3043
vn 0.0538 0.9530 -0.2983
vn -0.0499 0.9512 -0.3044
vn -0.0458 0.9524 -0.3013
vn -0.0498 0.9515 -0.3037
vn -0.8540 -0.3738 -0.3619
vn -0.9983 0.0349 0.0470
vn -0.9993 0.0081 0.0371
vn -0.9994 0.0263 0.0231
vn 0.9816 -0.1291 -0.1406
vn 0.9818 -0.1287 -0.1396
vn 0.9566 -0.2095 -0.2025
vn 0.9555 -0.2080 -0.2092
vn 0.9558 -0.2086 -0.2073
vn 0.9537 -0.2064 -0.2187
vn 0.9848 -0.1311 -0.1141
vn 0.9851 -0.1241 -0.1192
vn 0.9853 -0.1233 -0.1181
vn 0.9749 -0.1438 -0.1701
vn 0.5986 0.7372 -0.3133
vn 0.5986 0.7372 -0.3134
vn 0.5991 0.7375 -0.3119
vn -0.0091 0.9500 -0.3122
vn -0.0093 0.9498 -0.3128
vn -0.0091 0.9500 -0.3120
vn -0.9667 -0.2390 -0.0914
vn -0.9656 -0.2326 -0.1166
vn -0.9675 -0.2325 -0.0998
vn 0.0595 -0.3929 -0.9176
vn 0.2591 -0.7783 -0.5720
vn -0.0275 -0.9108 -0.4119
vn -0.0264 -0.9111 -0.4114
vn -0.0281 -0.9106 -0.4123
vn 0.0142 -0.9002 -0.4353
vn 0.0420 -0.9222 -0.3844
vn -0.0160 -0.9238 -0.3826
vn 0.9565 -0.2010 -0.2113
vn 0.8040 -0.4071 -0.4334
vn -0.5626 0.5800 0.5892
vn -0.5454 0.5886 0.5968
vn -0.4291 0.6486 0.6287
vn -0.0646 0.6979 0.7133
vn -0.4305 0.6579 0.6179
vn 0.4846 0.6117 0.6253
vn 0.4787 0.6210 0.6207
vn 0.4810 0.6090 0.6306
vn -0.9537 -0.2077 -0.2176
vn -0.9557 -0.2059 -0.2102
vn -0.9536 -0.2132 -0.2126
vn -0.9832 -0.1152 -0.1419
vn -0.9848 -0.1116 -0.1332
vn -0.9837 -0.1113 -0.1410
vn -0.9923 -0.0891 -0.0860
vn -0.9928 -0.0816 -0.0874
vn -0.9929 -0.0819 -0.0866
vn -0.3892 0.6420 0.6606
vn 0.9747 -0.1615 -0.1542
vn 0.9979 -0.0268 -0.0582
vn 0.9984 -0.0284 -0.0486
vn 0.9980 -0.0350 -0.0530
vn -0.7896 -0.4022 -0.4635
vn 0.0147 -0.6500 -0.7598
vn 0.4135 0.6531 0.6344
vn 0.4130 0.6529 0.6350
vn 0.4136 0.6532 0.6342
vn -0.0126 -0.6612 -0.7501
vn -0.9939 -0.0657 -0.0886
vn -0.9951 -0.0632 -0.0764
vn -0.9939 -0.0663 -0.0885
vn 0.3784 0.6374 0.6713
vn 0.3399 0.6497 0.6799
vn 0.9996 -0.0109 -0.0252
vn 0.9997 -0.0061 -0.0240
vn 0.9996 -0.0117 -0.0254
vn 0.9978 -0.0493 -0.0453
vn 0.9981 -0.0416 -0.0447
vn 0.9982 -0.0422 -0.0430
vn 0.2496 0.6431 0.7240
vn -0.2780 0.6328 0.7227
vn -0.2754 0.6321 0.7243
vn -0.2792 0.6341 0.7211
vn 0.7682 -0.4220 -0.4815
vn 0.9637 -0.1700 -0.2061
vn 0.7888 -0.3784 -0.4843
vn -0.9477 -0.2134 -0.2374
vn -0.9015 -0.2690 -0.3390
vn -0.9564 -0.1900 -0.2218
vn -0.1106 -0.6275 -0.7707
vn -0.9295 -0.2406 -0.2795
vn -0.9974 -0.0589 -0.0417
vn -0.9981 -0.0517 -0.0337
vn -0.9979 -0.0501 -0.0406
vn 0.2953 0.6234 0.7240
vn -1.0000 -0.0015 -0.0012
vn -1.0000 -0.0012 -0.0018
vn -0.7706 -0.3886 -0.5052
vn 0.9834 -0.1038 -0.1487
vn -0.0041 -0.6337 -0.7735
vn 0.9993 -0.0298 -0.0233
vn 0.9991 -0.0289 -0.0297
vn 0.9991 -0.0290 -0.0296
vn 0.9995 -0.0291 -0.0155
vn 0.9997 -0.0182 -0.0146
vn 0.9997 -0.0221 -0.0127
vn 0.2872 0.6229 0.7277
vn 0.2880 0.6232 0.7271
vn 0.2827 0.6229 0.7294
vn -0.2734 0.6277 0.7289
vn -0.2954 0.6376 0.7114
vn -0.0383 0.6304 0.7753
vn 0.9996 0.0245 0.0101
vn 0.9997 0.0190 0.0162
vn 0.9993 0.0102 0.0369
vn -0.9909 0.0682 0.1163
vn 0.9629 -0.1989 -0.1824
vn -0.0501 -0.6010 -0.7976
vn -0.9998 -0.0178 -0.0027
vn 0.9371 -0.2316 -0.2612
vn 0.3628 0.5716 0.7360
vn 0.2387 0.6096 0.7559
vn 0.0322 -0.5779 -0.8155
vn -0.9981 -0.0354 -0.0511
vn -0.9980 -0.0350 -0.0521
vn -0.9980 -0.0349 -0.0528
vn -0.9996 0.0011 -0.0292
vn -0.9996 0.0006 -0.0280
vn -0.9994 -0.0049 -0.0352
vn -0.2850 0.5815 0.7619
vn 0.9989 0.0406 -0.0250
vn 0.9989 0.0401 -0.0238
vn 0.9989 0.0401 -0.0236
vn 0.9822 -0.0883 -0.1658
vn 0.9809 -0.0888 -0.1732
vn 0.9804 -0.0968 -0.1719
vn 0.7132 -0.3973 -0.5775
vn 0.9218 -0.2135 -0.3235
vn 0.9220 -0.2149 -0.3220
vn 0.9222 -0.2106 -0.3242
vn -0.1879 0.6477 0.7384
vn -0.5192 -0.4505 -0.7263
vn -0.8952 -0.2633 -0.3595
vn -0.8956 -0.2630 -0.3588
vn -0.8958 -0.2627 -0.3585
vn -0.9971 -0.0739 0.0157
vn -0.9971 -0.0738 0.0158
vn -0.9972 -0.0728 0.0159
vn 0.7267 0.4891 0.4825
vn 0.0042 0.7248 0.6890
vn 0.9829 0.1608 -0.0893
vn 0.6290 0.6612 0.4089
vn 0.8563 -0.2547 -0.4494
vn 0.8592 -0.2526 -0.4449
vn 0.8578 -0.2542 -0.4467
vn -0.5131 0.7240 0.4610
vn -0.9985 0.0117 -0.0531
vn -0.9984 0.0220 -0.0515
vn -0.9983 0.0206 -0.0547
vn -0.9960 0.0896 -0.0052
vn -0.9960 0.0894 0.0032
vn -0.9961 0.0886 0.0018
vn -0.0277 0.9004 0.4341
vn 0.0716 -0.4643 -0.8828
vn 0.5376 -0.3198 -0.7802
vn 0.1922 -0.3544 -0.9151
vn 0.5177 0.7449 -0.4208
vn -0.0711 0.7626 -0.6430
vn -0.9148 -0.2157 -0.3414
vn -0.9145 -0.2165 -0.3417
vn -0.9146 -0.2164 -0.3416
vn -0.9711 0.2347 0.0438
vn -0.9711 0.2346 0.0444
vn -0.9636 0.2673 0.0022
vn -0.8723 -0.1399 -0.4685
vn -0.8758 -0.1236 -0.4666
vn -0.8717 -0.1412 -0.4693
vn -0.8417 -0.2345 -0.4864
vn 0.8157 0.3540 -0.4575
vn 0.8104 0.3532 -0.4675
vn 0.8113 0.3405 -0.4753
vt 0.150298 0.670099
vt 0.052013 0.387351
vt 0.721860 0.388920
vt 0.617825 0.203646
vt 0.959162 0.185135
vt 0.883629 0.589473
vt 0.619364 0.277704
vt 0.178415 0.213660
vt 0.201750 0.807560
vt 0.637762 0.746033
vt 0.983039 0.832992
vt 0.088020 0.071114
vt 0.666034 0.849048
vt 0.282959 0.417717
vt 0.627286 0.598455
vt 0.400358 0.388902
vt 0.396113 0.383028
vt 0.468232 0.392063
vt 0.790865 0.822980
vt 0.816013 0.824726
vt 0.739472 0.802874
vt 0.864890 0.833564
vt 0.575341 0.708616
vt 0.574631 0.406807
vt 0.339029 0.925827
vt 0.023221 0.964795
vt 0.080312 0.532254
vt 0.684462 0.778791
vt 0.926585 0.838841
vt 0.918442 0.910040
vt 0.022626 0.358616
vt 0.091450 0.550381
vt 0.295364 0.928784
vt 0.537730 0.702664
vt 0.533012 0.402681
vt 0.765877 0.717074
vt 0.889169 0.745470
vt 0.957417 0.796474
vt 0.090366 0.528345
vt 0.114785 0.297204
vt 0.564950 0.858892
vt 0.549780 0.849097
vt 0.076501 0.849948
vt 0.661224 0.453292
vt 0.384882 0.538459
vt 0.811656 0.716869
vt 0.845348 0.724124
vt 0.762174 0.190507
vt 0.924475 0.330140
vt 0.731274 0.467179
vt 0.731896 0.455209
vt 0.332210 0.144843
vt 0.215696 0.414544
vt 0.226590 0.958040
vt 0.817580 0.918592
vt 0.113847 0.071525
vt 0.647416 0.877821
vt 0.748579 0.465242
vt 0.885340 0.446172
vt 0.763574 0.266241
vt 0.848523 0.002640
vt 0.313530 0.639834
vt 0.223367 0.825171
vt 0.187115 0.196598
vt 0.144603 0.709736
vt 0.720494 0.337729
vt 0.832626 0.636444
vt 0.857023 0.024904
vt 0.531196 0.704436
vt 0.527783 0.404930
vt 0.851635 0.098668
vt 0.852814 0.052284
vt 0.263173 0.726389
vt 0.575204 0.295429
vt 0.805497 0.479175
vt 0.946214 0.444842
vt 0.052325 0.527664
vt 0.500847 0.417838
vt 0.838960 0.088449
vt 0.697903 0.902618
vt 0.918987 0.920417
vt 0.029474 0.360117
vt 0.405942 0.968642
vt 0.862281 0.081330
vt 0.576579 0.867729
vt 0.340666 0.992226
vt 0.058218 0.899952
vt 0.402056 0.051958
vt 0.430745 0.869230
vt 0.239775 0.361802
vt 0.688608 0.082952
vt 0.487270 0.109330
vt 0.584951 0.562273
vt 0.345060 0.130297
vt 0.211394 0.369107
vt 0.362616 0.072319
vt 0.438074 0.916239
vt 0.512841 0.564876
vt 0.700712 0.056395
vt 0.878308 0.182604
vt 0.717624 0.598947
vt 0.697620 0.142462
vt 0.268987 0.232948
vt 0.504010 0.701421
vt 0.866559 0.088976
vt 0.236903 0.859109
vt 0.006714 0.551983
vt 0.346123 0.319419
vt 0.484346 0.047154
vt 0.281892 0.684696
vt 0.373958 0.076476
vt 0.426594 0.909490
vt 0.331726 0.240778
vt 0.572224 0.705131
vt 0.568085 0.400425
vt 0.332754 0.129169
vt 0.374376 0.909965
vt 0.152344 0.462309
vt 0.459520 0.739053
vt 0.297845 0.304107
vt 0.083606 0.960267
vt 0.341422 0.916883
vt 0.030290 0.967655
vt 0.116569 0.543653
vt 0.090190 0.318196
vt 0.236333 0.952889
vt 0.804801 0.878917
vt 0.094214 0.780198
vt 0.427420 0.898064
vt 0.390836 0.080301
vt 0.561110 0.911804
vt 0.391345 0.068605
vt 0.424799 0.886787
vt 0.438015 0.177941
vt 0.452400 0.170856
vt 0.196739 0.601234
vt 0.552081 0.565583
vt 0.401549 0.062187
vt 0.433029 0.874633
vt 0.293983 0.654387
vt 0.182960 0.169006
vt 0.597812 0.400408
vt 0.597734 0.715302
vt 0.974182 0.806424
vt 0.985142 0.828525
vt 0.639295 0.743324
vt 0.688553 0.161899
vt 0.160914 0.349406
vt 0.150657 0.743614
vt 0.479014 0.143101
vt 0.419760 0.192553
vt 0.364066 0.790639
vt 0.250001 0.575163
vt 0.341472 0.021211
vt 0.941185 0.770356
vt 0.718930 0.729558
vt 0.865698 0.574173
vt 0.628446 0.226748
vt 0.949931 0.176008
vt 0.137683 0.649566
vt 0.927931 0.924911
vt 0.020982 0.368185
vt 0.694538 0.112550
vt 0.724723 0.292708
vt 0.782732 0.625401
vt 0.948047 0.583426
vt 0.627667 0.277870
vt 0.550000 0.548150
vt 0.698049 0.779877
vt 0.220735 0.790399
vt 0.398573 0.204748
vt 0.329521 0.024221
vt 0.259523 0.586478
vt 0.246797 0.722630
vt 0.266403 0.680169
vt 0.175922 0.149825
vt 0.170304 0.164953
vt 0.250254 0.711455
vt 0.139500 0.691486
vt 0.046569 0.391662
vt 0.757270 0.341100
vt 0.836508 0.623110
vt 0.732971 0.361127
vt 0.343257 0.058366
vt 0.586925 0.543451
vt 0.067439 0.903692
vt 0.249854 0.892429
vt 0.007870 0.590143
vt 0.538565 0.413669
vt 0.086924 0.753979
vt 0.433106 0.168884
vt 0.241582 0.593750
vt 0.683588 0.055903
vt 0.513164 0.545209
vt 0.623291 0.490479
vt 0.445042 0.502479
vt 0.805617 0.746167
vt 0.637939 0.172607
vt 0.890132 0.169570
vt 0.677648 0.584056
vt 0.391721 0.402816
vt 0.529222 0.423400
vt 0.256161 0.260240
vt 0.685142 0.124349
vt 0.095209 0.557447
vt 0.126764 0.319070
vt 0.302341 0.938525
vt 0.082078 0.130353
vt 0.079685 0.140181
vt 0.735893 0.195930
vt 0.945897 0.362775
vt 0.673293 0.086115
vt 0.102585 0.166680
vt 0.753422 0.515706
vt 0.902407 0.478802
vt 0.731563 0.272414
vt 0.636364 0.798179
vt 0.289828 0.374724
vt 0.815130 0.376011
vt 0.473377 0.412251
vt 0.779742 0.805043
vt 0.504388 0.518340
vt 0.670705 0.070451
vt 0.505127 0.535645
vt 0.190672 0.155523
vt 0.599845 0.422276
vt 0.550408 0.433471
vt 0.929445 0.936940
vt 0.405905 0.979442
vt 0.333825 0.329155
vt 0.466764 0.084689
vt 0.608416 0.869943
vt 0.854333 0.888850
vt 0.602310 0.809762
vt 0.194123 0.787490
vt 0.672264 0.149978
vt 0.156982 0.737549
vt 0.827243 0.064940
vt 0.281980 0.926277
vt 0.064267 0.563798
vt 0.305084 0.038093
vt 0.219286 0.360136
vt 0.335468 0.606766
vt 0.142161 0.165732
vt 0.471819 0.130333
vt 0.775535 0.288314
vt 0.774238 0.570135
vt 0.778090 0.583342
vt 0.920658 0.534824
vt 0.668870 0.264752
vt 0.231099 0.706342
vt 0.429899 0.149496
vt 0.832841 0.005817
vt 0.287781 0.627093
vt 0.072480 0.352798
vt 0.314710 0.067077
vt 0.606247 0.528221
vt 0.514403 0.524070
vt 0.552342 0.521591
vt 0.209717 0.152344
vt 0.585849 0.427866
vt 0.657375 0.118515
vt 0.660927 0.109938
vt 0.865804 0.360924
vt 0.676385 0.484162
vt 0.680728 0.487364
vt 0.374593 0.507044
vt 0.293819 0.028818
vt 0.384872 0.179078
vt 0.099569 0.595602
vt 0.968929 0.931147
vt 0.774819 0.352755
vt 0.654431 0.137097
vt 0.833525 0.029614
vt 0.153332 0.345192
vt 0.145250 0.345189
vt 0.669183 0.160681
vt 0.153867 0.735533
vt 0.487919 0.507672
vt 0.785360 0.732450
vt 0.226921 0.713305
vt 0.668316 0.184829
vt 0.890648 0.121751
vt 0.713270 0.540298
vt 0.378128 0.437363
vt 0.311148 0.600984
vt 0.134571 0.193641
vt 0.180952 0.794765
vt 0.176709 0.773224
vt 0.215991 0.278043
vt 0.591674 0.914533
vt 0.365428 0.992959
vt 0.253442 0.659929
vt 0.180568 0.106695
vt 0.178518 0.140619
vt 0.487346 0.458925
vt 0.718770 0.759344
vt 0.503552 0.437505
vt 0.824351 0.098709
vt 0.089851 0.490991
vt 0.897420 0.893472
vt 0.599296 0.789536
vt 0.976316 0.935309
vt 0.978121 0.929736
vt 0.651451 0.075077
vt 0.628662 0.775878
vt 0.612134 0.773503
vt 0.968053 0.886549
vt 0.784117 0.359000
vt 0.790805 0.344249
vt 0.849211 0.561470
vt 0.590992 0.523123
vt 0.819444 0.024017
vt 0.250434 0.674912
vt 0.177216 0.090148
vt 0.177246 0.095215
vt 0.226808 0.690599
vt 0.208422 0.138189
vt 0.599788 0.434009
vt 0.567326 0.912974
vt 0.059551 0.885536
vt 0.291677 0.313835
vt 0.453632 0.035270
vt 0.339484 0.372452
vt 0.541851 0.335701
vt 0.825921 0.341216
vt 0.836456 0.519699
vt 0.964553 0.478895
vt 0.095863 0.484510
vt 0.969228 0.939569
vt 0.263050 0.025382
vt 0.400339 0.139037
vt 0.601250 0.892229
vt 0.893714 0.969609
vt 0.381912 0.993931
vt 0.083590 0.735107
vt 0.163275 0.411791
vt 0.583281 0.507354
vt 0.809074 0.287212
vt 0.766773 0.559464
vt 0.893671 0.513785
vt 0.689692 0.241384
vt 0.862761 0.523667
vt 0.690916 0.203303
vt 0.931297 0.115796
vt 0.910123 0.398360
vt 0.728447 0.528666
vt 0.637421 0.532866
vt 0.444848 0.456411
vt 0.856979 0.114933
vt 0.641114 0.527796
vt 0.394396 0.457687
vt 0.293097 0.035643
vt 0.181505 0.356081
vt 0.193587 0.673046
vt 0.179954 0.040623
vt 0.897887 0.959770
vt 0.386319 0.985025
vt 0.403325 0.123634
vt 0.081787 0.474854
vt 0.081550 0.478887
vt 0.883104 0.882981
vt 0.218602 0.654160
vt 0.195636 0.074559
vt 0.553225 0.455783
vt 0.560868 0.493799
vt 0.852611 0.406039
vt 0.628318 0.521775
vt 0.439314 0.461585
vt 0.189782 0.086821
vt 0.392986 0.105184
vt 0.175483 0.747136
vt 0.179670 0.295159
vt 0.600706 0.909481
vt 0.900733 0.976633
vt 0.641566 0.143435
vt 0.296229 0.088541
vt 0.602996 0.513487
vt 0.170230 0.686062
vt 0.186392 0.339782
vt 0.263993 0.614222
vt 0.151069 0.236244
vt 0.091174 0.353741
vt 0.122658 0.442101
vt 0.595866 0.968824
vt 0.581892 0.963421
vt 0.960112 0.977854
vt 0.248360 0.058292
vt 0.541548 0.501244
vt 0.086345 0.466783
vt 0.884524 0.867741
vt 0.974571 0.950810
vt 0.154695 0.357469
vt 0.140143 0.722833
vt 0.227861 0.134301
vt 0.600290 0.442831
vt 0.244155 0.074120
vt 0.917235 0.977561
vt 0.289778 0.960436
vt 0.072852 0.157389
vt 0.770864 0.047957
vt 0.632677 0.107966
vt 0.245779 0.958319
vt 0.788848 0.860640
vt 0.509958 0.464443
vt 0.800001 0.100621
vt 0.803024 0.068091
vt 0.276249 0.099291
vt 0.601900 0.499738
vt 0.230549 0.118359
vt 0.576297 0.489294
vt 0.271696 0.945729
vt 0.639266 0.056031
vt 0.508940 0.499845
vt 0.801007 0.024052
vt 0.601074 0.149658
vt 0.802894 0.045584
vt 0.125166 0.351325
vt 0.199222 0.368612
vt 0.364751 0.077403
vt 0.208362 0.024298
vt 0.269464 0.960535
vt 0.045337 0.166533
vt 0.264860 0.115878
vt 0.603022 0.478159
vt 0.566032 0.472351
vt 0.799579 0.013620
vt 0.267504 0.622992
vt 0.598607 0.152386
vt 0.080185 0.336109
vt 0.552751 0.480199
vt 0.780521 0.026447
vt 0.626876 0.127850
vt 0.614620 0.142852
vt 0.274193 0.962706
vt 0.061161 0.177953
vt 0.282228 0.601449
vt 0.073520 0.360493
vt 0.144485 0.220114
vt 0.517704 0.483793
vt 0.611773 0.080765
vt 0.784298 0.073025
vt 0.057999 0.181864
vt 0.501532 0.478018
vt 0.794243 0.087552
vt 0.610073 0.065045
vt 0.616287 0.100960
vt 0.786407 0.051505
vt 0.605433 0.074330
vt 0.808019 0.075860
vt 0.633454 0.069097
vt 0.261751 0.964237
vt 0.062381 0.196385
vt 0.813826 0.840462
vt 0.143352 0.237787
vt 0.100990 0.367426
vt 0.616191 0.158242
vt 0.105388 0.340820
vt 0.128968 0.209817
vt 0.073692 0.371608
vt 0.057288 0.224795
vt 0.862417 0.855365
vt 0.081558 0.444801
vt 0.080811 0.212527
vt 0.099798 0.238270
vt 0.081408 0.407595
vt 0.117053 0.248958
vt 0.104093 0.399062
vt 0.092682 0.217527
vt 0.072754 0.404541
vt 0.090998 0.239575
vt 0.088640 0.410842
vt 0.765062 0.631548
vt 0.963751 0.593270
vt 0.500221 0.156864
vt 0.153062 0.618753
vt 0.338131 0.415835
vt 0.580691 0.351976
vt 0.846938 0.469734
vt 0.303533 0.656406
vt 0.568702 0.838775
vt 0.600555 0.711655
vt 0.708388 0.080220
vt 0.860299 0.004467
vt 0.323049 0.651071
vt 0.113994 0.538798
vt 0.090309 0.312039
vt 0.366844 0.881958
vt 0.147912 0.484790
vt 0.053584 0.488947
vt 0.153610 0.293442
vt 0.154704 0.103599
vt 0.433093 0.596063
vt 0.365393 0.618467
vt 0.154654 0.147960
vt 0.059302 0.381198
vt 0.710139 0.341242
vt 0.822803 0.645269
vt 0.577593 0.260590
vt 0.753390 0.640954
vt 0.872589 0.597325
vt 0.611393 0.246516
vt 0.962924 0.201823
vt 0.961176 0.192230
vt 0.479011 0.381037
vt 0.840449 0.819800
vt 0.166246 0.422564
vt 0.074884 0.744206
vt 0.564791 0.957314
vt 0.366358 0.832318
vt 0.592546 0.574620
vt 0.357825 0.053491
vt 0.512291 0.143445
vt 0.274641 0.870760
vt 0.143172 0.618304
vt 0.933812 0.787824
vt 0.886676 0.193022
vt 0.666689 0.618293
vt 0.384137 0.371746
vt 0.081635 0.915176
vt 0.232508 0.804872
vt 0.532189 0.864910
vt 0.078689 0.850637
vt 0.371425 0.278667
vt 0.512712 0.065322
vt 0.876615 0.419101
vt 0.854916 0.683596
vt 0.796011 0.200631
vt 0.509602 0.233403
vt 0.952984 0.292480
vt 0.466256 0.179093
vt 0.190751 0.590570
vt 0.723325 0.105495
vt 0.297021 0.693355
vt 0.566394 0.825348
vt 0.696689 0.919123
vt 0.038172 0.349266
vt 0.706788 0.909101
vt 0.134808 0.962843
vt 0.416269 0.955014
vt 0.366104 0.864031
vt 0.227241 0.409660
vt 0.485085 0.552372
vt 0.867562 0.753157
vt 0.370026 0.901933
vt 0.152264 0.482113
vt 0.506757 0.870180
vt 0.082913 0.908888
vt 0.533064 0.687176
vt 0.077866 0.077892
vt 0.704932 0.856444
vt 0.282963 0.462117
vt 0.281840 0.735115
vt 0.722539 0.121956
vt 0.877281 0.058592
vt 0.546824 0.682296
vt 0.909661 0.806433
vt 0.585274 0.177928
vt 0.877575 0.228753
vt 0.688224 0.638069
vt 0.393063 0.348071
vt 0.541504 0.836914
vt 0.587190 0.689102
vt 0.704268 0.161696
vt 0.153560 0.768594
vt 0.870286 0.002875
vt 0.340220 0.666762
vt 0.341651 0.675976
vt 0.187672 0.870936
vt 0.663865 0.888846
vt 0.086159 0.056720
vt 0.388738 0.825360
vt 0.606890 0.578036
vt 0.316284 0.673951
vt 0.546785 0.831291
vt 0.601504 0.696006
vt 0.283303 0.744643
vt 0.719856 0.055426
vt 0.510847 0.586767
vt 0.365641 0.243569
vt 0.535977 0.083167
vt 0.304285 0.844314
vt 0.393322 0.793959
vt 0.690731 0.951555
vt 0.060200 0.345938
vt 0.665873 0.365621
vt 0.481445 0.174561
vt 0.175984 0.581992
vt 0.385483 0.782186
vt 0.237473 0.556773
vt 0.399031 0.767945
vt 0.187919 0.569490
vt 0.504747 0.685177
vt 0.878273 0.097432
vt 0.543910 0.804098
vt 0.311936 0.700630
vt 0.553622 0.581195
vt 0.200264 0.178247
vt 0.225673 0.159409
vt 0.243347 0.816040
vt 0.532931 0.596057
vt 0.013093 0.481174
vt 0.200277 0.941913
vt 0.089256 0.047770
vt 0.730819 0.159410
vt 0.163513 0.790526
vt 0.516843 0.889238
vt 0.878642 0.028697
vt 0.379746 0.638359
vt 0.228528 0.181758
vt 0.729868 0.142358
vt 0.953509 0.020282
vt 0.163086 0.775739
vt 0.348608 0.166208
vt 0.365518 0.853081
vt 0.217041 0.423828
vt 0.219727 0.423584
vt 0.323795 0.747629
vt 0.427381 0.565974
vt 0.452591 0.284170
vt 0.837683 0.744174
vt 0.790665 0.173145
vt 0.896211 0.297597
vt 0.688310 0.420885
vt 0.384126 0.292674
vt 0.374292 0.551172
vt 0.733774 0.074720
vt 0.654954 0.312137
vt 0.752405 0.421229
vt 0.906421 0.650322
vt 0.558950 0.257154
vt 0.798115 0.951083
vt 0.688273 0.958833
vt 0.659284 0.380844
vt 0.310036 0.915627
vt 0.172605 0.541163
vt 0.739666 0.895035
vt 0.118932 0.951602
vt 0.782693 0.449922
vt 0.947783 0.409832
vt 0.939841 0.702673
vt 0.517504 0.915182
vt 0.320936 0.707482
vt 0.522644 0.768418
vt 0.522414 0.915956
vt 0.087313 0.790998
vt 0.523408 0.957187
vt 0.427956 0.829776
vt 0.604028 0.595871
vt 0.747195 0.853959
vt 0.646289 0.938075
vt 0.298463 0.503915
vt 0.643687 0.367152
vt 0.839402 0.413356
vt 0.899098 0.070935
vt 0.321057 0.905811
vt 0.161880 0.577957
vt 0.348249 0.455514
vt 0.338587 0.461782
vt 0.848667 0.449581
vt 0.847130 0.445314
vt 0.806438 0.961360
vt 0.037357 0.063731
vt 0.733313 0.878749
vt 0.672566 0.958396
vt 0.584505 0.594425
vt 0.887935 0.002073
vt 0.190761 0.862173
vt 0.755815 0.899503
vt 0.484286 0.904976
vt 0.106902 0.930997
vt 0.648336 0.662547
vt 0.451674 0.326519
vt 0.825587 0.779208
vt 0.561316 0.174405
vt 0.726840 0.665147
vt 0.890391 0.096384
vt 0.507320 0.662397
vt 0.893718 0.023950
vt 0.752035 0.891305
vt 0.126489 0.943496
vt 0.656036 0.668046
vt 0.434891 0.318152
vt 0.508048 0.835876
vt 0.597941 0.668899
vt 0.901256 0.012860
vt 0.793802 0.152990
vt 0.197961 0.858418
vt 0.154155 0.793164
vt 0.191156 0.506833
vt 0.423758 0.775636
vt 0.212863 0.525641
vt 0.519841 0.608454
vt 0.542816 0.176165
vt 0.894014 0.260186
vt 0.700399 0.676077
vt 0.388464 0.309269
vt 0.038221 0.042188
vt 0.809921 0.953667
vt 0.696087 0.951332
vt 0.939947 0.047858
vt 0.755082 0.105104
vt 0.516400 0.825444
vt 0.602539 0.676025
vt 0.338126 0.232518
vt 0.340886 0.823597
vt 0.815186 0.966797
vt 0.050428 0.050787
vt 0.752886 0.141768
vt 0.285807 0.809153
vt 0.261078 0.149472
vt 0.491013 0.942677
vt 0.750600 0.934908
vt 0.486665 0.941374
vt 0.727611 0.914686
vt 0.139070 0.955637
vt 0.357943 0.891396
vt 0.151400 0.491131
vt 0.173508 0.520373
vt 0.916510 0.045854
vt 0.753001 0.916938
vt 0.333682 0.701919
vt 0.518555 0.779346
vt 0.559043 0.654095
vt 0.504280 0.603958
vt 0.945961 0.091883
vt 0.749079 0.062832
vt 0.566564 0.617032
vt 0.338030 0.757823
vt 0.169825 0.458470
vt 0.495258 0.724298
vt 0.020251 0.487526
vt 0.148164 0.040632
vt 0.492703 0.831151
vt 0.099096 0.802531
vt 0.751914 0.126546
vt 0.946224 0.026575
vt 0.347176 0.778334
vt 0.298530 0.130948
vt 0.160382 0.454618
vt 0.437792 0.781305
vt 0.941305 0.078668
vt 0.750217 0.077543
vt 0.852966 0.928744
vt 0.077226 0.829678
vt 0.732854 0.964387
vt 0.486604 0.967441
vt 0.459474 0.788295
vt 0.441741 0.830842
vt 0.604587 0.611808
vt 0.349610 0.741384
vt 0.343092 0.722190
vt 0.479669 0.768704
vt 0.582964 0.629093
vt 0.757597 0.154562
vt 0.169402 0.818111
vt 0.463745 0.583223
vt 0.038635 0.496493
vt 0.936983 0.088401
vt 0.502985 0.630665
vt 0.503193 0.641022
vt 0.754352 0.069765
vt 0.035839 0.483260
vt 0.472707 0.591183
vt 0.480582 0.821373
vt 0.468140 0.837194
vt 0.603977 0.636406
vt 0.559141 0.634559
vt 0.514864 0.641879
vt 0.945472 0.099123
vt 0.511639 0.619079
vt 0.380634 0.674619
vt 0.049037 0.034544
vt 0.829095 0.967132
vt 0.702136 0.959933
vt 0.569750 0.647140
vt 0.177855 0.845214
vt 0.025749 0.477109
vt 0.032996 0.478951
vt 0.473113 0.598412
vt 0.147167 0.020276
vt 0.864770 0.936637
vt 0.096518 0.854060
vt 0.390308 0.686716
vt 0.164376 0.854028
vt 0.926313 0.071966
vt 0.763766 0.079288
vt 0.503199 0.646618
vt 0.503569 0.654304
vt 0.916661 0.085541
vt 0.780134 0.156359
vt 0.186091 0.837559
vt 0.442712 0.650875
vt 0.919164 0.021540
vt 0.778347 0.145180
vt 0.924920 0.023172
vt 0.469166 0.675265
vt 0.475830 0.619141
vt 0.095579 0.886415
vt 0.084449 0.028522
vt 0.841090 0.968801
vt 0.157626 0.133159
vt 0.397021 0.650366
vt 0.429553 0.696109
vt 0.128802 0.871457
vt 0.450110 0.651735
vt 0.436388 0.698617
vt 0.130610 0.857376
vt 0.036849 0.480269
vt 0.134033 0.888184
vt 0.148245 0.883298
vt 0.442292 0.635561
s 1
usemtl tripo_mat_8b907388-ae6c-4b29-afd1-853b0a14a5cb
f 291/610/1 27/64/2 284/598/3
f 4/8/4 27/64/2 95/203/5
f 47/103/6 95/203/5 27/64/2
f 95/203/5 138/290/7 4/8/4
s 0
f 201/419/8 164/354/9 178/380/10
s 1
f 23/53/11 115/242/12 39/90/13
f 27/63/2 4/9/4 246/521/14
f 27/63/2 246/521/14 284/600/3
f 79/170/15 246/521/14 4/9/4
f 4/9/4 138/288/7 110/235/16
s 0
f 110/235/17 138/289/18 174/372/19
f 110/235/20 174/372/21 178/379/22
s 1
f 149/317/23 164/355/24 168/363/25
s 0
f 110/235/26 178/379/27 164/355/28
s 1
f 164/355/24 135/281/29 110/235/16
f 135/281/29 81/174/30 110/235/16
f 32/73/31 246/521/14 79/170/15
f 81/174/30 79/170/15 110/235/16
f 32/73/31 81/174/30 119/251/32
f 119/251/32 83/178/33 32/73/31
f 82/175/34 83/178/33 148/314/35
f 149/317/23 148/314/35 83/178/33
f 148/314/35 149/317/23 168/363/25
f 148/314/35 140/293/36 82/175/34
f 110/235/16 79/170/15 4/9/4
f 47/103/6 27/64/2 291/610/1
s 0
f 95/203/37 47/103/38 56/120/39
s 1
f 56/120/40 152/322/41 95/203/5
s 0
f 138/290/42 152/322/43 39/90/44
s 1
f 43/95/45 201/419/46 115/242/12
s 0
f 39/90/47 115/242/48 138/290/49
f 138/290/50 115/242/51 201/419/52
s 1
f 201/419/53 178/380/54 138/290/55
f 138/290/7 95/203/5 152/322/41
s 0
f 334/710/56 284/600/57 351/738/58
s 1
f 346/729/59 351/738/60 284/600/3
s 0
f 291/610/61 351/739/62 331/705/63
s 1
f 291/610/1 334/711/64 351/739/65
s 0
f 23/52/66 293/614/67 351/739/68
f 23/52/69 55/116/70 43/94/71
s 1
f 351/739/72 55/116/73 23/52/74
f 284/599/3 334/711/64 291/610/1
f 56/120/40 53/113/75 50/108/76
f 248/524/77 331/705/78 275/580/79
f 248/524/77 53/113/75 331/705/78
s 0
f 331/705/80 351/739/81 293/614/82
s 1
f 291/610/1 331/705/78 47/103/6
f 331/705/78 53/113/75 47/103/6
f 47/103/6 53/113/75 56/120/40
f 273/577/83 284/600/3 246/521/14
f 79/170/15 81/174/30 32/73/31
f 246/521/14 32/73/31 273/577/83
f 252/534/84 261/553/85 32/73/31
f 273/577/83 32/73/31 261/553/85
f 83/178/33 51/110/86 32/73/31
f 82/175/34 67/140/87 51/110/86
f 82/175/34 51/110/86 83/178/33
f 252/534/84 32/73/31 51/110/86
f 252/534/84 282/596/88 261/553/85
f 294/618/89 261/553/85 304/643/90
f 346/729/59 261/553/85 294/618/89
f 261/553/85 346/729/59 273/577/83
f 273/577/83 346/729/59 284/600/3
s 0
f 346/729/91 294/618/92 357/751/93
s 1
f 152/322/41 56/120/40 50/108/76
f 108/230/94 152/322/41 50/108/76
f 174/373/95 138/290/55 178/380/54
f 135/281/29 119/251/32 81/174/30
f 83/178/33 119/251/32 149/317/23
f 135/281/29 164/355/24 119/251/32
f 164/355/24 149/317/23 119/251/32
s 0
f 53/113/96 248/524/97 50/108/96
s 1
f 166/359/98 117/245/99 120/252/100
f 166/359/98 120/252/100 90/191/101
f 90/191/101 155/332/102 166/359/98
f 90/191/101 64/134/103 71/151/104
f 80/171/105 129/269/106 90/191/101
f 275/581/79 242/513/107 248/525/77
s 0
f 275/582/108 331/706/109 293/615/110
s 1
f 293/615/111 255/541/112 275/582/113
f 255/541/112 234/488/114 338/717/115
f 55/117/116 257/545/117 52/112/118
f 234/488/114 63/133/119 61/129/120
f 234/488/114 61/129/120 257/545/117
f 257/545/117 61/129/120 52/112/118
f 115/242/12 23/53/11 43/95/45
f 261/553/85 282/596/88 304/643/90
f 294/618/89 304/643/90 357/752/121
f 304/643/90 282/596/88 342/722/122
f 230/480/123 51/110/86 67/140/87
f 252/534/84 51/110/86 230/480/123
f 108/231/94 39/88/13 152/323/41
f 166/359/98 66/138/124 108/231/94
f 108/231/94 66/138/124 39/88/13
f 63/133/119 234/488/114 255/541/112
f 255/541/112 39/89/13 66/139/124
f 275/582/113 255/541/112 310/656/125
f 310/656/125 255/541/112 338/717/115
f 310/656/125 338/717/115 300/635/126
f 155/332/102 201/420/46 61/130/120
f 61/130/120 201/420/46 52/111/118
f 201/420/46 43/96/45 52/111/118
f 155/332/102 173/371/127 166/359/98
f 166/359/98 61/130/120 66/138/124
f 61/130/120 166/359/98 173/371/127
f 173/371/127 155/332/102 61/130/120
f 63/132/119 66/138/124 61/130/120
f 55/117/116 52/112/118 43/97/45
s 0
f 55/118/128 351/740/129 346/730/130
s 1
f 257/546/117 55/118/116 339/719/131
f 338/718/115 257/546/117 339/719/131
f 338/718/115 234/489/114 257/546/117
f 339/719/131 300/636/126 338/718/115
f 300/636/126 339/719/131 280/592/132
f 310/657/125 300/636/126 278/588/133
f 250/532/134 300/636/126 280/592/132
f 50/109/76 41/92/135 108/231/94
s 0
f 41/92/136 50/109/137 248/525/138
s 1
f 255/541/112 66/139/124 63/133/119
f 339/719/131 55/118/116 325/690/139
f 280/591/132 325/691/139 279/589/140
s 0
f 55/119/141 357/753/142 325/691/143
f 346/731/144 357/753/145 55/119/146
s 1
f 168/364/25 172/370/147 148/315/35
f 172/370/147 168/364/25 181/388/148
f 155/331/102 181/388/148 201/421/46
f 201/421/46 181/388/148 168/364/25
s 0
f 201/421/149 168/364/150 164/356/151
s 1
f 357/753/121 304/644/90 342/723/122
f 357/753/121 342/723/122 352/741/152
f 357/753/121 352/741/152 325/691/139
f 352/741/152 276/583/153 279/589/140
f 325/691/139 352/741/152 279/589/140
f 276/583/153 71/152/104 279/589/140
f 71/152/104 276/583/153 271/572/154
f 355/748/155 276/583/153 352/741/152
f 276/583/153 355/748/155 356/749/156
s 0
f 356/749/157 355/748/158 363/765/159
s 1
f 355/748/155 352/741/152 342/723/122
f 342/723/122 282/595/88 330/703/160
f 330/703/160 282/595/88 272/575/161
f 282/596/88 252/534/84 272/574/161
f 140/294/36 148/316/35 172/370/147
f 172/370/147 186/397/162 140/294/36
f 186/397/162 172/370/147 181/388/148
s 0
f 193/408/163 194/410/164 186/397/165
s 1
f 163/353/166 181/388/148 129/268/106
f 129/268/106 181/388/148 155/331/102
f 186/397/162 181/388/148 163/353/166
f 186/397/162 163/353/166 114/241/167
f 80/172/105 114/241/167 163/353/166
f 80/172/105 163/353/166 129/268/106
f 85/184/168 114/241/167 80/172/105
f 85/184/168 80/172/105 71/154/104
f 114/241/167 122/256/169 186/397/162
f 122/256/169 114/241/167 85/184/168
f 122/256/169 177/377/170 193/408/171
f 186/397/162 122/256/169 193/408/171
f 194/410/172 150/318/173 140/294/36
f 150/318/173 194/410/172 185/395/174
f 194/410/172 140/294/36 186/397/162
f 150/318/173 105/225/175 140/295/36
f 82/176/34 140/295/36 105/225/175
f 67/141/87 82/177/34 105/225/175
f 105/225/175 150/318/173 125/260/176
f 203/424/177 185/395/174 193/408/171
s 0
f 194/410/178 193/408/179 185/395/180
f 272/575/181 252/535/182 230/481/183
s 1
f 330/703/160 272/575/161 267/562/184
f 330/703/160 348/734/185 363/765/186
f 348/734/185 330/703/160 322/684/187
f 330/703/160 363/765/186 342/723/122
s 0
f 355/748/188 342/723/189 363/765/190
s 1
f 356/749/156 363/765/186 348/734/185
f 356/749/156 271/572/154 276/583/153
f 271/572/154 241/510/191 71/152/104
f 108/231/94 117/245/99 166/359/98
f 90/191/101 129/269/106 155/332/102
f 120/252/100 64/135/103 90/191/101
f 70/150/192 120/252/100 117/245/99
f 242/513/107 41/92/135 248/525/77
f 117/245/99 108/231/94 41/92/135
f 117/245/99 41/92/135 70/150/192
f 41/92/135 242/513/107 70/150/192
f 228/475/193 70/150/192 242/513/107
f 228/475/193 278/587/133 250/531/134
f 70/150/192 228/475/193 64/135/103
f 120/252/100 70/150/192 64/135/103
f 228/475/193 250/531/134 64/135/103
f 105/226/175 125/261/176 67/142/87
f 10/24/194 67/142/87 125/261/176
f 125/261/176 150/319/173 185/396/174
f 106/227/195 125/261/176 185/396/174
f 169/365/196 170/366/197 206/431/198
f 170/366/197 169/365/196 204/426/199
f 206/431/198 170/366/197 182/389/200
s 0
f 124/259/201 182/389/202 170/366/203
s 1
f 195/411/204 170/366/197 204/426/199
f 204/426/199 169/365/196 106/227/195
f 106/227/195 185/396/174 204/426/199
f 204/426/199 185/396/174 203/425/177
f 158/338/205 195/411/204 203/425/177
f 193/409/171 177/378/170 146/312/206
f 177/378/170 122/257/169 85/185/168
f 203/425/177 193/409/171 158/338/205
s 0
f 203/425/207 195/411/208 204/426/209
s 1
f 272/576/161 230/482/123 267/563/184
f 267/563/184 230/482/123 54/114/210
f 230/482/123 67/143/87 10/23/194
f 54/114/210 16/34/211 267/563/184
f 10/23/194 54/114/210 230/482/123
f 264/556/212 322/685/187 267/563/184
f 370/776/213 322/685/187 264/556/212
f 264/556/212 267/563/184 16/34/211
f 30/69/214 264/556/212 16/34/211
f 264/556/212 30/69/214 259/549/215
f 259/549/215 281/593/216 318/678/217
f 264/556/212 343/724/218 370/776/213
f 259/549/215 343/724/218 264/556/212
f 267/563/184 322/685/187 330/704/160
f 356/750/156 364/767/219 358/754/220
f 313/666/221 356/750/156 358/754/220
f 313/666/221 358/754/220 345/728/222
f 370/776/213 345/728/222 358/754/220
f 345/728/222 370/776/213 343/724/218
f 343/724/218 365/768/223 345/728/222
f 345/728/222 283/597/224 313/666/221
f 283/597/224 241/511/191 313/666/221
f 85/185/168 42/93/225 65/137/226
f 42/93/225 241/511/191 65/137/226
f 241/511/191 283/597/224 65/137/226
f 285/601/227 345/728/222 365/768/223
f 343/724/218 366/769/228 365/768/223
f 343/724/218 318/678/217 366/769/228
s 0
f 310/656/229 242/514/230 275/582/229
s 1
f 280/592/132 339/719/131 325/692/139
f 348/734/185 322/684/187 364/766/219
f 364/766/219 356/749/156 348/734/185
f 271/572/154 356/749/156 307/648/231
f 88/189/232 54/115/210 10/24/194
f 125/261/176 88/189/232 10/24/194
f 88/189/232 125/261/176 106/227/195
f 106/227/195 169/365/196 94/202/233
f 94/202/233 169/365/196 142/298/234
f 106/227/195 94/202/233 30/70/214
f 30/70/214 88/189/232 106/227/195
f 88/189/232 30/70/214 16/35/211
f 16/35/211 54/115/210 88/189/232
s 0
f 228/476/235 242/515/236 278/588/237
s 1
f 310/657/125 278/588/133 242/515/238
f 300/636/126 250/532/134 278/588/133
f 64/136/103 250/532/134 71/153/104
f 322/685/187 370/776/213 364/767/219
s 0
f 364/767/239 370/776/240 358/754/241
s 1
f 250/532/134 280/592/132 71/153/104
f 71/153/104 280/592/132 279/590/140
f 30/69/214 48/104/242 259/549/215
f 259/549/215 48/104/242 281/593/216
f 259/549/215 318/678/217 343/724/218
f 142/298/234 35/78/243 94/202/233
f 30/70/214 94/202/233 35/78/243
f 142/298/234 169/365/196 191/405/244
s 0
f 213/444/245 191/405/246 197/414/247
s 1
f 210/440/248 197/414/249 191/405/244
f 191/405/244 169/365/196 210/440/248
f 169/365/196 206/431/198 210/440/248
f 182/389/200 124/259/250 123/258/251
f 123/258/251 210/440/248 182/389/200
f 182/389/200 210/440/248 206/431/198
f 197/414/249 123/258/251 104/222/252
f 146/312/206 124/259/253 158/338/205
f 124/259/253 170/366/197 195/411/204
f 241/511/191 356/750/156 313/666/221
f 241/511/191 307/649/231 356/750/156
s 0
f 85/185/254 241/511/255 42/93/256
s 1
f 241/511/191 271/573/154 307/649/231
f 71/153/104 80/173/105 90/192/101
f 193/409/171 146/312/206 158/338/205
f 30/71/214 35/79/243 48/105/242
f 281/594/216 48/105/242 318/677/217
f 48/105/242 37/84/257 318/677/217
f 112/238/258 35/79/243 215/450/259
f 215/450/259 35/79/243 142/299/234
f 215/450/259 142/299/234 213/445/260
f 142/299/234 191/406/244 213/445/260
f 192/407/261 211/442/262 214/448/263
f 192/407/261 214/448/263 199/417/264
f 207/432/265 214/448/263 189/401/266
f 85/185/168 146/312/206 177/378/170
f 146/312/206 85/185/168 124/259/253
f 158/338/205 124/259/253 195/411/204
f 241/512/191 85/184/168 71/154/104
f 345/728/222 285/601/227 283/597/224
f 283/597/224 285/601/227 65/137/226
f 274/579/267 326/693/268 367/771/269
f 274/579/267 367/771/269 344/725/270
f 65/137/226 285/601/227 44/98/271
f 65/137/226 77/168/272 85/185/168
f 65/137/226 44/98/271 77/168/272
f 44/98/271 91/194/273 77/168/272
f 91/194/273 123/258/251 77/168/272
f 124/259/253 85/185/168 77/168/272
f 35/79/243 37/84/257 48/105/242
f 318/677/217 37/84/257 263/555/274
f 192/407/261 112/238/275 211/442/262
s 0
f 112/238/276 192/407/277 199/417/278
f 132/274/279 112/238/280 199/417/281
s 1
f 205/427/282 147/313/283 198/415/284
f 198/415/284 147/313/283 199/417/264
f 199/417/264 147/313/283 132/274/285
f 309/655/286 318/677/217 263/555/274
s 0
f 376/790/287 318/677/288 309/655/289
f 344/726/290 367/770/291 361/759/292
s 1
f 353/742/293 376/790/294 375/786/295
f 376/790/294 353/742/293 361/759/296
s 0
f 365/768/297 366/769/298 326/693/299
s 1
f 326/693/268 366/769/300 367/771/269
s 0
f 367/771/301 366/769/302 361/760/303
s 1
f 361/761/296 366/769/228 376/788/294
f 366/769/228 318/678/217 376/789/294
f 31/72/304 37/84/257 35/79/243
f 35/79/243 112/238/258 31/72/304
f 147/313/283 205/427/282 121/253/305
f 132/274/285 147/313/283 121/253/305
f 112/238/258 132/274/285 31/72/304
f 31/72/304 132/274/285 29/68/306
f 121/253/305 26/61/307 132/274/285
f 26/61/307 232/484/308 29/68/306
f 26/61/307 29/68/306 132/274/285
f 232/484/308 289/608/309 29/68/306
f 269/566/310 314/667/311 323/686/312
f 232/484/308 269/566/310 289/608/309
f 323/686/312 289/608/309 269/566/310
f 289/608/309 319/679/313 340/720/314
f 340/720/314 319/679/313 379/796/315
f 323/686/312 379/794/315 319/679/313
f 289/608/309 323/686/312 319/679/313
f 285/601/227 365/768/223 326/693/268
f 15/32/316 58/124/317 97/205/318
f 113/240/319 12/27/320 15/32/321
s 0
f 12/27/322 58/124/323 15/32/324
s 1
f 233/486/325 58/124/317 12/27/320
f 19/39/326 233/486/325 12/27/320
f 19/39/326 12/27/320 34/77/327
f 34/77/327 235/490/328 19/39/326
f 362/763/329 385/809/330 360/758/331
f 360/758/331 235/490/328 34/77/327
f 49/107/332 347/732/333 360/758/331
s 0
f 286/602/334 347/732/335 49/107/336
s 1
f 34/77/327 12/27/320 113/240/319
f 309/655/286 375/786/295 376/790/294
f 375/786/295 309/655/286 340/720/314
f 289/608/309 340/720/314 309/655/286
f 289/608/309 309/655/286 263/555/274
f 37/84/257 31/72/304 263/555/274
s 0
f 19/40/337 97/206/338 233/487/339
s 1
f 233/487/325 97/206/318 58/125/317
f 31/72/304 29/68/306 263/555/274
f 263/555/274 29/68/306 289/608/309
f 216/451/340 213/446/260 197/413/249
f 231/483/341 274/578/267 344/727/270
f 274/578/267 231/483/341 44/99/271
f 44/99/271 40/91/342 91/193/273
f 104/223/252 91/193/273 40/91/342
f 144/305/343 40/91/342 99/212/344
f 40/91/342 144/305/343 104/223/252
f 99/212/345 75/163/346 127/263/347
f 197/413/249 104/223/252 144/305/343
f 197/413/249 144/305/343 216/451/340
s 0
f 144/305/348 99/212/349 216/451/350
s 1
f 216/451/351 99/212/345 127/263/347
s 0
f 40/91/352 75/163/353 99/212/354
s 1
f 126/262/355 189/402/266 127/263/347
f 211/441/262 215/449/259 213/446/260
f 213/446/260 216/451/340 211/441/262
f 216/451/340 189/402/266 211/441/262
f 211/441/262 189/402/266 214/447/263
f 210/440/248 123/258/251 197/414/249
s 0
f 124/259/356 77/168/357 123/258/358
s 1
f 123/258/251 91/194/273 104/224/252
s 0
f 211/442/359 112/238/360 215/450/361
s 1
f 19/40/326 235/491/328 97/206/362
f 97/207/363 196/412/364 113/239/365
f 87/187/366 196/412/364 190/403/367
f 190/403/367 59/126/368 87/187/366
f 190/403/367 196/412/364 202/422/369
f 208/435/370 202/422/369 196/412/364
f 208/435/370 196/412/364 188/399/371
f 202/422/369 217/452/372 190/403/367
f 375/786/295 340/720/314 329/701/373
s 0
f 113/239/374 15/33/375 97/207/376
s 1
f 113/239/365 196/412/364 87/187/366
f 87/187/366 59/126/368 49/106/377
f 49/106/377 59/126/368 286/603/378
s 0
f 196/412/379 97/207/380 188/399/381
s 1
f 44/98/271 285/601/227 326/693/268
f 326/693/268 274/579/267 44/98/271
s 0
f 189/402/382 216/451/383 127/263/384
s 1
f 361/762/296 297/627/385 344/727/270
f 344/727/270 297/627/385 231/483/341
f 297/627/385 353/743/293 251/533/386
f 353/743/293 297/627/385 361/762/296
f 251/533/386 353/743/293 329/702/373
f 231/483/341 40/91/342 44/99/271
f 297/627/385 251/533/386 231/483/341
f 231/483/341 251/533/386 40/91/342
f 75/163/346 40/91/342 251/533/386
f 262/554/387 251/533/386 329/702/373
f 262/554/387 350/736/388 292/611/389
f 350/736/388 262/554/387 329/702/373
f 262/554/387 292/611/389 46/102/390
f 262/554/387 46/102/390 75/163/346
f 268/564/391 46/102/390 292/611/389
f 287/605/392 292/611/389 333/709/393
f 287/605/392 333/709/393 359/755/394
f 205/428/282 179/381/395 121/254/305
f 340/720/314 350/737/388 329/701/373
f 379/796/315 350/737/388 340/720/314
f 199/417/264 214/448/263 207/432/265
f 198/415/284 199/417/264 207/432/265
f 235/492/328 100/213/396 97/208/362
f 212/443/397 217/453/372 202/423/369
s 0
f 217/453/398 226/471/399 221/461/400
s 1
f 226/471/401 222/464/402 223/465/403
f 217/453/372 212/443/397 222/464/402
f 217/453/372 222/464/402 226/471/401
f 225/469/404 222/464/402 212/443/397
s 0
f 208/436/405 188/400/406 100/213/407
s 1
f 208/436/370 100/213/408 220/459/409
f 269/567/310 232/485/308 290/609/410
f 137/286/411 26/62/307 121/254/305
f 121/254/305 209/437/412 137/286/411
f 26/62/307 116/243/413 236/494/414
f 137/286/411 116/243/413 26/62/307
f 232/485/308 26/62/307 290/609/410
f 26/62/307 236/494/414 290/609/410
f 290/609/410 368/772/415 269/567/310
f 375/787/295 329/702/373 353/743/293
f 188/400/416 97/209/362 100/213/396
f 208/436/370 225/469/404 212/443/397
f 208/436/370 212/443/397 202/423/369
s 0
f 34/77/417 113/240/418 87/188/419
f 49/107/420 34/77/420 87/188/421
s 1
f 49/107/332 360/758/331 34/77/327
f 385/812/330 378/793/422 382/804/423
f 382/804/423 378/793/422 384/807/424
f 384/807/424 378/793/422 383/806/425
s 0
f 384/807/426 383/806/427 380/797/428
f 385/812/429 374/784/430 381/803/431
s 1
f 381/803/432 374/784/433 368/772/415
f 290/609/410 236/494/414 381/803/432
f 290/609/410 381/803/432 368/772/415
f 269/568/310 368/772/415 374/784/433
s 0
f 100/213/434 235/492/435 236/495/436
f 235/492/437 381/802/438 236/495/439
s 1
f 236/495/414 116/244/413 100/213/408
f 208/436/370 220/459/409 225/469/404
f 220/459/409 100/213/408 137/287/411
f 116/244/413 137/287/411 100/213/408
f 235/493/328 360/757/331 385/812/330
s 0
f 383/806/440 372/780/441 380/798/442
s 1
f 219/457/443 205/429/282 207/434/265
f 207/434/265 205/429/282 198/416/284
f 207/434/265 176/376/444 219/457/443
f 131/273/445 207/433/265 126/262/355
f 126/262/355 207/433/265 189/402/266
s 0
f 111/236/446 46/102/447 69/147/448
s 1
f 69/147/449 46/102/390 268/564/391
f 379/795/315 323/687/312 377/791/450
f 292/611/389 379/795/315 333/709/393
f 333/709/393 377/791/450 359/755/394
f 379/795/315 377/791/450 333/709/393
s 0
f 385/812/451 381/803/452 235/493/453
s 1
f 377/792/450 323/688/312 314/668/311
f 371/777/454 374/785/433 359/756/394
f 377/792/450 371/777/454 359/756/394
f 371/777/454 377/792/450 314/668/311
f 220/459/409 137/287/411 209/439/412
f 225/469/404 223/465/403 222/464/402
s 0
f 225/469/455 220/459/456 218/455/457
f 224/467/458 225/469/459 218/455/460
s 1
f 314/668/311 374/785/433 371/777/454
f 314/668/311 269/569/310 374/785/433
f 121/255/305 179/383/395 209/438/412
f 205/430/282 219/458/443 179/383/395
f 219/458/443 133/276/461 200/418/462
f 133/275/461 69/148/449 184/393/463
f 200/418/462 133/276/461 184/393/463
f 218/456/464 200/418/462 184/393/463
f 240/507/465 180/384/466 157/337/467
f 157/337/467 218/456/464 184/393/463
s 0
f 218/456/468 157/337/469 224/468/470
s 1
f 180/384/466 183/390/471 157/337/467
f 221/463/472 157/337/467 183/390/471
f 183/390/471 154/329/473 167/360/474
f 154/329/473 143/300/475 167/361/474
f 360/758/331 347/732/333 372/778/476
f 362/763/329 360/758/331 372/779/476
f 350/737/388 379/796/315 292/612/389
f 209/439/412 179/382/395 220/459/409
f 126/262/355 127/263/347 75/163/346
f 126/262/355 75/163/346 96/204/477
f 75/163/346 46/102/390 96/204/477
f 131/273/445 126/262/355 96/204/477
f 131/273/445 96/204/477 46/102/390
f 131/273/445 46/102/390 111/236/478
f 251/533/386 262/554/387 75/163/346
f 380/799/479 373/783/480 384/808/481
f 382/805/423 384/808/424 385/810/330
s 0
f 385/811/482 384/808/483 374/785/484
s 1
f 385/812/330 362/764/329 378/793/422
f 378/793/422 372/780/476 383/806/425
f 372/780/476 378/793/422 362/764/329
f 176/376/444 131/273/445 111/236/478
f 219/457/443 176/376/444 133/277/461
f 133/277/461 176/376/444 111/236/478
f 218/456/464 220/460/409 179/383/395
f 218/456/464 179/383/395 200/418/462
f 224/468/485 223/466/403 225/470/404
s 0
f 226/472/486 224/468/487 157/337/488
f 380/800/489 372/781/490 347/733/491
s 1
f 347/733/492 286/604/378 380/800/493
f 286/604/378 369/773/494 380/800/493
f 270/571/495 332/708/496 286/604/378
f 369/773/494 286/604/378 332/708/496
f 217/454/372 221/462/472 190/404/367
f 131/273/445 176/376/444 207/434/265
f 287/606/392 324/689/497 268/565/391
f 359/756/394 324/689/497 287/606/392
s 0
f 359/756/498 374/785/499 324/689/500
f 60/128/501 324/689/502 349/735/503
s 1
f 60/128/504 268/565/391 324/689/497
f 268/565/391 292/613/389 287/606/392
f 111/237/478 69/149/449 133/278/461
f 268/565/391 60/128/504 69/149/449
f 69/149/449 60/128/504 89/190/505
f 157/336/467 89/190/505 240/508/465
f 89/190/505 157/336/467 184/394/463
f 306/646/506 240/508/465 89/190/505
f 306/646/506 89/190/505 60/128/504
f 306/646/506 60/128/504 349/735/507
f 306/646/506 349/735/507 354/745/508
f 286/603/378 59/126/368 24/54/509
f 190/404/367 221/462/472 59/127/368
f 221/462/472 183/391/471 59/127/368
f 109/233/510 59/127/368 183/391/471
f 24/55/509 59/127/368 109/233/510
f 260/550/511 270/571/495 6/12/512
f 286/604/378 24/56/509 270/571/495
f 223/466/403 224/468/485 226/472/401
s 0
f 221/463/513 226/472/514 157/337/515
s 1
f 373/783/480 374/785/516 384/808/481
f 349/735/507 324/689/517 374/785/516
s 0
f 6/13/518 270/570/519 24/57/520
s 1
f 6/13/521 24/57/509 109/232/510
f 109/232/510 102/217/522 6/13/521
f 167/362/474 109/233/510 183/391/471
f 167/362/474 143/301/475 109/233/510
f 369/773/494 332/708/496 328/698/523
f 184/394/463 69/149/449 89/190/505
f 328/699/523 332/707/496 312/662/524
f 312/662/524 299/632/525 328/699/523
s 0
f 373/782/526 380/801/527 369/774/528
s 1
f 354/744/508 373/782/480 369/774/529
f 332/708/496 270/571/495 260/550/511
f 349/735/507 374/785/516 373/783/480
f 349/735/507 373/783/480 354/745/508
s 0
f 332/708/530 260/550/531 312/663/532
f 145/306/533 102/217/534 109/234/535
s 1
f 145/307/536 109/234/510 143/302/475
s 0
f 312/664/537 260/551/538 308/650/539
s 1
f 107/228/540 130/271/541 154/330/473
f 130/271/541 107/228/540 74/161/542
f 154/330/473 130/271/541 143/303/475
f 308/651/543 299/633/525 312/665/524
f 328/700/523 299/633/525 277/584/544
f 336/713/545 341/721/546 315/669/547
f 315/669/547 341/721/546 320/680/548
s 0
f 341/721/549 336/713/550 369/775/551
f 354/746/552 369/775/553 336/713/554
s 1
f 328/700/523 277/584/544 254/538/555
f 254/538/555 277/584/544 253/536/556
s 0
f 183/392/557 180/387/558 187/398/559
f 154/330/560 183/392/561 107/228/562
f 183/392/563 165/357/564 107/228/565
f 183/392/566 187/398/567 165/357/568
s 1
f 180/385/569 139/291/570 175/374/571
f 335/712/572 354/747/508 336/714/545
f 335/712/572 336/714/545 315/670/547
f 335/712/572 315/670/547 303/642/573
f 306/647/506 303/642/573 305/645/574
f 240/509/465 306/647/506 62/131/575
f 335/712/572 303/642/573 306/647/506
f 354/747/508 335/712/572 306/647/506
s 0
f 139/291/576 180/386/577 240/509/578
f 260/552/579 6/14/580 229/477/581
f 260/552/582 229/477/583 311/658/584
s 1
f 369/775/494 328/700/523 337/715/585
s 0
f 341/721/586 369/775/587 337/715/588
s 1
f 337/715/585 328/700/523 254/538/555
f 341/721/546 337/715/589 320/680/548
f 130/270/541 74/160/542 84/179/590
f 84/179/590 1/1/591 28/65/592
f 247/522/593 62/131/575 306/647/506
f 247/522/593 306/647/506 305/645/574
f 303/642/573 288/607/594 305/645/574
s 0
f 303/642/595 315/670/596 258/547/597
s 1
f 187/398/598 180/387/569 175/375/571
f 153/324/599 6/14/521 102/218/522
f 6/14/521 153/324/599 229/477/600
f 143/304/475 130/271/541 145/308/536
f 36/81/601 14/30/602 74/161/542
f 36/80/601 254/538/555 253/536/556
f 151/320/603 240/509/465 62/131/575
f 139/291/570 240/509/465 151/320/603
f 74/161/542 107/228/540 36/81/601
f 1/2/591 84/180/590 74/162/542
f 277/585/544 237/496/604 253/537/556
f 253/537/556 237/496/604 36/82/601
f 1/2/591 36/82/601 237/496/604
f 36/82/601 1/2/591 14/31/602
f 1/2/591 74/162/542 14/31/602
f 156/333/605 175/374/571 139/291/570
f 38/85/606 139/291/570 151/320/603
f 151/320/603 62/131/575 20/41/607
f 20/42/607 62/131/575 247/522/593
f 187/398/598 175/375/571 156/334/605
f 187/398/598 156/334/605 165/357/608
s 0
f 33/74/609 229/478/610 153/325/611
s 1
f 258/547/612 247/522/593 288/607/594
f 288/607/594 247/522/593 305/645/574
f 288/607/594 303/642/573 258/547/612
f 260/552/613 311/659/614 308/652/615
s 0
f 320/680/616 337/715/617 301/637/618
f 301/638/619 57/121/620 245/520/621
s 1
f 337/716/585 254/539/555 57/121/622
f 337/716/585 57/121/622 301/638/623
f 301/638/624 315/671/547 320/681/548
f 301/638/624 245/520/625 315/671/547
s 0
f 254/540/626 36/83/627 57/122/628
f 36/83/629 107/229/630 57/122/631
s 1
f 299/634/525 308/653/543 298/628/632
s 0
f 298/628/633 277/586/634 299/634/635
f 102/219/636 145/310/636 153/326/637
f 130/272/638 84/181/639 118/246/640
s 1
f 145/309/536 130/272/541 118/246/641
s 0
f 145/310/642 159/339/643 153/326/644
s 1
f 156/335/605 139/292/570 38/86/606
f 38/86/606 11/25/645 165/358/608
f 38/86/606 165/358/608 156/335/605
s 0
f 165/358/646 11/25/647 107/229/648
f 107/229/649 11/25/650 57/122/651
f 315/671/652 245/520/653 258/548/654
s 1
f 258/548/612 245/520/655 86/186/656
s 0
f 245/520/657 11/26/658 38/87/659
s 1
f 245/520/660 57/123/661 11/26/662
f 247/523/593 258/548/612 20/43/607
f 38/87/606 86/186/656 245/520/655
f 258/548/612 86/186/656 38/87/606
f 38/87/606 20/43/607 258/548/612
f 38/87/606 151/321/603 20/43/607
f 159/340/663 145/311/536 118/247/641
f 84/182/590 76/165/664 118/248/641
f 311/660/665 229/479/666 302/639/667
f 25/58/668 302/639/667 33/75/669
f 33/75/670 153/327/671 101/214/672
f 229/479/666 33/75/669 302/639/667
s 0
f 298/628/673 237/497/674 277/586/675
s 1
f 28/66/592 76/164/664 84/183/590
f 237/497/604 28/66/592 1/3/591
s 0
f 308/654/676 311/661/677 302/639/678
f 308/654/679 302/639/680 298/629/681
s 1
f 25/59/668 249/526/682 302/640/667
f 160/343/683 159/341/663 118/249/641
s 0
f 159/341/684 101/215/685 153/328/686
s 1
f 28/67/592 237/498/604 238/500/687
f 227/473/688 28/67/592 238/500/687
f 28/67/592 227/473/688 76/165/664
s 0
f 25/59/689 33/76/690 101/215/691
s 1
f 3/6/692 76/166/664 227/474/688
f 227/474/688 238/501/687 3/6/692
s 0
f 298/630/693 302/641/694 249/527/695
s 1
f 101/216/696 98/210/697 25/60/668
s 0
f 98/210/698 101/216/699 160/344/700
f 159/342/701 160/344/702 101/216/703
s 1
f 25/60/668 98/210/697 22/48/704
f 249/528/682 25/60/668 22/48/704
s 0
f 249/528/705 22/48/706 296/622/707
s 1
f 73/157/708 118/249/641 76/166/664
f 160/344/683 118/250/641 136/282/709
f 3/7/692 73/158/708 76/167/664
f 118/250/641 73/158/708 136/282/709
f 73/158/708 93/198/710 136/282/709
f 298/631/711 327/694/712 317/675/713
f 237/499/604 298/631/711 317/675/713
f 2/4/714 3/7/692 238/502/687
f 3/7/692 2/4/714 73/158/708
f 266/558/715 238/502/687 237/499/604
f 317/675/713 266/558/715 237/499/604
s 0
f 298/631/716 249/529/717 327/694/718
s 1
f 22/49/704 98/211/697 128/264/719
s 0
f 249/530/720 296/623/721 327/695/720
s 1
f 244/517/722 238/503/687 266/559/715
f 162/350/723 160/345/683 136/283/709
f 45/100/724 2/5/714 244/517/722
f 45/100/724 93/199/710 73/159/708
f 73/159/708 2/5/714 45/100/724
f 238/504/687 244/517/722 2/5/714
s 0
f 98/211/725 160/346/726 128/264/727
f 160/346/728 171/367/729 128/264/730
f 22/50/731 128/265/732 21/44/733
s 1
f 296/624/734 22/51/735 21/44/736
s 0
f 171/368/737 92/195/738 128/266/739
s 1
f 321/682/740 317/676/713 327/696/712
f 171/368/741 160/347/683 162/351/723
f 7/15/742 93/200/710 45/101/724
f 7/15/742 45/101/724 244/518/722
f 316/672/743 266/560/715 317/676/713
f 317/676/713 321/682/740 316/672/743
f 136/284/709 161/348/744 162/351/723
f 92/196/745 21/45/736 128/267/746
f 171/369/741 162/352/723 161/349/744
f 93/201/710 161/349/744 136/285/709
f 7/16/742 8/18/747 93/201/710
s 0
f 296/625/748 295/620/749 321/683/750
f 296/625/751 321/683/752 327/697/753
s 1
f 296/626/734 21/45/736 295/619/754
s 0
f 92/196/755 171/369/756 141/296/757
f 141/296/758 171/369/759 161/349/760
s 1
f 103/220/761 161/349/744 93/201/710
s 0
f 103/220/762 141/296/763 161/349/764
s 1
f 295/619/754 21/45/736 256/543/765
f 8/18/747 103/220/761 93/201/710
f 244/519/722 239/505/766 7/17/742
f 8/18/747 7/17/742 239/505/766
f 266/561/715 239/505/766 244/519/722
s 0
f 239/505/767 266/561/768 316/673/769
f 321/683/770 295/620/771 316/673/772
s 1
f 134/279/773 21/45/736 92/196/745
f 21/46/736 134/280/773 17/36/774
f 134/280/773 92/197/745 141/297/775
f 72/156/776 134/280/773 141/297/775
f 134/280/773 72/156/776 17/36/774
s 0
f 78/169/777 141/297/778 103/221/779
s 1
f 256/544/765 21/47/736 17/37/774
f 256/544/765 17/37/774 243/516/780
s 0
f 316/674/781 295/621/782 265/557/783
f 256/544/784 265/557/785 295/621/786
s 1
f 243/516/780 17/37/774 18/38/787
f 17/37/774 72/155/776 18/38/787
f 103/221/761 8/19/747 9/21/788
f 78/169/789 103/221/761 9/21/788
f 9/21/788 13/28/790 78/169/789
f 13/28/790 68/146/791 78/169/789
f 68/146/791 13/28/790 5/10/792
f 68/146/791 141/297/775 78/169/789
s 0
f 265/557/793 239/506/794 316/674/795
s 1
f 8/20/747 239/506/766 9/22/788
s 0
f 243/516/796 265/557/796 256/544/797
s 1
f 243/516/780 5/11/792 265/557/798
s 0
f 265/557/799 5/11/800 13/29/801
s 1
f 5/11/792 243/516/780 18/38/787
f 68/144/791 18/38/787 72/155/776
f 13/29/790 239/506/766 265/557/802
f 5/11/792 18/38/787 68/145/791
f 9/22/788 239/506/766 13/29/790
f 72/156/776 141/297/775 68/146/791
f 293/616/111 23/53/11 39/90/13
f 293/617/111 39/90/13 255/542/112
s 0
f 179/383/803 219/458/804 200/418/805
