# Blender 3.4.1
# www.blender.org
mtllib Poison1.mtl
o tripo_node_180b6fff-7038-498b-a50b-92fc36045247
v 0.000118 0.494131 0.139488
v 0.000156 -0.485512 0.199989
v 0.000377 0.447117 -0.129402
v 0.000521 0.310982 0.154310
v 0.000592 0.297706 0.165648
v 0.000134 0.281616 -0.169084
v 0.000534 0.260386 0.162128
v 0.042193 0.480975 -0.046481
v 0.000165 0.316851 0.116037
v 0.000094 0.500097 0.089139
v 0.000067 -0.423231 0.250623
v 0.000762 0.316696 -0.115857
v 0.000197 0.494558 0.022600
v 0.000248 0.261531 -0.163153
v 0.001675 0.092350 0.208248
v 0.000481 0.440266 -0.132872
v 0.001567 0.245638 -0.146458
v -0.000775 0.092907 -0.207675
v -0.000440 -0.485650 -0.200062
v -0.000005 0.328772 0.117592
v 0.000076 0.318727 -0.141121
v 0.000466 -0.387160 0.259473
v -0.000210 0.199417 0.145841
v 0.000446 0.498809 0.134714
v -0.000419 0.302716 -0.163203
v 0.000630 -0.386867 -0.259487
v 0.001928 0.043853 0.244386
v 0.000492 0.012143 0.254953
v 0.000899 0.044837 -0.243931
v 0.000229 0.245575 0.146685
v 0.000423 -0.423060 -0.250677
v 0.001477 -0.496055 -0.184029
v 0.000296 0.111163 -0.192483
v 0.000212 -0.495977 0.183918
v 0.000475 0.165736 0.157451
v 0.000060 0.111188 0.192368
v 0.034177 -0.499823 -0.165025
v -0.076265 -0.499946 0.147454
v 0.000235 0.281163 0.169060
v 0.046425 -0.498852 0.168961
v 0.063450 0.093097 -0.197241
v 0.014562 0.316874 0.113825
v -0.000131 0.165511 -0.157640
v 0.000415 0.469993 -0.086302
v 0.000295 -0.021011 0.259506
v 0.001092 0.197488 -0.146396
v 0.046686 0.193127 0.140980
v 0.043419 0.491972 0.132614
v 0.044598 0.221651 0.138316
v 0.056044 0.488686 -0.000215
v 0.039784 0.497298 0.129351
v 0.054817 0.318691 -0.129382
v 0.061551 -0.485891 0.189757
v 0.046596 0.206038 -0.138751
v 0.049104 0.261281 -0.154916
v 0.045093 0.245653 0.139274
v 0.036815 0.316574 -0.109514
v 0.050535 0.262995 0.155607
v 0.050597 0.160154 0.153065
v 0.036931 0.316392 0.109670
v 0.051645 0.281124 0.160549
v 0.048877 0.161497 -0.152253
v 0.040720 0.445233 -0.126130
v 0.080172 -0.387338 -0.246595
v 0.079252 0.012306 0.242382
v 0.058344 0.111142 0.182533
v 0.078049 -0.422816 -0.238425
v 0.050850 0.300850 -0.155539
v 0.059255 0.110985 -0.182382
v 0.051278 0.281763 -0.160637
v 0.054661 0.304205 0.152296
v 0.064204 0.092710 0.197146
v 0.076479 0.044653 -0.231714
v 0.060765 -0.485308 -0.190531
v 0.056875 -0.496493 -0.173180
v 0.056523 0.497043 0.069489
v 0.067784 0.316695 0.093545
v 0.065051 0.318654 0.126193
v 0.067235 0.316797 -0.093757
v 0.075898 0.042934 0.232586
v 0.126545 -0.500001 0.107482
v 0.080225 -0.387429 0.246675
v 0.088108 0.192816 -0.121481
v 0.047896 0.468435 -0.084081
v 0.045781 0.245966 -0.139072
v 0.087581 0.244560 -0.116397
v 0.079554 0.012333 -0.242244
v 0.098598 0.281299 -0.136686
v 0.098594 0.148932 -0.134882
v 0.098632 0.281766 0.136620
v 0.096927 0.297772 0.133532
v 0.091093 0.310486 -0.124736
v 0.081674 0.487937 0.112903
v 0.111736 0.111018 0.154362
v 0.079214 0.492753 0.110354
v 0.098096 0.095708 -0.177731
v 0.085294 0.245735 0.119246
v 0.086827 0.208685 0.117870
v 0.096722 0.262665 0.131983
v 0.106738 0.460821 -0.076976
v 0.077881 0.447955 -0.109074
v 0.098010 0.261663 -0.129624
v 0.080510 -0.020699 -0.246464
v 0.124539 0.470636 -0.041697
v 0.111660 0.483805 0.082326
v 0.121072 0.093582 0.167107
v 0.107806 0.489192 0.080178
v 0.080242 -0.020058 0.246651
v 0.165575 -0.499960 -0.026432
v 0.118273 -0.484765 -0.161760
v 0.093953 0.316722 -0.067663
v 0.109303 0.454439 -0.079765
v 0.098098 0.148087 0.135843
v 0.121472 0.092234 -0.168079
v 0.077393 -0.422809 0.238774
v 0.097632 0.297927 -0.132632
v 0.117102 -0.485948 0.161012
v 0.091350 0.310573 0.124532
v 0.118972 0.245951 0.085958
v 0.094310 0.316699 0.066684
v 0.118780 0.203763 -0.086480
v 0.107478 -0.496352 -0.147234
v 0.124889 0.310733 0.090730
v 0.147498 -0.422914 -0.203155
v 0.152791 -0.387301 0.209909
v 0.118202 0.245905 -0.087049
v 0.109568 0.317009 -0.037219
v 0.130532 0.259778 -0.095557
v 0.150394 0.012712 0.206691
v 0.136140 0.146899 0.098991
v 0.136863 0.146521 -0.098412
v 0.111008 0.111193 -0.154671
v 0.130748 0.477111 0.043571
v 0.110139 0.316573 0.035484
v 0.114212 -0.496472 0.142099
v 0.130459 0.260417 0.096019
v 0.129119 0.463324 -0.042955
v 0.147594 -0.423201 0.203060
v 0.142998 0.045653 0.197076
v 0.131950 0.478367 0.001442
v 0.136159 0.281313 0.099505
v 0.119831 0.203632 0.085506
v 0.124936 0.310824 -0.090138
v 0.115653 0.316613 -0.001458
v 0.118021 0.334148 -0.000328
v 0.125831 0.484414 0.041764
v 0.125012 0.384302 -0.000399
v 0.152755 -0.020289 -0.209886
v 0.133372 0.297942 0.097171
v 0.154259 0.111122 0.112091
v 0.124181 0.318498 -0.070346
v 0.152609 -0.021331 0.210016
v 0.126313 0.318653 0.064487
v 0.135451 0.288223 -0.100823
v 0.138845 0.203664 0.045827
v 0.141272 0.192819 -0.046375
v 0.127791 0.403947 -0.001096
v 0.145559 -0.499219 -0.095480
v 0.143280 0.044378 -0.197640
v 0.147001 0.310624 0.047411
v 0.131210 0.429493 -0.000098
v 0.141272 0.318531 0.001276
v 0.138476 0.222834 -0.044617
v 0.135110 0.458484 -0.000751
v 0.152543 0.162048 -0.048081
v 0.150502 0.012356 -0.206849
v 0.139718 0.245466 -0.045157
v 0.161324 -0.485823 -0.117264
v 0.154598 0.111398 -0.111231
v 0.151479 0.162984 0.049991
v 0.136689 0.470844 -0.001219
v 0.141533 0.318534 0.001205
v 0.157184 0.297660 -0.050647
v 0.147177 0.310533 -0.047047
v 0.145168 0.219820 0.000112
v 0.139524 0.246022 0.045237
v 0.155666 0.262239 0.049478
v 0.146642 0.245861 -0.000120
v 0.160858 0.281397 0.050955
v 0.150606 0.181728 -0.002553
v 0.154483 0.310862 0.000424
v 0.152583 -0.386927 -0.210065
v 0.167500 0.092709 -0.121460
v 0.197079 0.046254 -0.142604
v 0.160572 0.281805 -0.052030
v 0.161353 -0.485659 0.117122
v 0.157332 0.266804 -0.050839
v 0.167070 0.093539 0.121508
v 0.157134 0.166780 -0.000356
v 0.163768 0.262434 0.002137
v 0.202976 -0.422851 0.147685
v 0.173694 -0.496283 -0.056525
v 0.175060 0.137209 0.000657
v 0.157126 0.297741 0.050292
v 0.182749 0.110703 -0.058608
v 0.209679 -0.387405 -0.153031
v 0.173708 -0.496372 0.056468
v 0.165424 0.297655 -0.000418
v 0.169008 0.281522 -0.000642
v 0.209672 -0.020196 -0.152964
v 0.182593 0.110896 0.059204
v 0.197276 0.045239 0.143028
v 0.184052 -0.495842 -0.000702
v 0.192353 0.111021 -0.000201
v 0.190508 -0.485220 0.061568
v 0.203187 -0.422824 -0.147420
v 0.196752 0.093629 -0.063851
v 0.190277 -0.485153 -0.062370
v 0.197284 0.093226 0.063692
v 0.209634 -0.019485 0.153139
v 0.197852 -0.487386 -0.000251
v 0.207826 0.092871 -0.000267
v 0.232679 0.042993 0.077670
v 0.206555 0.013040 0.150489
v 0.219112 -0.462331 0.000154
v 0.209658 -0.387658 0.152996
v 0.206706 0.012628 -0.150431
v 0.231687 0.044849 -0.076520
v 0.242822 0.046445 -0.000753
v 0.238476 -0.422943 -0.077903
v 0.238609 -0.422825 0.077946
v 0.246562 -0.386761 -0.081000
v 0.246643 -0.020580 -0.080831
v 0.246590 -0.387265 0.080720
v 0.242429 0.012350 0.079375
v 0.250495 -0.423457 0.000126
v 0.242499 0.012069 -0.079235
v 0.246734 -0.019674 0.080549
v 0.255370 0.010861 -0.000196
v 0.259338 -0.389592 -0.000543
v 0.259433 -0.018720 -0.000256
v 0.001293 0.318518 0.141306
v -0.052876 0.480399 -0.044094
v -0.059059 0.111184 0.182329
v 0.000520 -0.020336 -0.259470
v -0.051174 0.281449 0.160720
v -0.034706 0.316429 -0.110008
v -0.047194 0.310714 -0.146753
v -0.045878 0.300371 0.156772
v 0.000640 0.012417 -0.254999
v -0.080373 -0.020323 0.246566
v -0.043917 0.492301 0.132440
v -0.040526 0.444356 -0.126387
v -0.063991 0.094342 0.196143
v -0.077105 0.045539 -0.230942
v -0.056279 0.488844 0.000112
v -0.055953 -0.496509 0.173557
v -0.058685 0.110576 -0.182905
v -0.051581 0.262398 -0.154932
v -0.055915 -0.496488 -0.173462
v -0.050901 0.262343 0.155139
v -0.035987 0.316206 0.109739
v -0.048744 0.163094 0.151771
v -0.047824 0.468485 -0.084055
v -0.045385 0.246032 -0.139322
v -0.050648 0.297872 -0.157002
v -0.049874 0.160885 -0.152602
v -0.050535 0.498014 0.074099
v -0.079242 0.012294 0.242304
v -0.062128 -0.485206 -0.190281
v -0.080353 -0.387332 0.246545
v -0.058798 0.318596 -0.128014
v -0.046218 0.192603 0.141315
v -0.042595 0.318524 0.133028
v -0.045264 0.203284 -0.139016
v -0.063239 -0.484670 0.190255
v -0.108191 -0.499981 -0.126154
v -0.052417 0.496180 0.124493
v -0.076117 0.044259 0.231943
v -0.051525 0.281670 -0.160542
v -0.044939 0.221556 0.138140
v -0.045740 0.245744 0.138984
v -0.077350 -0.423014 0.238624
v -0.064488 0.092921 -0.197030
v -0.067829 0.316403 0.093461
v -0.095378 0.262418 -0.132749
v -0.106263 0.460946 -0.077246
v -0.085531 0.222488 -0.117756
v -0.080535 -0.020537 -0.246521
v -0.111258 0.111104 -0.154822
v -0.090553 0.310562 -0.125000
v -0.096723 0.297415 0.133898
v -0.097061 0.297818 -0.133418
v -0.079031 0.012422 -0.242331
v -0.111697 0.111230 0.154183
v -0.067370 0.316539 -0.094029
v -0.085314 0.204642 0.120135
v -0.095991 0.262155 0.132089
v -0.081660 0.487874 0.112950
v -0.082895 0.318682 0.113490
v -0.097879 0.149170 -0.135622
v -0.090463 0.310810 0.124582
v -0.086732 0.246093 -0.118285
v -0.093193 0.316327 0.068141
v -0.116333 -0.485748 0.161856
v -0.086078 0.245830 0.118739
v -0.099075 0.281788 -0.136320
v -0.118384 -0.484877 -0.161396
v -0.088069 0.193407 -0.121302
v -0.078541 0.449015 -0.108639
v -0.098339 0.281536 0.137042
v -0.077449 -0.422904 -0.238522
v -0.121096 0.093118 -0.167384
v -0.111397 0.483487 0.082338
v -0.113696 0.318610 -0.083492
v -0.093629 0.316862 -0.067653
v -0.096825 0.148832 0.136011
v -0.125038 0.484686 0.042746
v -0.120830 0.093320 0.167268
v -0.143469 0.044244 0.197711
v -0.109592 0.454303 -0.079638
v -0.107728 -0.496254 -0.147296
v -0.150577 0.012617 -0.206624
v -0.152877 -0.387325 -0.209716
v -0.147415 -0.423304 -0.202847
v -0.107560 -0.496351 0.147119
v -0.127714 0.318666 0.058693
v -0.133481 0.266679 0.097293
v -0.109254 0.317003 0.038188
v -0.119104 0.245353 0.086016
v -0.109782 0.317115 -0.037061
v -0.124631 0.470449 -0.041444
v -0.107442 0.488972 0.080777
v -0.121274 0.192730 -0.088377
v -0.133251 0.297878 0.097202
v -0.136304 0.281884 0.099456
v -0.129026 0.463134 -0.042659
v -0.147418 -0.423078 0.203069
v -0.117694 0.222286 -0.085643
v -0.136246 0.272899 -0.099436
v -0.152638 -0.021392 0.210018
v -0.154237 0.110988 -0.112168
v -0.132802 0.154975 -0.096667
v -0.118396 0.202309 0.087821
v -0.152958 -0.021241 -0.209631
v -0.124901 0.310650 -0.090474
v -0.125205 0.310491 0.090154
v -0.130791 0.477186 0.042932
v -0.115978 0.316740 0.000597
v -0.120671 0.353018 0.000125
v -0.118693 0.245144 -0.086550
v -0.150756 0.012501 0.206482
v -0.125897 0.390643 -0.000015
v -0.132361 0.477165 -0.002264
v -0.140198 0.197897 0.045842
v -0.138688 0.201655 -0.048030
v -0.139570 0.246267 -0.045360
v -0.147608 -0.499969 0.074459
v -0.143732 0.044617 -0.197000
v -0.080371 -0.386792 -0.246613
v -0.141895 0.318592 -0.024033
v -0.134376 0.454001 -0.000553
v -0.154615 0.261298 -0.049860
v -0.133333 0.298188 -0.096770
v -0.154509 0.261018 0.050042
v -0.136546 0.470554 -0.001599
v -0.139304 0.245947 0.045478
v -0.146913 0.310596 0.046726
v -0.136218 0.149221 0.097075
v -0.147407 -0.496293 0.107878
v -0.167419 0.093998 -0.120431
v -0.156939 0.297796 0.050347
v -0.147458 -0.496403 -0.107197
v -0.154464 0.111233 0.111326
v -0.138916 -0.282318 -0.216873
v -0.139862 -0.283295 -0.216400
v -0.139877 -0.282349 -0.216385
v -0.155221 0.302747 -0.049011
v -0.166143 0.094178 0.121454
v -0.146443 0.245643 -0.001459
v -0.145265 0.216766 0.000001
v -0.152756 -0.386600 0.209935
v -0.160554 0.281933 -0.051452
v -0.147503 0.192172 -0.000189
v -0.154381 0.310883 -0.000360
v -0.161112 -0.485923 0.117016
v -0.152383 0.160736 -0.049540
v -0.203097 -0.423123 0.147196
v -0.163779 0.263281 -0.000429
v -0.173319 -0.496481 -0.056843
v -0.197227 0.044382 0.143817
v -0.158692 0.162978 -0.000626
v -0.153731 0.158591 0.050344
v -0.160753 0.281737 0.051599
v -0.164346 -0.499991 -0.022668
v -0.165501 0.297150 -0.001064
v -0.182690 0.110900 -0.058849
v -0.161073 -0.485922 -0.116890
v -0.206429 0.012568 -0.150793
v -0.202695 -0.423284 -0.147633
v -0.168890 0.281424 -0.000847
v -0.209455 -0.021636 -0.153267
v -0.197639 0.045145 -0.142694
v -0.182956 0.110726 0.058817
v -0.196174 0.094008 0.065177
v -0.173784 -0.496502 0.055320
v -0.189464 -0.485976 -0.061571
v -0.194615 -0.490389 0.000811
v -0.192359 0.110830 0.000066
v -0.206432 0.012514 0.150833
v -0.190472 -0.485281 0.061255
v -0.197214 0.093287 -0.063873
v -0.209608 -0.387320 -0.153109
v -0.207755 0.092864 0.000567
v -0.209849 -0.020643 0.152778
v -0.209709 -0.387062 0.153042
v -0.238428 -0.423154 0.077749
v -0.231511 0.045881 0.075056
v -0.232744 0.043492 -0.075286
v -0.229247 -0.449297 -0.000262
v -0.227148 0.068749 -0.000562
v -0.246387 -0.019930 0.080962
v -0.246565 -0.020115 -0.080515
v -0.242370 0.012243 -0.079263
v -0.238359 -0.423007 -0.078203
v -0.242282 0.012496 0.079213
v -0.246618 -0.387513 0.080190
v -0.246513 -0.387322 -0.080631
v -0.250587 -0.423262 0.000193
v -0.246212 0.039520 -0.000800
v -0.259266 -0.020068 0.000009
v -0.255445 0.010203 -0.000274
v -0.259201 -0.387382 -0.000282
vn -0.4556 -0.7851 -0.4197
vn -0.7326 -0.4067 -0.5458
vn -0.3965 -0.7313 -0.5550
vn -0.5310 -0.4353 -0.7270
vn -0.5848 -0.1108 -0.8035
vn -0.7619 -0.1594 -0.6278
vn -0.2682 -0.4326 -0.8608
vn -0.2031 -0.7412 -0.6398
vn -0.1355 -0.9761 -0.1698
vn -0.4146 -0.8551 -0.3112
vn -0.2266 -0.9137 -0.3374
vn -0.1025 -0.9317 -0.3484
vn -0.3096 -0.1124 -0.9442
vn -0.5892 0.0548 -0.8061
vn -0.3099 0.0672 -0.9484
vn -0.4727 0.0011 -0.8812
vn -0.4500 -0.0002 -0.8930
vn -0.4521 0.0010 -0.8920
vn -0.4504 -0.0000 -0.8928
vn -0.4576 -0.0001 -0.8891
vn -0.8426 -0.4525 -0.2919
vn -0.4780 -0.8647 -0.1545
vn -0.6239 -0.7603 -0.1811
vn -0.1239 -0.9905 -0.0599
vn -0.1286 -0.9896 -0.0650
vn -0.1283 -0.9896 -0.0648
vn -0.1205 -0.9906 -0.0654
vn -0.1160 -0.9907 -0.0712
vn -0.1204 -0.9906 -0.0654
vn -0.0039 -0.4297 -0.9030
vn 0.0049 -0.7332 -0.6800
vn 0.2809 -0.4291 -0.8584
vn 0.0210 -0.9711 -0.2376
vn 0.0080 -0.9164 -0.4002
vn 0.0018 -0.1137 -0.9935
vn 0.2194 -0.7389 -0.6370
vn 0.1732 -0.8559 -0.4873
vn 0.5298 -0.4257 -0.7335
vn 0.3026 -0.1167 -0.9460
vn 0.5781 -0.1254 -0.8063
vn 0.0024 -1.0000 0.0048
vn -0.0034 -0.9999 -0.0130
vn 0.0045 -0.9999 -0.0120
vn -0.0030 -1.0000 -0.0095
vn 0.3059 0.0665 -0.9497
vn -0.6879 -0.6333 -0.3547
vn -0.6878 -0.6331 -0.3550
vn -0.6879 -0.6328 -0.3554
vn -0.7709 -0.6370 0.0031
vn -0.7559 -0.6546 0.0069
vn -0.7340 -0.6364 0.2372
vn -0.9635 -0.2252 0.1448
vn -0.9613 -0.2316 0.1496
vn -0.9612 -0.2319 0.1497
vn -0.6345 -0.7468 0.1994
vn -0.5731 -0.8192 -0.0201
vn -0.2996 -0.9541 -0.0030
vn -0.3457 -0.9305 0.1209
vn -0.1756 -0.9796 0.0975
vn -0.9550 -0.1582 -0.2508
vn -0.9613 -0.2301 -0.1516
vn -0.9612 -0.2302 -0.1520
vn -0.9612 -0.2303 -0.1521
vn -0.9959 -0.0842 0.0342
vn -0.9622 -0.2259 0.1519
vn -0.9503 -0.0437 0.3081
vn 0.0002 -1.0000 0.0001
vn -0.0000 -1.0000 0.0001
vn 0.0004 -1.0000 0.0001
vn -0.0102 -0.9999 0.0037
vn 0.0046 -0.9997 0.0247
vn 0.1119 -0.9001 0.4210
vn 0.2150 -0.7588 0.6148
vn -0.0052 -0.7315 0.6819
vn -0.0119 -0.9238 0.3827
vn -0.1155 -0.9263 0.3587
vn -0.2167 -0.7311 0.6469
vn -0.3550 -0.7722 0.5270
vn -0.2369 -0.9233 0.3022
vn -0.0964 -0.9782 0.1841
vn -0.7024 0.0564 -0.7096
vn -0.8911 0.0002 -0.4538
vn -0.8912 0.0009 -0.4536
vn -0.8912 0.0007 -0.4535
vn -0.9615 0.0943 -0.2580
vn -0.9290 0.2319 -0.2883
vn -0.8836 0.1326 -0.4491
vn -0.8867 0.1124 -0.4484
vn -0.8875 0.1230 -0.4441
vn -0.8867 0.1118 -0.4487
vn -0.5336 0.1818 -0.8260
vn 0.0007 0.0709 -0.9975
vn -0.0021 0.2342 -0.9722
vn -0.3006 0.2255 -0.9267
vn 0.5363 0.0795 -0.8403
vn 0.2944 0.2281 -0.9281
vn -0.9977 0.0674 0.0018
vn -0.9762 0.2168 0.0047
vn -0.7837 0.2355 0.5748
vn -0.9509 0.0668 0.3022
vn -0.8123 0.0458 0.5815
vn -0.5834 0.0618 0.8098
vn -0.8082 -0.1215 0.5762
vn -0.5817 -0.1193 0.8046
vn -0.9243 0.2318 0.3031
vn -0.3035 0.0696 0.9503
vn -0.3072 -0.1194 0.9441
vn 0.4134 -0.7370 -0.5347
vn 0.0860 -0.9843 -0.1541
vn 0.0784 -0.9833 -0.1643
vn 0.0804 -0.9850 -0.1525
vn 0.0767 -0.9891 -0.1254
vn 0.0622 -0.9903 -0.1240
vn 0.0791 -0.9911 -0.1075
vn 0.5363 -0.7539 -0.3794
vn 0.3200 -0.8430 -0.4324
vn 0.3913 -0.8860 -0.2487
vn 0.7299 -0.4313 -0.5303
vn 0.6423 -0.7381 -0.2063
vn 0.8582 -0.4306 -0.2795
vn 0.3834 -0.9139 -0.1331
vn 0.7627 -0.1596 -0.6267
vn 0.9549 -0.1537 -0.2542
vn 0.8910 -0.0077 -0.4539
vn 0.8951 0.0067 -0.4459
vn 0.8931 0.0030 -0.4498
vn 0.2486 -0.9679 -0.0371
vn 0.3920 -0.9199 0.0115
vn 0.7763 -0.6304 -0.0029
vn 0.6521 -0.7578 0.0221
vn 0.3363 -0.9325 0.1315
vn 0.6051 -0.7831 0.1436
vn 0.2486 -0.9513 0.1825
vn 0.8747 -0.4054 0.2657
vn 0.8967 -0.4427 -0.0037
vn 0.9546 -0.1498 0.2574
vn 0.9918 -0.1280 -0.0049
vn 0.7545 -0.1639 0.6355
vn 0.9627 0.0903 -0.2549
vn 0.9975 0.0712 -0.0009
vn 0.2336 -0.9187 0.3186
vn 0.4701 -0.7945 0.3844
vn 0.6879 -0.6315 0.3579
vn 0.6953 -0.6263 0.3527
vn 0.6881 -0.6316 0.3572
vn -0.0003 -1.0000 -0.0004
vn 0.3868 -0.7432 0.5460
vn 0.7303 -0.4355 0.5264
vn 0.5291 -0.4364 0.7278
vn 0.2779 -0.4310 0.8585
vn 0.5788 -0.1244 0.8059
vn 0.3080 -0.1134 0.9446
vn 0.8899 0.0098 0.4561
vn 0.8892 0.0095 0.4574
vn 0.8916 0.0022 0.4529
vn 0.7053 -0.0256 0.7084
vn 0.7100 -0.0057 -0.7042
vn 0.7078 0.0046 -0.7064
vn 0.7121 0.0001 -0.7021
vn 0.7074 0.0001 -0.7068
vn 0.8890 -0.0043 -0.4579
vn 0.8911 -0.0041 -0.4539
vn 0.8931 0.0003 -0.4499
vn 0.8338 0.0900 0.5447
vn 0.9504 0.0676 0.3035
vn 0.9257 0.2290 0.3011
vn 0.9748 0.2230 -0.0050
vn 0.8019 0.1243 -0.5844
vn 0.7987 0.2227 -0.5589
vn 0.5296 0.1812 -0.8287
vn -0.6495 -0.6429 0.4059
vn -0.5476 -0.7435 0.3838
vn -0.8683 -0.2284 0.4404
vn -0.8682 -0.2282 0.4406
vn -0.8683 -0.2283 0.4404
vn -0.7732 -0.2334 0.5896
vn -0.5117 -0.3633 0.7786
vn -0.2985 -0.9290 0.2188
vn -0.5484 -0.6324 0.5470
vn -0.5485 -0.6324 0.5470
vn 0.0057 -0.4303 0.9027
vn 0.0040 -0.1196 0.9928
vn -0.2797 -0.4318 0.8575
vn 0.0008 0.0646 0.9979
vn 0.2715 0.0484 0.9612
vn 0.5365 0.0779 0.8403
vn 0.5811 0.2382 0.7782
vn 0.7062 0.0001 0.7080
vn -0.0497 0.1935 0.9798
vn -0.8395 0.3300 -0.4316
vn -0.8394 0.3302 -0.4317
vn -0.8398 0.3299 -0.4313
vn -0.9051 0.3429 -0.2513
vn -0.8514 0.3118 -0.4218
vn -0.4536 0.5240 -0.7209
vn -0.6406 0.6111 -0.4650
vn -0.4530 0.6387 -0.6220
vn -0.6136 0.6214 -0.4872
vn -0.7167 0.6431 -0.2697
vn -0.7754 0.6315 0.0001
vn -0.7753 0.6316 0.0080
vn -0.9078 0.4193 0.0050
vn -0.7167 0.5964 -0.3615
vn -0.7879 0.5977 -0.1482
vn -0.7875 0.5983 -0.1478
vn -0.7870 0.5991 -0.1472
vn -0.8411 0.5408 -0.0003
vn -0.2749 0.4734 -0.8369
vn -0.7003 0.1094 -0.7054
vn -0.6633 0.3446 -0.6643
vn -0.6633 0.3448 -0.6642
vn -0.6649 0.3406 -0.6647
vn -0.6651 0.3405 -0.6646
vn -0.6650 0.3406 -0.6647
vn -0.6280 0.5846 -0.5137
vn -0.4749 0.6050 -0.6392
vn -0.5238 0.4534 -0.7212
vn -0.2420 0.4460 -0.8617
vn -0.5802 0.2496 -0.7753
vn -0.4187 0.3177 -0.8507
vn -0.4195 0.3154 -0.8512
vn -0.4186 0.3180 -0.8507
vn -0.1072 0.3342 -0.9364
vn -0.1047 0.3279 -0.9389
vn -0.1054 0.3276 -0.9389
vn -0.3105 0.0242 -0.9503
vn -0.5910 0.0408 -0.8056
vn -0.7868 0.2572 -0.5611
vn -0.7343 0.4305 -0.5248
vn -0.9425 0.1576 -0.2949
vn -0.8035 0.0559 -0.5927
vn -0.8657 0.4260 -0.2629
vn -0.7643 0.5976 -0.2423
vn -0.8023 0.5970 0.0009
vn -0.8918 0.4523 -0.0014
vn 0.0226 0.4424 -0.8965
vn -0.1216 0.3109 -0.9426
vn -0.2474 0.5951 -0.7646
vn -0.0061 0.5975 -0.8019
vn -0.0583 0.6230 -0.7801
vn -0.2482 0.6249 -0.7402
vn -0.6543 0.6712 -0.3483
vn -0.6495 0.6765 -0.3471
vn -0.6502 0.6746 -0.3494
vn -0.0540 0.4083 -0.9112
vn -0.5478 -0.4444 -0.7088
vn -0.2845 -0.3859 -0.8776
vn -0.7570 -0.3828 -0.5295
vn -0.5088 -0.4897 -0.7080
vn -0.2841 -0.4913 -0.8233
vn 0.0027 -0.5040 -0.8637
vn 0.0051 -0.3806 -0.9247
vn 0.0525 0.1259 -0.9907
vn -0.8607 -0.4276 -0.2764
vn -0.8229 -0.5086 -0.2533
vn -0.9999 0.0154 0.0011
vn -0.9132 -0.4069 0.0238
vn -0.8583 -0.4104 0.3081
vn -0.9385 0.1832 0.2928
vn -0.9725 0.2315 -0.0232
vn 0.3211 0.4143 -0.8516
vn 0.1279 0.6011 -0.7888
vn 0.1311 0.5952 -0.7928
vn 0.1277 0.6010 -0.7890
vn 0.1257 0.5996 -0.7904
vn 0.1253 0.5995 -0.7905
vn 0.1262 0.5997 -0.7902
vn 0.2407 0.5946 -0.7671
vn 0.2879 0.6384 -0.7139
vn 0.2647 0.4390 -0.8586
vn 0.5235 0.4556 -0.7200
vn 0.7247 0.4600 -0.5131
vn 0.8019 0.1913 -0.5660
vn 0.5563 0.2347 -0.7971
vn 0.6463 0.6031 -0.4675
vn 0.7454 0.6060 -0.2780
vn 0.8179 0.4205 -0.3928
vn 0.4701 0.5108 -0.7197
vn 0.4905 0.6189 -0.6134
vn 0.3845 0.5255 -0.7590
vn 0.6635 0.3435 -0.6647
vn 0.6659 0.3365 -0.6659
vn 0.6629 0.3385 -0.6678
vn 0.7085 0.4844 -0.5132
vn 0.9273 0.2331 -0.2928
vn 0.2980 0.1589 -0.9412
vn 0.3003 -0.4080 -0.8622
vn 0.2665 -0.5005 -0.8237
vn 0.4621 -0.5663 -0.6825
vn 0.7050 -0.4995 -0.5035
vn 0.5378 -0.3916 -0.7466
vn 0.8801 -0.3921 -0.2677
vn 0.7206 -0.4541 -0.5239
vn 0.9073 -0.4200 0.0181
vn 0.8737 -0.4861 0.0175
vn 0.9996 0.0291 0.0019
vn 0.9534 0.0081 -0.3017
vn 0.9612 0.2756 0.0133
vn 0.9202 0.2108 -0.3298
vn 0.9317 0.3464 -0.1091
vn 0.9313 0.3452 -0.1167
vn 0.9303 0.3476 -0.1170
vn 0.8844 0.4667 0.0065
vn 0.8506 0.5233 0.0512
vn 0.8759 0.4661 -0.1245
vn 0.6139 0.6424 -0.4587
vn 0.8422 0.4669 -0.2696
vn 0.7305 0.6373 -0.2453
vn 0.7789 0.6271 0.0023
vn 0.7857 0.6167 -0.0480
vn 0.8276 0.5432 -0.1412
vn 0.8437 0.5224 -0.1238
vn 0.8437 0.5224 -0.1237
vn 0.5145 0.5794 -0.6321
vn 0.3497 0.7166 -0.6034
vn 0.3503 0.7160 -0.6038
vn 0.3475 0.7146 -0.6071
vn 0.3525 0.6589 -0.6645
vn 0.3523 0.6589 -0.6646
vn 0.3530 0.6589 -0.6642
vn 0.8838 0.4678 0.0032
vn 0.7390 0.6253 0.2507
vn 0.7250 0.6472 0.2357
vn 0.8300 0.5399 0.1403
vn 0.8286 0.5417 0.1415
vn 0.8295 0.5404 0.1409
vn 0.8895 0.4020 0.2172
vn 0.8399 0.5284 0.1239
vn 0.6132 0.6240 0.4844
vn 0.6594 0.6664 0.3481
vn 0.6595 0.6661 0.3483
vn 0.6595 0.6662 0.3483
vn 0.7788 0.2353 0.5814
vn 0.7126 0.4799 0.5118
vn 0.8470 0.4522 0.2795
vn 0.9437 0.1502 0.2947
vn 0.8044 0.1922 0.5622
vn 0.7138 0.4381 0.5463
vn 0.7540 0.5184 0.4035
vn 0.7538 0.5171 0.4054
vn 0.7540 0.5178 0.4041
vn 0.6289 0.5858 0.5111
vn 0.7474 0.5275 0.4040
vn 0.8796 -0.3913 0.2705
vn 0.8040 -0.2938 0.5169
vn -0.8505 0.4275 0.3065
vn -0.7092 0.4757 0.5203
vn -0.5725 0.2217 0.7893
vn -0.7858 0.6034 0.1357
vn -0.7860 0.6030 0.1361
vn -0.7854 0.6041 0.1353
vn -0.6985 0.6036 0.3844
vn -0.6168 0.6341 0.4663
vn -0.4495 0.6394 0.6238
vn -0.5176 0.4687 0.7158
vn -0.2691 0.4601 0.8461
vn -0.2968 0.2198 0.9293
vn -0.0333 0.4970 0.8671
vn -0.2447 0.6326 0.7348
vn 0.0165 0.6213 0.7834
vn -0.6645 0.6575 0.3551
vn -0.6646 0.6523 0.3643
vn -0.6648 0.6574 0.3547
vn -0.6394 0.5983 0.4830
vn -0.4690 0.6037 0.6447
vn -0.7251 0.4569 0.5152
vn -0.7879 0.5798 0.2073
vn -0.8504 0.4503 0.2720
vn -0.7944 0.1763 0.5812
vn -0.5951 0.2100 0.7757
vn -0.7568 -0.3567 0.5477
vn -0.5438 -0.5145 0.6630
vn -0.4114 0.0219 0.9112
vn -0.4167 0.0273 0.9086
vn -0.4162 0.0274 0.9089
vn -0.4449 -0.0487 0.8943
vn -0.4443 -0.0476 0.8946
vn -0.4477 -0.0412 0.8932
vn -0.3288 0.2739 0.9038
vn -0.4465 0.1160 0.8873
vn -0.5189 0.4453 0.7297
vn -0.2769 0.4437 0.8523
vn -0.1470 0.3402 0.9288
vn -0.7613 0.6385 0.1127
vn -0.2493 0.5989 0.7610
vn 0.0184 0.5002 0.8657
vn -0.1253 0.3119 0.9418
vn -0.1191 0.3157 0.9414
vn -0.1205 0.3145 0.9416
vn 0.1321 0.3249 0.9365
vn 0.1383 0.3180 0.9379
vn 0.1397 0.3250 0.9353
vn 0.0061 0.5962 0.8028
vn 0.0270 0.0160 0.9995
vn 0.0513 -0.4245 0.9040
vn -0.2148 -0.5227 0.8250
vn -0.1665 -0.0066 0.9860
vn -0.1182 0.1114 0.9867
vn -0.1185 0.1127 0.9865
vn -0.1108 0.1187 0.9867
vn 0.1532 0.1318 0.9794
vn 0.1457 0.3003 0.9427
vn 0.1402 0.3063 0.9416
vn 0.1402 0.3067 0.9414
vn 0.4427 0.1376 0.8861
vn 0.4425 0.1304 0.8872
vn 0.4425 0.1376 0.8861
vn 0.5238 0.4774 0.7055
vn 0.3175 0.3279 0.8897
vn 0.2813 0.4519 0.8466
vn 0.2566 0.6238 0.7383
vn 0.4624 0.6349 0.6190
vn 0.6301 0.2093 0.7478
vn 0.5186 0.4418 0.7320
vn 0.2583 0.5952 0.7609
vn 0.2702 0.4397 0.8566
vn 0.2834 0.3506 0.8926
vn 0.4689 0.6031 0.6453
vn 0.1079 0.1088 0.9882
vn 0.2490 -0.0003 0.9685
vn 0.4588 0.1174 0.8807
vn 0.4620 0.1108 0.8800
vn 0.4619 0.1108 0.8800
vn 0.7169 -0.0104 0.6971
vn 0.4431 -0.0146 0.8963
vn 0.4432 -0.0157 0.8963
vn 0.4471 -0.0214 0.8942
vn 0.4160 -0.0382 0.9086
vn 0.2325 -0.4521 0.8611
vn -0.7900 -0.2358 -0.5659
vn -0.5945 -0.0079 -0.8040
vn -0.9568 -0.0044 -0.2908
vn -0.7283 0.4142 -0.5459
vn -0.7997 0.5446 -0.2527
vn -0.2900 -0.0069 -0.9570
vn -0.5483 0.4283 -0.7183
vn -0.5306 0.7602 -0.3749
vn -0.3728 0.7757 -0.5091
vn -0.1904 0.7686 -0.6107
vn -0.2781 0.4421 -0.8528
vn 0.0177 0.5635 -0.8259
vn -0.1800 0.8956 -0.4068
vn 0.0466 0.8059 -0.5902
vn 0.0204 0.9955 0.0925
vn 0.0143 0.9962 0.0861
vn 0.0212 0.9954 0.0934
vn -0.6423 0.7656 0.0349
vn -0.9121 0.4100 -0.0053
vn -0.5222 0.8475 -0.0958
vn 0.0467 0.9988 0.0161
vn 0.0467 0.9988 0.0163
vn 0.0516 0.9984 0.0235
vn 0.0575 0.9982 0.0182
vn 0.0571 0.9982 0.0177
vn 0.0560 0.9983 0.0168
vn -0.2980 0.9208 -0.2517
vn 0.0687 0.9974 0.0224
vn 0.0575 0.9981 0.0242
vn 0.0577 0.9980 0.0240
vn -0.4641 0.5958 -0.6555
vn -0.4203 0.7934 -0.4402
vn -0.9988 -0.0475 -0.0125
vn -0.8633 0.4342 0.2574
vn -0.9499 -0.0385 0.3102
vn -0.8743 -0.4847 -0.0245
vn -0.8110 -0.5237 0.2607
vn -0.3313 0.5710 -0.7512
vn -0.3098 0.0839 -0.9471
vn -0.0065 0.1799 -0.9837
vn -0.2701 0.4026 -0.8746
vn 0.0030 0.6992 -0.7149
vn -0.1089 0.9127 -0.3938
vn -0.9916 -0.1285 0.0132
vn -0.9402 -0.1306 -0.3147
vn -0.9940 -0.1082 0.0138
vn -0.9374 -0.1265 0.3245
vn -0.9914 -0.1305 -0.0110
vn -0.9282 0.2655 0.2608
vn -0.6876 -0.1412 -0.7122
vn -0.6875 -0.1414 -0.7123
vn -0.7828 0.3120 -0.5384
vn -0.8814 -0.1331 -0.4532
vn -0.9165 0.2079 -0.3418
vn -0.9913 -0.1312 0.0044
vn -0.9803 0.1927 -0.0433
vn -0.4478 0.7519 -0.4838
vn -0.5287 0.7891 -0.3126
vn -0.0845 0.9778 -0.1920
vn -0.5873 0.7948 -0.1528
vn 0.0035 0.9257 -0.3781
vn -0.0900 0.9651 -0.2459
vn 0.0739 0.9628 -0.2598
vn -0.0136 0.9795 -0.2008
vn 0.0191 -0.0069 -0.9998
vn 0.0387 0.9972 0.0636
vn 0.0370 0.9968 0.0713
vn 0.0384 0.9972 0.0635
vn 0.5145 0.0390 -0.8566
vn 0.2926 -0.0225 -0.9560
vn 0.2622 0.5243 -0.8102
vn 0.2149 0.8356 -0.5057
vn 0.3784 0.7824 -0.4947
vn -0.0434 0.9964 0.0724
vn -0.0375 0.9969 0.0691
vn -0.0785 0.9967 0.0203
vn 0.3241 0.9291 -0.1783
vn 0.5381 0.4450 -0.7158
vn -0.1260 0.7153 -0.6874
vn 0.0018 0.9963 0.0859
vn -0.0150 0.9965 0.0819
vn -0.0256 0.9962 0.0833
vn -0.0309 0.9967 0.0747
vn -0.0099 0.9954 0.0953
vn -0.0097 0.9956 0.0937
vn -0.0131 0.9964 0.0843
vn 0.8145 0.2021 -0.5439
vn 0.8534 0.4406 -0.2785
vn 0.9499 -0.0096 -0.3125
vn 0.6092 0.7689 -0.1941
vn 0.9055 0.4244 0.0037
vn 0.5417 0.7270 -0.4219
vn 0.6989 -0.2603 -0.6661
vn 0.6987 -0.2597 -0.6666
vn 0.6988 -0.2598 -0.6665
vn 0.5804 0.6986 -0.4184
vn -0.0837 0.9942 0.0671
vn -0.0922 0.9917 0.0898
vn -0.0851 0.9931 0.0802
vn 0.9367 0.1967 -0.2898
vn 0.3959 0.0907 0.9138
vn -0.0495 0.9984 0.0263
vn -0.0475 0.9986 0.0232
vn -0.0609 0.9979 0.0240
vn 0.9923 -0.1241 -0.0036
vn 0.9916 -0.1294 -0.0066
vn 0.9912 -0.1324 -0.0013
vn 0.9915 -0.1301 0.0080
vn 0.9902 -0.1393 -0.0066
vn 0.8972 0.2270 -0.3788
vn 0.4701 0.5693 -0.6744
vn 0.4168 0.7588 -0.5005
vn 0.7504 0.2204 -0.6232
vn 0.1145 0.9082 -0.4025
vn 0.5310 0.7874 -0.3130
vn 0.1361 0.6091 -0.7813
vn 0.4555 -0.1424 -0.8788
vn 0.4567 -0.1423 -0.8782
vn 0.4557 -0.1424 -0.8787
vn 0.7037 -0.1227 -0.6998
vn 0.1692 -0.1338 -0.9764
vn 0.1693 -0.1345 -0.9763
vn 0.1693 -0.1346 -0.9763
vn 0.1786 -0.1251 -0.9759
vn 0.4206 -0.1299 -0.8979
vn 0.4241 -0.1229 -0.8973
vn 0.4205 -0.1298 -0.8980
vn 0.8654 -0.4207 -0.2722
vn 0.9998 -0.0187 -0.0051
vn 0.8225 -0.4966 0.2771
vn 0.8559 0.4260 0.2933
vn 0.9509 -0.0221 0.3086
vn 0.6556 0.7550 -0.0083
vn 0.6047 0.7757 0.1805
vn 0.4769 -0.7259 0.4957
vn 0.4940 -0.7169 0.4920
vn 0.4941 -0.7173 0.4912
vn 0.7608 -0.4310 0.4852
vn 0.8017 -0.0504 0.5957
vn 0.7278 0.4348 0.5303
vn 0.4921 -0.7108 0.5027
vn 0.4945 -0.7132 0.4967
vn 0.4950 -0.7133 0.4962
vn 0.5018 -0.3913 0.7714
vn 0.2992 -0.5578 0.7741
vn 0.2981 -0.6885 0.6611
vn 0.0018 -0.5158 0.8567
vn -0.0270 -0.3166 0.9482
vn 0.1567 -0.2788 0.9475
vn 0.1530 -0.2722 0.9500
vn 0.1451 -0.2739 0.9507
vn 0.3674 0.1062 0.9240
vn 0.5896 -0.0263 0.8073
vn 0.2748 0.5888 0.7601
vn 0.5410 0.4130 0.7326
vn 0.1703 0.2019 0.9645
vn 0.0814 0.4864 0.8700
vn 0.0528 0.7283 0.6833
vn 0.2238 0.8533 0.4709
vn 0.1276 0.8494 0.5120
vn 0.0153 0.9985 -0.0522
vn 0.0158 0.9984 -0.0538
vn 0.0164 0.9974 -0.0703
vn -0.0218 0.9951 -0.0963
vn -0.0202 0.9960 -0.0866
vn -0.0257 0.9961 -0.0849
vn 0.4535 0.4023 0.7953
vn 0.3301 0.2910 0.8980
vn 0.3084 0.2049 0.9289
vn -0.0391 0.9975 -0.0596
vn 0.4009 0.7733 0.4912
vn 0.5105 0.7716 0.3795
vn 0.2457 0.9637 0.1044
vn -0.0694 0.9959 -0.0575
vn -0.0658 0.9955 -0.0678
vn -0.0687 0.9954 -0.0661
vn 0.6254 0.2815 0.7277
vn 0.6936 0.6793 0.2398
vn 0.3801 0.9082 0.1753
vn 0.4553 0.7278 -0.5128
vn -0.0816 0.9964 0.0225
vn -0.0772 0.9967 0.0252
vn -0.0733 0.9970 0.0240
vn -0.0699 0.9975 -0.0123
vn -0.0751 0.9972 -0.0065
vn -0.0705 0.9974 -0.0131
vn 0.9348 0.2493 0.2530
vn -0.0058 -0.1280 0.9918
vn 0.1833 0.3720 0.9099
vn 0.1505 0.9769 -0.1516
vn 0.7075 -0.1383 0.6931
vn 0.7022 -0.1428 0.6975
vn 0.7066 -0.1408 0.6934
vn 0.8161 0.2815 0.5047
vn 0.9914 -0.1309 -0.0074
vn 0.9550 0.2736 -0.1144
vn 0.1346 0.9695 -0.2046
vn 0.6701 0.7275 -0.1476
vn 0.0368 0.9818 -0.1862
vn 0.0302 0.9825 -0.1836
vn 0.0387 0.9829 -0.1803
vn 0.1601 0.9871 0.0001
vn 0.4659 0.7365 0.4905
vn 0.4836 0.8432 0.2348
vn -0.0044 0.3724 0.9281
vn 0.7239 0.6716 0.1579
vn 0.1296 0.9838 -0.1239
vn 0.1261 0.9842 -0.1240
vn 0.1306 0.9836 -0.1244
vn 0.1443 0.9820 -0.1218
vn 0.1446 0.9821 -0.1210
vn 0.1370 0.9833 -0.1200
vn 0.0587 0.9913 -0.1182
vn 0.0513 0.9904 -0.1283
vn 0.0544 0.9916 -0.1178
vn 0.0237 0.9958 -0.0879
vn 0.0243 0.9965 -0.0802
vn 0.0248 0.9965 -0.0801
vn 0.0661 0.9978 0.0081
vn 0.0589 0.9982 0.0080
vn 0.0586 0.9982 0.0157
vn 0.1332 0.9905 0.0328
vn 0.1329 0.9906 0.0336
vn 0.1410 0.9895 0.0316
vn 0.2433 0.5753 0.7809
vn 0.0499 0.9983 0.0292
vn 0.0423 0.9986 0.0304
vn 0.0398 0.9989 0.0232
vn -0.8020 -0.0092 0.5973
vn -0.7343 -0.4313 0.5241
vn -0.7185 0.3675 0.5904
vn -0.6923 0.6332 0.3461
vn -0.6915 0.6346 0.3450
vn -0.6920 0.6339 0.3454
vn -0.4400 0.8145 0.3781
vn -0.6073 0.7735 0.1813
vn -0.3650 0.9186 0.1512
vn -0.5592 -0.0239 0.8287
vn -0.5129 0.4312 0.7423
vn -0.3731 0.7551 0.5391
vn -0.1422 0.9657 0.2174
vn -0.6379 0.6111 0.4686
vn -0.3947 0.7323 0.5549
vn -0.2125 0.7304 0.6491
vn -0.2684 -0.5043 0.8208
vn -0.5261 -0.5023 0.6863
vn 0.0628 0.9979 -0.0142
vn 0.0778 0.9968 -0.0181
vn 0.0809 0.9966 -0.0119
vn 0.0686 0.9975 -0.0175
vn 0.0759 0.9971 -0.0096
vn 0.0602 0.9980 -0.0190
vn 0.0849 0.9963 -0.0138
vn -0.7989 0.2548 0.5449
vn -0.5777 0.3678 0.7287
vn -0.6101 0.7892 0.0701
vn -0.4474 0.8477 0.2850
vn -0.3836 0.7098 0.5908
vn -0.2309 0.3887 0.8920
vn -0.1644 0.9862 0.0179
vn -0.0652 0.9901 -0.1246
vn -0.0574 0.9904 -0.1258
vn -0.0643 0.9910 -0.1175
vn -0.1336 0.9837 -0.1207
vn -0.1293 0.9850 -0.1143
vn -0.1234 0.9852 -0.1190
vn -0.0071 0.9970 -0.0768
vn -0.0144 0.9957 -0.0915
vn -0.0148 0.9957 -0.0915
vn -0.0498 0.9982 0.0336
vn -0.0424 0.9984 0.0380
vn -0.0506 0.9978 0.0435
vn -0.0164 0.7069 0.7072
vn -0.0451 0.9988 0.0175
vn -0.0573 0.9982 0.0168
vn -0.0488 0.9985 0.0246
vn -0.1011 0.9473 0.3040
vn -0.0192 0.9971 0.0739
vn -0.0033 0.7153 0.6989
vn -0.2903 0.6293 0.7209
vn -0.1625 0.8586 0.4863
vn -0.1562 0.8561 0.4927
vn -0.1734 0.8577 0.4841
vn -0.1564 0.2376 0.9587
vn -0.1533 0.2372 0.9593
vn -0.1486 0.2394 0.9595
vn -0.1764 0.2006 0.9637
vn -0.1761 0.2001 0.9638
vn -0.1766 0.2012 0.9635
vn -0.0694 0.6487 0.7579
vn -0.3635 -0.0899 0.9272
vt 0.589302 0.177880
vt 0.591048 0.207903
vt 0.615423 0.424700
vt 0.172160 0.061016
vt 0.175074 0.808287
vt 0.611317 0.532538
vt 0.578290 0.065354
vt 0.582057 0.283146
vt 0.573180 0.054104
vt 0.581791 0.271866
vt 0.026666 0.817629
vt 0.525191 0.652614
vt 0.566162 0.036865
vt 0.565697 0.026741
vt 0.574895 0.245879
vt 0.241178 0.800126
vt 0.687505 0.505693
vt 0.717277 0.247496
vt 0.579710 0.309704
vt 0.606069 0.248154
vt 0.617462 0.463731
vt 0.123092 0.078902
vt 0.565082 0.617165
vt 0.259197 0.783516
vt 0.656507 0.279159
vt 0.587678 0.511722
vt 0.849304 0.750327
vt 0.658144 0.449047
vt 0.517522 0.665851
vt 0.329529 0.749470
vt 0.522529 0.839967
vt 0.134513 0.806151
vt 0.167752 0.809619
vt 0.608282 0.537463
vt 0.849343 0.762838
vt 0.666086 0.447814
vt 0.846103 0.862230
vt 0.768149 0.479011
vt 0.373348 0.911430
vt 0.586632 0.101883
vt 0.588445 0.143768
vt 0.587444 0.318015
vt 0.062400 0.807138
vt 0.550611 0.627329
vt 0.100129 0.087248
vt 0.926891 0.576841
vt 0.358658 0.676501
vt 0.443709 0.864572
vt 0.567930 0.226712
vt 0.593750 0.227051
vt 0.616459 0.429441
vt 0.037838 0.818044
vt 0.535910 0.640642
vt 0.293676 0.915902
vt 0.927473 0.150796
vt 0.887642 0.401129
vt 0.313237 0.785845
vt 0.558669 0.830387
vt 0.792919 0.581903
vt 0.306164 0.807201
vt 0.583259 0.824144
vt 0.853968 0.904859
vt 0.851551 0.884000
vt 0.805213 0.494227
vt 0.364310 0.654805
vt 0.566542 0.016314
vt 0.569075 0.231936
vt 0.319691 0.914769
vt 0.387386 0.910180
vt 0.845027 0.846467
vt 0.753642 0.472649
vt 0.183909 0.056302
vt 0.352245 0.697367
vt 0.467517 0.864834
vt 0.336662 0.735157
vt 0.507443 0.845409
vt 0.402198 0.886445
vt 0.624942 0.904600
vt 0.463858 0.432320
vt 0.266400 0.094573
vt 0.187196 0.010818
vt 0.390809 0.216900
vt 0.277579 0.559661
vt 0.566492 0.041780
vt 0.579522 0.260684
vt 0.351924 0.197243
vt 0.202928 0.082384
vt 0.779205 0.438462
vt 0.586578 0.087996
vt 0.588260 0.306484
vt 0.838195 0.805423
vt 0.715553 0.458170
vt 0.210925 0.803203
vt 0.234375 0.803223
vt 0.636572 0.501746
vt 0.801570 0.581308
vt 0.592789 0.830554
vt 0.846650 0.785926
vt 0.695365 0.452592
vt 0.353390 0.679055
vt 0.454465 0.887438
vt 0.604209 0.204910
vt 0.435760 0.889365
vt 0.576416 0.224365
vt 0.700113 0.248589
vt 0.604195 0.210152
vt 0.624535 0.429245
vt 0.583925 0.650013
vt 0.323933 0.192092
vt 0.190619 0.098057
vt 0.696053 0.424033
vt 0.662132 0.421641
vt 0.551705 0.690212
vt 0.426937 0.900985
vt 0.586457 0.008933
vt 0.579091 0.225753
vt 0.588432 0.632248
vt 0.586243 0.026588
vt 0.477544 0.883630
vt 0.601015 0.085746
vt 0.586745 0.039393
vt 0.725712 0.427257
vt 0.634076 0.548974
vt 0.295528 0.859606
vt 0.906114 0.209780
vt 0.592579 0.865263
vt 0.515160 0.876947
vt 0.321108 0.860852
vt 0.492797 0.511422
vt 0.562974 0.662026
vt 0.763835 0.435061
vt 0.554612 0.674040
vt 0.589801 0.055381
vt 0.531250 0.874482
vt 0.818916 0.446495
vt 0.376290 0.869290
vt 0.482422 0.453369
vt 0.489540 0.482652
vt 0.390631 0.871196
vt 0.475119 0.443863
vt 0.641684 0.236375
vt 0.625764 0.083377
vt 0.608167 0.067313
vt 0.613358 0.645318
vt 0.571284 0.868533
vt 0.230940 0.074420
vt 0.109076 0.372988
vt 0.352402 0.252957
vt 0.255857 0.176957
vt 0.122198 0.134792
vt 0.929744 0.625682
vt 0.707135 0.394095
vt 0.663558 0.526769
vt 0.669862 0.421160
vt 0.672970 0.394494
vt 0.998614 0.421836
vt 0.841903 0.450025
vt 0.586729 0.693466
vt 0.738314 0.394860
vt 0.619156 0.035238
vt 0.620477 0.046168
vt 0.598823 0.672196
vt 0.629040 0.199017
vt 0.517611 0.916958
vt 0.629331 0.203305
vt 0.780195 0.412581
vt 0.426448 0.918241
vt 0.618406 0.005948
vt 0.446946 0.917768
vt 0.619079 0.022332
vt 0.689036 0.563802
vt 0.658893 0.561058
vt 0.664491 0.394068
vt 0.580188 0.707342
vt 0.987260 0.194429
vt 0.986975 0.440247
vt 0.262588 0.899267
vt 0.722134 0.208745
vt 0.721828 0.193255
vt 0.716576 0.567246
vt 0.655416 0.194491
vt 0.533108 0.917657
vt 0.654858 0.199526
vt 0.802582 0.622607
vt 0.599170 0.856390
vt 0.602643 0.874855
vt 0.663093 0.914137
vt 0.222789 0.127012
vt 0.390395 0.419142
vt 0.052252 0.371734
vt 0.437334 0.245393
vt 0.457381 0.463526
vt 0.639115 0.659759
vt 0.686859 0.568808
vt 0.488879 0.916895
vt 0.782024 0.396656
vt 0.280818 0.179872
vt 0.144226 0.124924
vt 0.593635 0.682908
vt 0.322047 0.223810
vt 0.622192 0.057124
vt 0.899188 0.921597
vt 0.425858 0.946442
vt 0.424169 0.940960
vt 0.652876 0.005412
vt 0.654740 0.082512
vt 0.698313 0.364310
vt 0.454802 0.448300
vt 0.653184 0.055632
vt 0.342105 0.841938
vt 0.464999 0.520303
vt 0.239314 0.226226
vt 0.916967 0.664815
vt 0.671131 0.366865
vt 0.662875 0.670553
vt 0.664114 0.366781
vt 0.612297 0.724883
vt 0.794639 0.646552
vt 0.596459 0.918010
vt 0.888938 0.857876
vt 0.487782 0.952098
vt 0.737895 0.359773
vt 0.767058 0.396318
vt 0.681472 0.190163
vt 0.679877 0.083286
vt 0.336557 0.230433
vt 0.207673 0.096962
vt 0.652461 0.019140
vt 0.716264 0.121594
vt 0.722337 0.186339
vt 0.714504 0.573712
vt 0.264988 0.224783
vt 0.573535 0.918012
vt 0.706380 0.192563
vt 0.652841 0.033520
vt 0.896201 0.897658
vt 0.448045 0.947217
vt 0.630225 0.687077
vt 0.678683 0.678559
vt 0.709382 0.083553
vt 0.683220 0.663656
vt 0.705696 0.095964
vt 0.681070 0.196331
vt 0.684345 0.653521
vt 0.705320 0.128315
vt 0.989239 0.455427
vt 0.241164 0.947586
vt 0.851821 0.417856
vt 0.653015 0.044664
vt 0.882755 0.831631
vt 0.514604 0.956597
vt 0.643702 0.680731
vt 0.716563 0.076958
vt 0.804159 0.663666
vt 0.601991 0.950324
vt 0.668136 0.066503
vt 0.622641 0.705153
vt 0.925408 0.893859
vt 0.700680 0.333860
vt 0.703749 0.614779
vt 0.706807 0.141373
vt 0.646403 0.898309
vt 0.412727 0.446828
vt 0.823822 0.397328
vt 0.684699 0.056875
vt 0.707057 0.158639
vt 0.713582 0.597869
vt 0.710696 0.069824
vt 0.681730 0.337053
vt 0.707762 0.178444
vt 0.719727 0.590088
vt 0.720797 0.328369
vt 0.241585 0.958658
vt 0.846991 0.397778
vt 0.667153 0.339499
vt 0.641382 0.748146
vt 0.410750 0.465093
vt 0.765367 0.355625
vt 0.923870 0.865577
vt 0.707628 0.187258
vt 0.679632 0.695472
vt 0.711428 0.070068
vt 0.659743 0.711020
vt 0.661976 0.699051
vt 0.721201 0.060886
vt 0.675887 0.310180
vt 0.953846 0.905197
vt 0.926196 0.921462
vt 0.684445 0.005772
vt 0.686230 0.021616
vt 0.661301 0.313642
vt 0.952866 0.921917
vt 0.716512 0.008505
vt 0.686960 0.034904
vt 0.697571 0.304113
vt 0.955937 0.880077
vt 0.713914 0.060374
vt 0.300297 0.836554
vt 0.964797 0.233807
vt 0.466607 0.546969
vt 0.238517 0.849189
vt 0.781123 0.353810
vt 0.819845 0.347828
vt 0.655752 0.722848
vt 0.326339 0.268966
vt 0.650966 0.733714
vt 0.879038 0.816082
vt 0.529937 0.959838
vt 0.708446 0.301030
vt 0.956784 0.869398
vt 0.662598 0.333008
vt 0.672959 0.743959
vt 0.716928 0.024761
vt 0.270298 0.279457
vt 0.381851 0.448739
vt 0.028075 0.361420
vt 0.727694 0.291823
vt 0.959691 0.847265
vt 0.685976 0.046123
vt 0.757774 0.316861
vt 0.409474 0.549630
vt 0.230270 0.830962
vt 0.110532 0.359424
vt 0.349862 0.299114
vt 0.679959 0.718814
vt 0.718379 0.049201
vt 0.679358 0.730280
vt 0.719580 0.038661
vt 0.405219 0.632904
vt 0.199744 0.947677
vt 0.852521 0.358167
vt 0.922047 0.825364
vt 0.870280 0.776775
vt 0.569227 0.967599
vt 0.068552 0.355402
vt 0.746037 0.284558
vt 0.962616 0.826404
vt 0.113452 0.344883
vt 0.333413 0.304418
vt 0.408850 0.523205
vt 0.770500 0.312919
vt 0.377197 0.460282
vt 0.024416 0.347396
vt 0.921135 0.809927
vt 0.177146 0.308953
vt 0.057233 0.946622
vt 0.804799 0.704789
vt 0.899062 0.741461
vt 0.599676 0.970298
vt 0.068556 0.343904
vt 0.760238 0.277237
vt 0.964204 0.810691
vt 0.918949 0.768379
vt 0.865662 0.754597
vt 0.591866 0.970188
vt 0.067973 0.321334
vt 0.135666 0.264007
vt 0.245053 0.282153
vt 0.181358 0.957039
vt 0.843864 0.345297
vt 0.810863 0.299726
vt 0.793462 0.263565
vt 0.969250 0.773142
vt 0.366505 0.517323
vt 0.013175 0.292168
vt 0.122693 0.289600
vt 0.277126 0.315542
vt 0.360436 0.545419
vt 0.010562 0.266077
vt 0.181598 0.827559
vt 0.007259 0.185775
vt 0.158642 0.946703
vt 0.843345 0.308133
vt 0.837445 0.283146
vt 0.123059 0.263320
vt 0.227931 0.319537
vt 0.077136 0.833059
vt 0.086592 0.956434
vt 0.917852 0.747271
vt 0.066519 0.286887
vt 0.833029 0.293720
vt 0.074810 0.946395
vt 0.917293 0.741090
vt 0.114238 0.956223
vt 0.815450 0.250486
vt 0.971909 0.747908
vt 0.065831 0.262199
vt 0.138390 0.821141
vt 0.086870 0.177799
vt 0.117169 0.947298
vt 0.836670 0.277588
vt 0.584290 0.084882
vt 0.580291 0.074043
vt 0.581770 0.293212
vt 0.232824 0.761066
vt 0.540771 0.530518
vt 0.374474 0.746254
vt 0.987238 0.397708
vt 0.842041 0.477295
vt 0.547854 0.267586
vt 0.077871 0.787477
vt 0.563773 0.600224
vt 0.577520 0.579956
vt 0.050012 0.794928
vt 0.536057 0.625088
vt 0.550624 0.280334
vt 0.998364 0.371978
vt 0.850719 0.923968
vt 0.827790 0.501436
vt 0.813833 0.016515
vt 0.799724 0.540744
vt 0.367366 0.833738
vt 0.343420 0.827804
vt 0.590916 0.428831
vt 0.170035 0.794094
vt 0.370613 0.760687
vt 0.812509 0.899790
vt 0.241067 0.735127
vt 0.525937 0.505568
vt 0.175028 0.018596
vt 0.815802 0.846364
vt 0.738591 0.472341
vt 0.831963 0.747262
vt 0.011626 0.795459
vt 0.505435 0.659868
vt 0.098593 0.441665
vt 0.395587 0.949932
vt 0.543285 0.254692
vt 0.554561 0.315396
vt 0.383456 0.707780
vt 0.204115 0.780699
vt 0.618307 0.507568
vt 0.829068 0.754024
vt 0.038150 0.796376
vt 0.818363 0.808049
vt 0.573578 0.467139
vt 0.357638 0.823529
vt 0.093928 0.459023
vt 0.381187 0.954793
vt 0.749202 0.015114
vt 0.218873 0.411835
vt 0.085994 0.035143
vt 0.915988 0.532252
vt 0.060628 0.780218
vt 0.387101 0.688027
vt 0.553188 0.299847
vt 0.822495 0.780367
vt 0.228752 0.483706
vt 0.161074 0.020059
vt 0.147985 0.430828
vt 0.407654 0.945721
vt 0.622174 0.964746
vt 0.293332 0.163308
vt 0.585086 0.433856
vt 0.361304 0.801050
vt 0.025685 0.797182
vt 0.389066 0.669537
vt 0.389193 0.658624
vt 0.536925 0.239458
vt 0.109404 0.029694
vt 0.814511 0.861355
vt 0.783691 0.493652
vt 0.528519 0.323845
vt 0.804805 0.740886
vt 0.011122 0.758384
vt 0.186869 0.741917
vt 0.797510 0.762837
vt 0.076634 0.631799
vt 0.989931 0.132505
vt 0.987882 0.356001
vt 0.777060 0.838956
vt 0.049805 0.761408
vt 0.518260 0.286659
vt 0.038125 0.761174
vt 0.997519 0.356052
vt 0.809835 0.923718
vt 0.413502 0.751318
vt 0.078466 0.759839
vt 0.417243 0.683509
vt 0.510291 0.264075
vt 0.565593 0.432486
vt 0.524250 0.307153
vt 0.784080 0.810196
vt 0.521145 0.297932
vt 0.802272 0.747953
vt 0.504438 0.332619
vt 0.163568 0.005365
vt 0.261549 0.511819
vt 0.417719 0.661255
vt 0.505708 0.249000
vt 0.026183 0.760398
vt 0.133395 0.462423
vt 0.792012 0.780840
vt 0.174801 0.767826
vt 0.514865 0.276551
vt 0.082091 0.524943
vt 0.326868 0.968403
vt 0.773875 0.853882
vt 0.539891 0.438025
vt 0.063096 0.728615
vt 0.080975 0.730387
vt 0.415200 0.722176
vt 0.517703 0.448974
vt 0.412597 0.766283
vt 0.410624 0.807647
vt 0.181230 0.740906
vt 0.134192 0.446997
vt 0.998775 0.308132
vt 0.998128 0.343237
vt 0.758509 0.914409
vt 0.130477 0.548805
vt 0.877524 0.314536
vt 0.130603 0.521176
vt 0.174676 0.000546
vt 0.264511 0.526438
vt 0.479766 0.325651
vt 0.479222 0.278788
vt 0.099388 0.668656
vt 0.482902 0.341847
vt 0.446847 0.658239
vt 0.473975 0.260700
vt 0.084366 0.703857
vt 0.197912 0.716305
vt 0.542418 0.441847
vt 0.764388 0.772377
vt 0.486791 0.299030
vt 0.482943 0.288461
vt 0.191756 0.714888
vt 0.253426 0.451014
vt 0.122034 0.004886
vt 0.093051 0.011117
vt 0.770601 0.753452
vt 0.022528 0.722592
vt 0.866331 0.042077
vt 0.236719 0.342614
vt 0.429655 0.838600
vt 0.383850 0.833591
vt 0.739707 0.826118
vt 0.753490 0.795158
vt 0.447013 0.684546
vt 0.096076 0.621146
vt 0.986724 0.314583
vt 0.052001 0.726595
vt 0.490917 0.309004
vt 0.129616 0.675474
vt 0.154299 0.679513
vt 0.484336 0.376490
vt 0.515003 0.443018
vt 0.089281 0.675618
vt 0.467914 0.348160
vt 0.113642 0.680139
vt 0.474122 0.375223
vt 0.787075 0.735963
vt 0.776797 0.739567
vt 0.005770 0.720965
vt 0.410227 0.830072
vt 0.141218 0.682505
vt 0.208581 0.691325
vt 0.495877 0.455455
vt 0.707406 0.732997
vt 0.476352 0.682376
vt 0.739209 0.752952
vt 0.751979 0.727604
vt 0.005677 0.684128
vt 0.307984 0.081637
vt 0.322653 0.545424
vt 0.764395 0.892496
vt 0.076043 0.544219
vt 0.300887 0.969674
vt 0.912468 0.093494
vt 0.071376 0.682774
vt 0.457202 0.336579
vt 0.189183 0.687130
vt 0.490245 0.437847
vt 0.762946 0.728274
vt 0.019060 0.685302
vt 0.040842 0.725152
vt 0.030329 0.634145
vt 0.017723 0.629522
vt 0.448049 0.288040
vt 0.201996 0.689259
vt 0.492819 0.450034
vt 0.724371 0.711428
vt 0.473383 0.654090
vt 0.012374 0.633175
vt 0.444701 0.273077
vt 0.462982 0.322471
vt 0.450181 0.721134
vt 0.309164 0.523948
vt 0.733481 0.840037
vt 0.059717 0.642133
vt 0.457306 0.313012
vt 0.178295 0.444506
vt 0.453779 0.750043
vt 0.118896 0.626953
vt 0.120117 0.626465
vt 0.119629 0.626465
vt 0.119873 0.627197
vt 0.050546 0.689978
vt 0.455282 0.765039
vt 0.728673 0.714476
vt 0.006945 0.667637
vt 0.009581 0.649307
vt 0.715751 0.719826
vt 0.719935 0.729207
vt 0.487518 0.663982
vt 0.739489 0.036398
vt 0.251859 0.423126
vt 0.082024 0.011303
vt 0.035221 0.686792
vt 0.711762 0.741880
vt 0.496236 0.680160
vt 0.065915 0.661228
vt 0.447794 0.325690
vt 0.452444 0.330960
vt 0.310385 0.509486
vt 0.725486 0.776735
vt 0.312590 0.449124
vt 0.028897 0.649836
vt 0.199853 0.439266
vt 0.321761 0.157766
vt 0.459976 0.806189
vt 0.699749 0.756894
vt 0.511774 0.716597
vt 0.495604 0.688204
vt 0.482418 0.708705
vt 0.050106 0.638372
vt 0.452503 0.302571
vt 0.196712 0.425478
vt 0.311406 0.133676
vt 0.054821 0.655543
vt 0.704860 0.808257
vt 0.180523 0.459194
vt 0.348964 0.180812
vt 0.997114 0.278325
vt 0.706296 0.898697
vt 0.188188 0.518774
vt 0.371051 0.184920
vt 0.387275 0.182803
vt 0.043226 0.652364
vt 0.987409 0.273617
vt 0.744111 0.916557
vt 0.718147 0.877010
vt 0.492300 0.743807
vt 0.496484 0.757687
vt 0.320192 0.077699
vt 0.343659 0.528812
vt 0.204879 0.451075
vt 0.335427 0.159989
vt 0.334290 0.116457
vt 0.673176 0.786074
vt 0.520147 0.736242
vt 0.875000 0.085693
vt 0.873833 0.081547
vt 0.461479 0.828899
vt 0.333766 0.074048
vt 0.348715 0.514706
vt 0.696716 0.820917
vt 0.189798 0.546556
vt 0.413101 0.192148
vt 0.871407 0.275545
vt 0.663048 0.796284
vt 0.522037 0.749006
vt 0.864821 0.084279
vt 0.742232 0.076957
vt 0.312226 0.420854
vt 0.387832 0.062329
vt 0.366655 0.437810
vt 0.507985 0.796203
vt 0.674493 0.855509
vt 0.371060 0.116209
vt 0.648606 0.810779
vt 0.537525 0.771012
vt 0.533949 0.758846
vt 0.862937 0.126040
vt 0.505117 0.830600
vt 0.925716 0.248037
vt 0.987865 0.248530
vt 0.859018 0.210774
vt 0.647867 0.872565
vt 0.994477 0.249429
vt 0.663089 0.874092
vt 0.220251 0.530606
vt 0.390633 0.168961
vt 0.871616 0.139523
vt 0.513721 0.819010
vt 0.413049 0.060174
vt 0.743549 0.121945
vt 0.366978 0.426459
vt 0.415596 0.170382
vt 0.874726 0.251954
vt 0.747054 0.212258
vt 0.393746 0.114918
vt 0.633076 0.827812
vt 0.544065 0.779880
vt 0.860790 0.168558
vt 0.543870 0.817198
vt 0.868780 0.182825
vt 0.620580 0.843762
vt 0.553731 0.804898
vt 0.418546 0.115375
vt 0.743009 0.162473
s 1
usemtl tripo_mat_180b6fff-7038-498b-a50b-92fc36045247
f 388/633/1 390/637/2 298/492/3
f 315/513/4 298/492/3 390/637/2
f 390/637/2 314/511/5 315/513/4
f 314/511/5 390/637/2 403/659/6
f 302/496/7 315/513/4 314/511/5
f 315/513/4 260/438/8 298/492/3
f 302/496/7 260/438/8 315/513/4
f 267/450/9 363/593/10 312/507/11
f 388/633/1 298/492/3 363/593/10
f 363/593/10 298/492/3 312/507/11
f 312/507/11 298/492/3 260/438/8
f 312/507/11 260/438/8 250/426/12
f 312/507/11 250/426/12 267/450/9
f 350/568/13 302/496/7 314/511/5
f 335/541/14 279/468/15 350/568/13
f 350/568/13 366/596/16 367/597/17
f 350/568/13 367/597/17 365/595/18
f 367/598/19 365/595/19 366/596/19
f 350/568/13 365/595/18 335/541/14
f 335/541/14 365/595/18 367/598/20
f 367/598/20 366/596/16 314/511/5
f 367/598/20 314/511/5 335/541/14
f 350/568/13 314/511/5 366/596/16
f 390/637/2 415/683/21 403/659/6
f 388/633/1 380/620/22 397/648/23
s 0
f 385/629/24 380/620/25 267/450/26
f 267/450/27 380/620/28 363/593/29
s 1
f 363/593/10 380/620/22 388/633/1
f 260/439/8 31/68/30 19/39/31
f 67/128/32 19/39/31 31/68/30
f 31/68/30 260/439/8 302/497/7
f 37/77/33 267/451/9 250/427/12
f 250/427/12 260/439/8 19/39/31
f 19/39/31 32/69/34 250/427/12
f 37/77/33 250/427/12 32/69/34
f 26/54/35 31/68/30 302/497/7
f 302/497/7 350/569/13 26/54/35
f 67/128/32 74/136/36 19/39/31
f 32/69/34 19/39/31 74/136/36
f 74/136/36 75/139/37 32/69/34
f 75/139/37 37/77/33 32/69/34
f 74/136/36 67/128/32 124/210/38
f 64/124/39 182/298/40 67/128/32
f 67/128/32 26/54/35 64/124/39
s 0
f 267/452/41 37/78/41 158/262/41
f 158/262/42 109/187/43 267/452/44
s 1
f 26/54/35 67/128/32 31/68/30
f 182/299/40 64/125/39 103/175/45
f 64/125/39 26/55/35 103/175/45
f 26/55/35 350/570/13 279/469/15
s 0
f 390/638/46 388/634/47 397/649/48
s 1
f 415/684/21 397/649/23 410/671/49
f 410/671/49 419/693/50 415/684/21
f 419/693/50 410/671/49 407/667/51
s 0
f 417/687/52 419/693/53 407/667/54
s 1
f 401/656/55 407/667/51 410/671/49
f 398/650/56 401/656/55 410/671/49
f 397/649/23 398/650/56 410/671/49
f 397/649/23 380/621/22 398/650/56
f 385/630/57 398/650/56 380/621/22
f 398/650/56 385/630/57 396/646/58
f 396/646/58 385/630/57 348/565/59
f 396/646/58 401/656/55 398/650/56
f 418/690/60 403/660/6 415/684/21
s 0
f 423/701/61 415/684/62 419/693/63
s 1
f 423/701/64 418/690/60 415/684/21
f 415/684/21 390/639/2 397/649/23
f 423/701/64 419/693/65 417/687/66
s 0
f 348/565/67 267/453/67 38/80/67
f 109/188/68 38/80/68 267/453/68
f 267/453/69 348/565/69 385/630/70
f 38/81/71 81/146/71 40/87/71
s 1
f 40/87/72 53/110/73 2/4/74
f 2/4/74 34/72/75 40/87/72
f 247/420/76 2/4/74 266/449/77
f 2/4/74 247/420/76 34/72/75
f 34/72/75 247/420/76 40/87/72
f 247/420/76 266/449/77 295/487/78
f 247/420/76 295/487/78 316/514/79
f 316/514/79 38/81/80 247/420/76
f 40/87/72 247/420/76 38/81/80
f 314/512/5 403/661/6 392/641/81
s 0
f 392/641/82 403/661/82 418/691/82
f 413/677/83 392/641/84 418/691/83
s 1
f 314/512/5 392/641/81 335/542/14
f 413/678/85 414/681/86 392/641/87
s 0
f 389/635/88 392/641/89 414/681/90
s 1
f 279/470/15 335/542/14 313/508/91
f 313/508/91 335/542/14 392/641/81
f 26/56/35 279/470/15 235/398/92
f 279/470/15 240/407/93 235/398/92
f 279/470/15 284/475/94 240/407/93
f 279/470/15 313/509/91 284/475/94
f 235/398/92 103/176/45 26/56/35
f 148/246/95 103/176/45 87/156/96
f 87/156/96 103/176/45 235/398/92
f 417/688/66 421/696/97 423/702/64
f 413/679/85 421/696/97 422/698/98
f 400/653/99 412/675/100 405/664/101
f 331/534/102 406/665/103 372/607/104
f 331/534/102 405/664/101 406/665/103
f 406/665/103 405/664/101 412/675/100
f 417/688/66 406/665/103 412/675/100
f 421/696/97 417/688/66 412/675/100
f 418/692/60 423/702/64 413/679/85
f 413/679/85 423/702/64 421/696/97
f 416/685/105 421/696/97 412/675/100
f 331/534/102 400/654/99 405/664/101
f 241/410/106 331/534/102 261/440/107
f 75/140/37 74/137/36 110/192/108
s 0
f 37/79/109 75/140/110 122/208/111
f 37/79/112 122/208/113 158/263/114
s 1
f 110/192/108 168/277/115 122/208/116
f 110/192/108 74/138/36 124/211/38
f 75/140/37 110/192/108 122/208/116
f 122/208/116 168/277/115 158/263/117
f 168/277/115 110/192/108 124/211/38
f 124/211/38 206/340/118 168/277/115
f 208/342/119 168/277/115 220/364/120
f 192/315/121 158/263/117 208/342/119
f 158/263/117 168/277/115 208/342/119
f 206/340/118 220/364/120 168/277/115
f 220/364/120 196/321/122 222/368/123
s 0
f 200/329/124 222/368/125 196/321/126
s 1
f 196/321/122 206/340/118 182/300/40
f 124/211/38 67/129/32 182/300/40
f 206/340/118 124/211/38 182/300/40
f 206/340/118 196/321/122 220/364/120
f 158/263/117 192/315/121 109/189/127
f 203/335/128 192/316/121 208/343/119
f 208/343/119 215/356/129 211/350/130
f 208/343/119 211/350/130 203/335/128
f 109/190/127 192/316/121 203/335/128
f 197/323/131 203/335/128 205/338/132
f 109/190/127 197/323/131 81/147/133
f 205/338/132 203/335/128 211/350/130
f 203/335/128 197/323/131 109/190/127
f 221/366/134 205/338/132 226/380/135
f 226/380/135 205/338/132 215/356/129
f 224/375/136 226/380/135 230/387/137
f 226/380/135 220/365/120 230/387/137
f 222/369/123 230/387/137 220/365/120
f 215/356/129 205/338/132 211/350/130
f 220/365/120 226/380/135 208/343/119
f 226/380/135 215/356/129 208/343/119
f 224/375/136 221/366/134 226/380/135
f 224/375/136 216/357/138 221/366/134
f 222/369/123 223/371/139 230/387/137
f 230/387/137 231/389/140 224/375/136
f 81/148/133 197/324/131 135/226/141
f 135/226/141 197/324/131 186/305/142
f 205/339/132 186/305/142 197/324/131
s 0
f 205/339/143 221/367/144 186/305/145
f 81/148/146 38/82/146 109/191/146
s 1
f 40/86/72 81/148/133 135/226/141
f 117/200/147 135/226/141 186/305/142
f 191/314/148 117/200/147 186/305/142
f 138/232/149 117/200/147 191/314/148
f 117/200/147 138/232/149 115/197/150
f 191/314/148 125/212/151 138/232/149
f 53/109/73 135/226/141 117/200/147
f 115/197/150 138/232/149 125/212/151
f 115/197/150 125/212/151 82/149/152
f 115/197/150 53/109/73 117/200/147
s 0
f 210/345/153 216/358/154 224/376/155
s 1
f 210/345/156 125/212/151 216/358/138
f 216/358/138 125/212/151 191/314/148
f 216/358/138 191/314/148 221/367/134
s 0
f 148/247/157 200/330/158 182/301/159
s 1
f 182/301/40 103/177/45 148/247/95
f 196/322/122 182/301/40 200/330/160
s 0
f 200/330/161 223/372/162 222/370/163
s 1
f 223/372/139 231/390/140 230/388/137
f 210/346/164 224/377/136 228/382/165
f 224/377/136 231/390/140 228/382/165
f 225/378/166 228/382/165 229/384/167
f 231/390/140 229/384/167 228/382/165
f 200/330/168 217/359/169 223/372/139
f 148/247/95 166/273/170 200/330/168
f 378/618/171 376/616/172 295/488/78
f 376/616/172 378/618/171 407/668/51
f 376/616/172 407/668/51 401/657/55
s 0
f 407/668/173 378/618/174 417/689/175
s 1
f 406/666/103 417/689/66 378/618/176
f 406/666/103 378/618/176 328/529/177
f 372/608/104 261/441/107 331/535/102
f 360/589/178 295/488/78 376/616/172
f 396/647/58 348/566/59 360/589/178
f 360/589/178 348/566/59 38/83/80
f 316/515/79 360/589/178 38/83/80
f 316/515/79 295/488/78 360/589/178
s 0
f 378/618/179 295/488/180 328/529/180
s 1
f 406/666/103 328/529/177 372/608/104
f 295/488/78 266/448/77 328/529/177
f 376/616/172 396/647/58 360/589/178
f 401/657/55 396/647/58 376/616/172
f 40/87/72 135/227/141 53/110/73
f 2/4/74 53/110/73 11/22/181
f 11/22/181 22/45/182 261/442/107
f 273/460/183 11/22/181 261/442/107
f 11/22/181 273/460/183 2/4/74
f 266/449/77 2/4/74 273/460/183
f 328/530/177 266/449/77 273/460/183
f 328/531/177 261/442/107 372/609/104
f 53/110/73 115/198/150 11/22/181
f 115/198/150 82/150/152 11/22/181
f 11/22/181 82/150/152 22/45/182
f 261/442/107 328/531/177 273/460/183
f 241/411/106 261/443/107 45/96/184
f 45/96/184 261/443/107 22/46/182
f 82/151/152 108/184/185 45/96/184
f 45/96/184 22/46/182 82/151/152
f 82/151/152 152/254/186 108/184/185
f 108/184/185 152/254/186 129/218/187
s 0
f 210/347/188 152/254/188 125/213/188
s 1
f 125/213/151 152/254/186 82/151/152
f 241/411/106 45/96/184 28/59/189
f 186/305/142 221/367/134 191/314/148
s 0
f 389/636/190 409/670/191 393/643/192
s 1
f 409/670/193 389/636/194 414/682/86
f 349/567/195 393/643/196 303/498/197
f 393/643/196 361/590/198 303/498/197
f 402/658/199 361/590/198 393/643/196
f 402/658/199 411/672/200 404/662/201
f 422/699/98 420/694/202 414/682/86
f 414/682/86 420/694/202 409/670/193
f 402/658/199 393/643/196 409/670/203
s 0
f 411/672/204 402/658/205 409/670/206
s 1
f 409/670/193 420/694/202 411/672/207
f 245/417/208 284/476/94 313/510/91
f 240/408/93 284/476/94 245/417/208
f 245/417/208 313/510/91 349/567/195
f 349/567/195 303/498/197 245/417/208
f 392/642/81 389/636/209 313/510/91
s 0
f 313/510/210 389/636/210 393/643/211
f 313/510/212 393/643/213 349/567/214
s 1
f 303/498/197 361/590/198 332/538/215
f 280/471/216 303/498/197 332/538/215
f 280/471/216 291/483/217 257/435/218
f 332/538/215 291/483/217 280/471/216
f 257/435/218 291/483/217 299/493/219
s 0
f 257/435/220 299/493/221 265/447/222
f 43/91/223 265/447/224 46/98/225
s 1
f 265/447/226 299/493/219 278/467/227
f 299/493/219 291/483/217 324/525/228
f 324/525/228 291/483/217 333/539/229
f 324/525/228 346/562/230 329/532/231
f 346/562/230 324/525/228 333/539/229
f 333/539/229 291/483/217 332/538/215
f 333/539/229 377/617/232 346/562/230
f 377/617/232 387/632/233 399/651/234
f 377/617/232 399/651/234 382/623/235
f 43/91/236 257/435/218 265/447/237
f 257/435/218 43/91/236 248/421/238
f 248/421/238 33/70/239 18/37/240
f 248/421/238 18/37/240 274/461/241
f 303/498/197 274/461/241 245/417/208
f 333/539/229 332/538/215 377/617/232
s 0
f 332/538/242 361/590/243 387/632/244
s 1
f 402/658/199 387/632/233 361/590/198
f 332/538/215 387/632/233 377/617/232
f 414/682/86 413/680/85 422/699/98
f 399/651/234 387/632/233 402/658/199
f 402/658/199 404/662/201 399/651/234
f 240/408/93 245/417/208 29/62/245
f 274/461/241 303/498/197 280/471/216
f 274/461/241 280/471/216 248/421/238
f 280/471/216 257/435/218 248/421/238
f 245/417/208 274/461/241 29/63/245
f 265/447/226 293/485/246 255/433/247
f 293/485/246 265/447/226 278/467/227
f 293/485/246 278/467/227 341/554/248
f 255/433/247 293/485/246 276/464/249
f 276/464/249 249/423/250 255/433/247
f 14/27/251 255/433/247 249/423/250
f 255/433/247 17/35/252 46/98/253
f 299/493/219 324/525/228 278/467/227
f 278/467/227 324/525/228 329/532/231
f 278/467/227 329/532/231 341/554/248
f 293/485/246 341/553/248 276/464/249
f 265/447/226 255/433/247 46/98/253
f 17/35/252 255/433/247 14/27/251
f 347/563/254 353/575/255 341/554/248
f 329/532/231 347/563/254 341/554/248
f 347/563/254 329/532/231 346/562/230
f 346/562/230 371/605/256 370/601/257
f 346/562/230 370/601/257 347/563/254
f 371/604/256 357/583/258 370/601/257
f 345/560/259 371/605/256 374/611/260
f 382/623/235 374/611/260 377/617/232
f 346/562/230 377/617/232 374/611/260
f 346/562/230 374/611/260 371/605/256
f 73/135/261 240/409/93 29/64/245
s 0
f 29/64/262 18/38/263 73/135/264
f 41/88/265 73/135/266 18/38/267
s 1
f 43/92/236 69/131/268 33/71/239
f 33/71/239 41/88/269 18/38/240
f 69/131/268 43/92/236 62/122/270
f 33/71/239 69/131/268 41/88/269
f 89/159/271 69/131/268 62/122/270
f 131/222/272 89/159/271 121/207/273
f 121/207/273 89/159/271 83/152/274
f 169/278/275 89/159/271 131/222/272
f 169/278/275 131/222/272 195/320/276
f 195/320/276 131/222/272 165/272/277
f 235/399/92 240/409/93 87/157/96
f 240/409/93 73/135/261 87/157/96
f 87/157/96 73/135/261 166/274/170
f 87/157/96 166/274/170 148/248/95
f 73/135/261 159/264/278 166/274/170
f 114/196/279 41/88/269 96/166/280
f 41/88/269 69/131/268 96/166/280
f 41/88/269 114/196/279 73/135/261
f 73/135/261 114/196/279 159/264/278
f 274/462/241 18/38/240 29/64/245
f 166/274/170 217/360/169 200/331/168
s 0
f 166/274/281 159/264/282 217/360/283
s 1
f 184/303/284 217/360/169 159/264/278
f 223/373/139 217/360/169 227/381/285
f 184/303/284 227/381/285 217/360/169
f 43/92/236 33/71/239 248/422/238
f 46/99/253 54/111/286 62/122/270
f 62/122/270 54/111/286 83/152/274
f 83/152/274 89/159/271 62/122/270
f 46/99/253 62/122/270 43/92/236
f 54/111/286 46/99/253 85/154/287
f 55/112/288 85/154/287 17/36/252
f 85/154/287 55/112/288 102/173/289
f 102/173/289 128/216/290 86/155/291
f 128/216/290 167/275/292 126/214/293
f 178/291/294 167/275/292 190/311/295
f 175/286/296 167/275/292 178/291/294
f 163/269/297 167/275/292 175/286/296
f 163/269/297 126/214/293 167/275/292
f 126/214/293 163/269/297 121/207/273
f 175/286/296 180/295/298 156/259/299
s 0
f 156/259/300 180/295/301 165/272/302
s 1
f 189/309/303 193/317/304 165/272/305
f 121/207/273 156/259/299 165/272/277
f 131/222/272 121/207/273 165/272/277
f 121/207/273 163/269/297 156/259/299
f 175/286/296 156/259/299 163/269/297
f 83/152/274 86/155/291 121/207/273
f 54/111/286 86/155/291 83/152/274
f 85/154/287 86/155/291 54/111/286
f 102/173/289 86/155/291 85/154/287
f 184/303/284 159/264/278 183/302/306
f 183/302/306 159/264/278 114/196/279
f 218/361/307 184/303/284 183/302/306
f 218/361/307 183/302/306 207/341/308
f 207/341/308 183/302/306 195/320/276
f 195/320/276 212/351/309 207/341/308
f 212/351/309 195/320/276 204/336/310
f 195/320/276 193/317/311 204/336/310
s 0
f 165/272/312 193/317/312 195/320/313
s 1
f 169/278/275 195/320/276 183/302/306
f 183/302/306 114/196/279 169/278/275
f 169/278/275 132/223/314 89/159/271
f 114/196/279 132/223/314 169/278/275
s 0
f 96/166/315 69/131/316 114/196/317
f 69/131/318 132/223/319 114/196/320
s 1
f 132/223/314 69/131/268 89/159/271
f 219/362/321 218/361/307 207/341/308
f 219/362/321 207/341/308 212/351/309
f 14/28/251 55/112/288 17/36/252
f 46/99/253 17/36/252 85/154/287
f 126/214/293 86/155/291 128/216/290
f 86/155/291 126/214/293 121/207/273
f 180/295/298 189/309/303 165/272/305
f 184/303/284 218/361/307 227/381/285
f 223/374/139 227/381/285 229/385/167
f 223/374/139 229/385/167 231/391/140
f 218/361/307 219/362/321 229/385/167
f 227/381/285 218/361/307 229/385/167
f 212/352/309 204/337/310 209/344/322
f 204/337/310 201/332/323 209/344/322
s 0
f 204/337/324 193/318/325 201/332/326
s 1
f 193/318/304 170/279/327 201/332/328
f 209/344/322 201/332/323 188/307/329
s 0
f 150/250/330 188/307/331 201/332/332
s 1
f 214/354/333 225/379/166 202/333/334
f 214/354/333 210/348/164 225/379/166
f 225/379/166 213/353/335 202/333/334
f 225/379/166 229/386/167 213/353/335
f 189/310/303 170/279/327 193/318/304
f 170/279/327 189/310/303 180/296/298
f 180/296/298 175/287/296 155/258/336
f 170/279/327 180/296/298 155/258/336
f 142/236/337 170/279/327 155/258/336
f 142/236/337 130/220/338 170/279/327
s 0
f 170/279/339 130/220/340 201/332/341
s 1
f 150/250/342 201/332/343 130/220/338
f 175/287/296 178/292/294 155/258/336
f 178/292/294 176/288/344 155/258/336
f 176/288/344 119/202/345 142/236/337
f 142/236/337 155/258/336 176/288/344
f 209/344/322 188/307/329 213/353/335
f 202/333/334 213/353/335 188/307/329
f 213/353/335 219/363/321 212/352/309
f 209/344/322 213/353/335 212/352/309
f 225/379/166 210/348/164 228/383/165
f 213/353/335 229/386/167 219/363/321
f 408/669/346 411/673/207 420/695/202
f 408/669/346 420/695/202 422/700/98
f 381/622/347 408/669/346 416/686/105
f 381/622/347 416/686/105 400/655/99
f 342/556/348 400/655/99 331/536/102
f 400/655/99 416/686/105 412/676/100
f 416/686/105 408/669/346 422/700/98
f 416/686/105 422/700/98 421/697/97
s 0
f 411/674/349 408/669/350 395/645/351
s 1
f 395/645/352 408/669/346 369/600/353
f 369/600/353 408/669/346 381/622/347
f 309/504/354 369/600/353 381/622/347
f 310/505/355 381/622/347 400/655/99
f 310/505/355 400/655/99 342/556/348
f 381/622/347 310/505/355 309/504/354
f 310/505/355 342/556/348 269/455/356
f 259/437/357 269/455/356 342/556/348
f 259/437/357 342/556/348 331/537/102
f 331/537/102 241/412/106 259/437/357
f 259/437/357 241/413/106 28/60/189
f 28/60/189 27/57/358 259/437/357
f 259/437/357 27/57/358 269/455/356
f 244/416/359 269/455/356 15/30/360
f 15/30/360 269/455/356 27/57/358
f 244/416/359 310/505/355 269/455/356
f 309/504/354 310/505/355 244/416/359
s 0
f 394/644/361 395/645/362 364/594/363
s 1
f 369/600/353 364/594/364 395/645/352
f 369/600/353 309/504/354 285/477/365
f 285/477/365 359/588/366 364/594/364
f 364/594/364 359/588/366 394/644/367
f 285/477/365 364/594/364 369/600/353
f 383/626/368 394/644/367 359/588/366
f 394/644/367 383/626/368 399/652/234
f 399/652/234 383/626/368 382/624/235
f 345/561/259 374/612/260 382/625/235
f 357/584/258 371/606/256 345/561/259
f 357/584/258 345/561/259 334/540/369
f 287/479/370 320/520/371 334/540/369
f 296/489/372 320/520/371 287/479/370
s 0
f 296/489/373 287/479/374 271/457/375
f 272/458/376 296/489/377 271/457/378
s 1
f 263/445/379 271/457/380 287/479/370
f 307/502/381 287/479/370 334/540/369
f 287/479/370 253/430/382 263/445/379
f 263/445/379 253/430/382 23/47/383
f 287/479/370 307/502/381 253/430/382
f 411/674/200 395/645/384 404/663/201
f 395/645/384 394/644/367 404/663/201
f 399/652/234 404/663/201 394/644/367
f 309/504/354 244/416/359 285/477/365
f 244/416/359 234/397/385 285/477/365
f 285/477/365 253/430/382 307/502/381
f 253/430/382 285/477/365 234/397/385
f 253/430/382 234/397/385 35/73/386
s 0
f 253/430/387 35/73/388 23/47/389
f 47/100/390 23/47/391 35/73/392
s 1
f 307/502/381 359/588/366 285/477/365
f 383/626/368 334/540/369 345/561/259
f 334/540/369 383/626/368 359/588/366
f 334/540/369 359/588/366 307/502/381
f 320/520/371 357/584/258 334/540/369
f 345/561/259 382/625/235 383/626/368
f 234/397/385 244/416/359 36/75/393
f 36/75/393 244/416/359 15/30/360
f 36/75/393 35/73/386 234/397/385
f 23/47/394 30/65/395 272/458/396
f 23/47/394 272/458/396 271/457/397
s 0
f 263/445/398 23/47/399 271/457/400
s 1
f 28/61/189 45/97/184 65/126/401
s 0
f 27/58/402 28/61/403 65/126/404
s 1
f 45/97/184 108/185/185 65/126/401
s 0
f 65/126/405 108/186/406 129/219/407
s 1
f 139/233/408 65/126/409 129/219/187
f 152/255/186 210/349/164 129/219/187
f 210/349/164 214/355/333 129/219/187
f 129/219/187 214/355/333 202/334/334
f 202/334/334 139/233/408 129/219/187
f 27/58/358 65/126/409 80/145/410
f 65/126/409 139/233/408 80/145/410
f 27/58/358 80/145/410 72/134/411
f 80/145/410 139/233/408 72/134/411
f 106/182/412 72/134/411 139/233/408
f 106/182/412 139/233/408 202/334/334
f 106/182/412 202/334/334 188/308/329
f 98/169/413 130/221/338 142/237/337
f 130/221/338 98/169/413 113/195/414
f 98/169/413 142/237/337 119/203/345
f 15/31/360 27/58/358 72/134/411
f 66/127/415 15/31/360 72/134/411
f 15/31/360 66/127/415 36/76/393
f 36/76/393 59/119/416 35/74/386
f 36/76/393 66/127/415 59/119/416
f 59/119/416 98/169/413 47/101/417
f 98/169/413 59/119/416 113/195/414
f 113/195/414 150/251/342 130/221/338
f 150/251/342 94/164/418 188/308/329
f 150/251/342 113/195/414 94/164/418
f 188/308/329 94/164/418 106/182/412
f 113/195/414 66/127/415 94/164/418
f 113/195/414 59/119/416 66/127/415
f 94/164/418 66/127/415 106/182/412
f 72/134/411 106/182/412 66/127/415
f 23/48/394 47/101/419 49/103/420
f 47/101/417 35/74/386 59/119/416
s 0
f 98/169/421 49/103/422 47/101/423
s 1
f 119/204/345 97/167/424 98/169/413
s 0
f 56/114/425 98/169/426 97/167/427
s 1
f 98/169/428 56/114/429 49/103/420
f 276/465/249 341/555/248 330/533/430
f 276/465/249 330/533/430 297/491/431
f 373/610/432 330/533/430 353/576/255
f 354/577/433 330/533/430 373/610/432
f 373/610/432 368/599/434 354/577/433
f 276/465/249 297/491/431 270/456/435
f 276/465/249 270/456/435 249/424/250
f 283/474/436 270/456/435 297/491/431
f 283/474/436 297/491/431 330/533/430
f 283/474/436 330/533/430 354/577/433
f 336/543/437 283/474/436 354/577/433
f 336/543/437 281/472/438 283/474/436
f 238/404/439 283/474/436 281/472/438
f 270/456/435 283/474/436 256/434/440
f 256/434/440 283/474/436 238/404/439
f 256/434/440 238/404/439 25/52/441
f 238/404/439 262/444/442 21/43/443
s 0
f 21/43/444 262/444/445 237/401/446
s 1
f 238/404/439 281/472/438 262/444/442
f 341/555/248 353/576/255 330/533/430
f 375/613/447 368/599/434 386/631/448
f 351/571/449 368/599/434 375/613/447
s 0
f 351/571/450 339/549/451 321/522/452
f 321/522/453 306/501/454 351/571/455
s 1
f 336/543/437 351/571/449 305/500/456
s 0
f 305/500/457 351/571/458 306/501/459
s 1
f 368/599/434 336/543/437 354/577/433
f 336/543/437 368/599/434 351/571/449
f 305/500/456 262/444/442 281/472/438
f 281/472/438 336/543/437 305/500/456
f 286/478/460 262/444/442 305/500/456
f 286/478/460 305/500/456 306/501/461
f 386/631/448 368/599/434 391/640/462
f 362/591/463 375/613/447 386/631/448
f 362/591/463 386/631/448 384/627/464
f 379/619/465 355/578/466 384/627/464
f 384/627/464 391/640/462 379/619/465
f 391/640/462 384/627/464 386/631/448
f 357/585/258 355/579/466 370/603/257
f 370/603/257 355/579/466 379/619/465
f 379/619/465 391/640/462 353/576/255
f 391/640/462 373/610/432 353/576/255
f 368/599/434 373/610/432 391/640/462
f 286/478/460 300/494/467 237/401/468
f 16/32/469 237/401/468 243/415/470
f 16/33/469 243/415/470 3/5/471
f 254/431/472 3/5/471 243/415/470
f 340/551/473 321/522/474 339/549/475
f 340/551/473 339/549/475 319/518/476
f 343/557/477 340/551/473 338/545/478
f 340/551/473 343/557/477 321/522/474
f 286/478/460 306/501/461 300/494/467
f 237/401/468 300/494/467 243/415/470
s 0
f 306/501/479 311/506/480 300/494/479
s 1
f 311/506/481 306/501/482 327/528/483
f 327/528/483 306/501/482 321/522/474
f 321/522/474 352/573/484 327/528/483
f 327/528/483 352/573/484 356/581/485
f 352/573/484 343/557/477 338/546/478
f 352/573/484 321/522/474 343/557/477
f 300/494/467 311/506/481 277/466/486
f 327/528/483 322/523/487 277/466/486
f 246/418/488 322/523/487 344/558/489
f 322/523/487 327/528/483 344/558/489
f 356/581/485 344/558/489 327/528/483
f 44/93/490 254/431/472 233/395/491
f 44/94/490 233/395/491 8/16/492
f 8/16/492 233/395/491 13/24/493
f 277/466/486 322/523/487 233/395/491
f 233/395/491 322/523/487 246/418/488
f 277/466/486 311/506/481 327/528/483
f 270/456/435 256/434/440 6/11/494
f 256/434/440 25/52/441 6/11/494
f 6/11/494 249/424/250 270/456/435
s 0
f 262/444/495 286/478/496 237/401/497
s 1
f 353/576/255 347/564/254 370/602/257
f 379/619/465 353/576/255 370/603/257
f 233/395/491 254/431/472 277/466/486
f 243/415/470 300/494/467 254/431/472
f 300/494/467 277/466/486 254/431/472
f 249/425/250 6/12/494 14/29/251
f 102/174/289 55/113/288 88/158/498
f 70/132/499 88/158/498 55/113/288
f 68/130/500 52/108/501 92/162/502
f 52/108/503 57/117/504 79/144/505
f 92/162/502 52/108/501 151/252/506
f 88/158/498 70/132/499 68/130/500
f 88/158/498 68/130/500 116/199/507
f 92/162/502 116/199/507 68/130/500
f 25/53/441 68/130/500 6/12/494
f 70/132/499 6/12/494 68/130/500
f 70/132/499 55/113/288 14/29/251
f 70/132/499 14/29/251 6/12/494
f 52/108/501 25/53/441 21/44/443
f 21/44/443 25/53/441 238/405/439
f 12/23/508 21/44/509 237/402/468
s 0
f 52/108/510 21/44/511 12/23/512
s 1
f 68/130/500 25/53/441 52/108/501
s 0
f 52/108/513 12/23/514 57/117/515
s 1
f 237/403/468 16/34/469 12/23/508
f 154/257/516 173/283/517 185/304/518
f 173/283/517 174/284/519 198/325/520
f 143/238/521 174/284/519 173/283/517
f 174/284/519 143/238/521 151/252/506
f 173/283/517 154/257/516 143/238/521
f 88/158/498 116/199/507 154/257/516
s 0
f 102/174/522 88/158/523 154/257/524
s 1
f 102/174/289 154/257/516 128/217/290
f 143/238/521 92/162/502 151/252/506
f 52/108/501 111/193/525 151/252/506
s 0
f 111/193/526 52/108/527 79/144/528
s 1
f 92/162/502 143/238/521 116/199/507
f 154/257/516 116/199/507 143/238/521
f 151/252/506 111/193/525 127/215/529
f 174/284/519 151/252/506 172/281/530
s 0
f 144/239/531 151/252/532 127/215/533
s 1
f 144/239/534 127/215/529 145/241/535
f 145/241/535 127/215/529 147/244/536
f 161/267/537 157/260/538 137/231/539
f 101/172/540 100/171/541 112/194/542
f 100/171/541 137/231/539 112/194/542
f 84/153/543 8/17/492 104/180/544
f 84/153/543 104/180/544 100/171/541
f 84/153/543 100/171/541 63/123/545
f 84/153/543 44/95/490 8/17/492
f 44/95/490 84/153/543 3/6/471
f 63/123/545 100/171/541 101/172/540
f 112/194/542 111/193/525 101/172/540
f 147/244/536 127/215/529 137/231/539
f 137/231/539 127/215/529 111/193/525
f 137/231/539 111/193/525 112/194/542
s 0
f 79/144/546 57/117/547 101/172/548
s 1
f 79/144/549 101/172/540 111/193/525
s 0
f 57/117/550 12/23/551 16/34/552
s 1
f 57/117/553 16/34/469 63/123/545
s 0
f 101/172/554 57/117/555 63/123/556
s 1
f 63/123/545 16/34/469 3/6/471
f 63/123/545 3/6/471 84/153/543
f 254/432/472 44/95/490 3/6/471
f 128/217/290 154/257/516 187/306/557
f 185/304/518 187/306/557 154/257/516
f 128/217/290 187/306/557 167/276/292
f 199/327/558 190/312/295 187/306/557
f 187/306/557 190/312/295 167/276/292
f 187/306/557 185/304/518 199/327/558
f 199/327/558 173/283/517 198/325/520
f 173/283/517 199/327/558 185/304/518
f 178/293/294 190/313/295 177/290/559
f 199/328/558 177/290/559 190/313/295
f 199/328/558 198/326/520 194/319/560
f 199/328/558 179/294/561 177/290/559
f 199/328/558 194/319/560 179/294/561
f 194/319/560 181/297/562 160/265/563
f 194/319/560 198/326/520 181/297/562
f 178/293/294 177/290/559 176/289/344
s 0
f 119/205/564 136/228/565 99/170/566
s 1
f 119/205/345 176/289/344 136/228/567
f 177/290/559 136/228/567 176/289/344
f 141/235/568 179/294/561 149/249/569
f 194/319/560 149/249/569 179/294/561
f 141/235/568 136/228/567 179/294/561
f 136/228/567 177/290/559 179/294/561
s 0
f 97/168/570 119/205/571 99/170/572
s 1
f 99/170/573 58/118/574 97/168/575
f 56/115/429 7/14/576 30/66/395
f 58/118/574 39/84/577 7/13/576
s 0
f 39/84/578 58/118/579 61/121/580
s 1
f 58/118/574 7/14/576 56/115/429
f 61/121/581 58/118/574 90/160/582
f 61/121/581 90/160/582 71/133/583
f 90/160/582 58/118/574 99/170/573
f 71/133/583 90/160/582 91/161/584
f 39/84/585 61/121/581 5/9/586
f 5/9/586 61/121/581 71/133/583
f 5/9/586 71/133/583 4/7/587
f 4/7/587 78/143/588 232/393/589
s 0
f 232/392/590 60/120/591 42/89/592
f 60/120/593 232/393/594 78/143/595
s 1
f 77/142/596 48/102/597 60/120/598
f 77/142/596 60/120/598 78/143/599
f 118/201/600 78/143/588 71/133/583
f 141/235/568 90/160/582 99/170/573
f 141/235/568 99/170/573 136/228/567
f 91/161/584 90/160/582 141/235/568
f 141/235/568 149/249/569 91/161/584
f 91/161/584 123/209/601 118/201/600
f 78/143/588 118/201/600 123/209/601
f 123/209/601 91/161/584 149/249/569
f 123/209/601 149/249/569 160/265/563
f 123/209/601 160/265/563 153/256/602
f 160/265/563 149/249/569 194/319/560
s 0
f 77/142/603 78/143/604 120/206/605
s 1
f 48/102/597 77/142/596 93/163/606
f 134/225/607 120/206/608 153/256/602
f 162/268/609 134/225/607 153/256/602
f 181/297/562 162/268/609 153/256/602
f 160/265/563 181/297/562 153/256/602
f 56/115/429 97/168/575 58/118/574
f 174/285/519 181/297/562 198/326/520
f 174/285/519 172/282/530 181/297/562
s 0
f 172/282/610 151/253/611 144/240/612
f 134/225/613 162/268/614 144/240/615
s 1
f 134/225/607 144/240/534 145/242/535
f 134/225/607 145/242/535 147/245/536
f 147/245/536 133/224/616 134/225/607
f 60/120/598 48/102/597 20/40/617
f 60/120/598 20/40/617 42/89/618
f 162/268/609 181/297/562 144/240/619
f 147/245/536 137/229/539 157/261/538
f 147/245/536 157/261/538 133/224/616
f 134/225/607 133/224/616 120/206/608
s 0
f 77/142/620 120/206/621 105/181/622
s 1
f 120/206/608 133/224/616 105/181/623
f 93/163/606 77/142/596 105/181/623
f 133/224/616 157/261/538 161/266/537
f 164/270/624 133/224/616 161/266/537
f 164/270/624 137/230/539 171/280/625
f 171/280/625 137/230/539 104/179/544
f 104/178/544 8/18/492 50/105/626
f 104/178/544 50/105/626 140/234/627
s 0
f 50/105/628 8/18/629 13/25/630
s 1
f 76/141/631 95/165/632 107/183/633
f 95/165/632 93/163/606 107/183/633
f 48/102/597 1/1/634 20/41/617
f 107/183/633 93/163/606 105/181/623
f 164/270/624 171/280/625 133/224/616
f 105/181/623 133/224/616 146/243/635
f 146/243/635 107/183/633 105/181/623
s 0
f 146/243/636 140/234/637 76/141/638
s 1
f 140/234/627 146/243/635 133/224/616
f 140/234/627 133/224/616 171/280/625
f 104/179/544 140/234/627 171/280/625
s 0
f 140/234/639 50/105/640 76/141/641
s 1
f 107/183/633 146/243/635 76/141/631
f 13/25/642 76/141/643 50/105/644
s 0
f 76/141/645 13/25/646 10/20/647
s 1
f 4/7/587 71/133/583 78/143/588
f 172/282/530 144/240/619 181/297/562
s 0
f 51/106/648 76/141/649 10/20/650
f 95/165/651 76/141/652 51/106/653
s 1
f 95/165/632 51/106/654 48/102/597
f 95/165/632 48/102/597 93/163/606
s 0
f 24/50/655 51/106/656 10/20/657
s 1
f 1/2/634 48/102/597 51/106/654
f 153/256/602 120/206/608 78/143/588
f 153/256/602 78/143/588 123/209/601
f 91/161/584 118/201/600 71/133/583
f 384/628/464 355/580/466 326/527/658
f 326/527/658 355/580/466 318/517/659
f 325/526/660 362/592/463 326/527/658
s 0
f 325/526/661 337/544/662 362/592/663
s 1
f 362/592/463 337/544/664 358/587/665
f 384/628/464 326/527/658 362/592/463
f 358/587/665 337/544/664 317/516/666
f 358/587/665 375/614/447 362/592/463
f 357/586/258 320/521/371 355/580/466
f 318/517/659 355/580/466 320/521/371
f 301/495/667 325/526/660 326/527/658
f 325/526/660 301/495/667 282/473/668
f 337/544/664 325/526/660 292/484/669
f 282/473/668 292/484/669 325/526/660
f 337/544/664 292/484/669 290/482/670
f 290/482/670 317/516/666 337/544/664
f 317/516/666 290/482/670 294/486/671
f 275/463/672 294/486/671 290/482/670
f 275/463/672 290/482/670 252/429/673
f 251/428/674 301/495/667 288/480/675
f 301/495/667 326/527/658 288/480/675
f 288/480/675 326/527/658 318/517/659
f 318/517/659 320/521/371 288/480/675
f 296/490/372 288/480/675 320/521/371
f 317/516/666 375/614/447 358/587/665
f 351/572/449 375/615/447 317/516/666
s 0
f 317/516/676 294/486/677 319/519/678
f 317/516/679 319/519/680 339/550/681
s 1
f 317/516/666 339/550/682 351/572/449
f 340/552/473 319/519/476 338/547/478
f 319/519/476 294/486/671 338/547/478
f 338/548/478 294/486/671 304/499/683
f 304/499/683 294/486/671 289/481/684
f 356/582/485 352/574/484 338/548/478
f 338/548/478 308/503/685 344/559/489
f 308/503/685 338/548/478 323/524/686
f 323/524/686 338/548/478 304/499/683
f 323/524/686 304/499/683 289/481/684
f 268/454/687 289/481/684 242/414/688
f 323/524/686 289/481/684 268/454/687
f 258/436/689 323/524/686 268/454/687
s 0
f 258/436/690 13/26/691 246/419/692
s 1
f 246/419/488 13/26/493 233/396/491
s 0
f 246/419/693 308/503/694 258/436/695
s 1
f 344/559/489 356/582/485 338/548/478
f 344/559/489 308/503/685 246/419/488
s 0
f 10/21/696 13/26/697 258/436/698
f 258/436/699 268/454/700 24/51/701
s 1
f 268/454/687 242/414/688 1/3/634
f 268/454/687 1/3/634 24/51/702
s 0
f 258/436/703 24/51/704 10/21/705
s 1
f 51/107/654 24/51/702 1/3/634
f 323/524/686 258/436/689 308/503/685
f 289/481/684 294/486/671 275/463/672
f 264/446/706 252/429/673 290/482/670
f 252/429/673 232/394/707 9/19/708
f 232/394/707 252/429/673 264/446/706
f 232/394/707 42/90/618 9/19/708
f 9/19/708 42/90/618 20/42/617
f 9/19/708 20/42/617 252/429/673
f 20/42/617 242/414/688 252/429/673
f 292/484/669 264/446/706 290/482/670
f 292/484/669 239/406/709 264/446/706
f 239/406/709 292/484/669 282/473/668
f 232/394/707 264/446/706 239/406/709
s 0
f 232/394/710 239/406/711 4/8/712
f 39/85/713 239/406/714 236/400/715
f 239/406/716 39/85/717 5/10/718
s 1
f 4/8/587 239/406/719 5/10/586
f 236/400/720 251/428/674 39/85/577
f 39/85/577 251/428/674 7/15/576
f 30/67/395 7/15/576 251/428/674
f 251/428/674 272/459/396 30/67/395
f 272/459/396 251/428/674 288/480/675
f 272/459/396 288/480/675 296/490/372
f 301/495/667 251/428/674 236/400/720
f 236/400/720 282/473/668 301/495/667
f 239/406/709 282/473/668 236/400/720
f 30/67/395 23/49/394 49/104/420
f 49/104/420 56/116/429 30/67/395
f 20/42/617 1/3/634 242/414/688
f 242/414/688 289/481/684 252/429/673
f 252/429/673 289/481/684 275/463/672
f 100/171/541 104/180/544 137/231/539
f 161/267/537 137/231/539 164/271/624
